Atma-Medium.ufo
<glyph name="exclam" format="1">
  <advance width="242"/>
  <unicode hex="0021"/>
  <outline>
    <contour>
      <point x="62" y="702"/>
      <point x="61" y="679"/>
      <point x="61" y="661" type="curve" smooth="yes"/>
      <point x="61" y="529"/>
      <point x="64" y="403"/>
      <point x="78" y="218" type="curve"/>
      <point x="92" y="215"/>
      <point x="109" y="213"/>
      <point x="127" y="213" type="curve" smooth="yes"/>
      <point x="141" y="213"/>
      <point x="150" y="214"/>
      <point x="158" y="216" type="curve"/>
      <point x="153" y="376"/>
      <point x="160" y="569"/>
      <point x="180" y="730" type="curve"/>
      <point x="166" y="734"/>
      <point x="152" y="737"/>
      <point x="134" y="737" type="curve" smooth="yes"/>
      <point x="107" y="737"/>
      <point x="85" y="730"/>
      <point x="63" y="719" type="curve"/>
    </contour>
    <contour>
      <point x="73" y="64"/>
      <point x="73" y="33"/>
      <point x="75" y="-2" type="curve"/>
      <point x="88" y="-7"/>
      <point x="107" y="-11"/>
      <point x="127" y="-11" type="curve" smooth="yes"/>
      <point x="144" y="-11"/>
      <point x="159" y="-9"/>
      <point x="178" y="-6" type="curve"/>
      <point x="175" y="29"/>
      <point x="174" y="56"/>
      <point x="172" y="93" type="curve"/>
      <point x="139" y="95"/>
      <point x="113" y="96"/>
      <point x="75" y="95" type="curve"/>
    </contour>
  </outline>
</glyph>
<glyph name="dollar" format="1">
  <advance width="390"/>
  <unicode hex="0024"/>
  <outline>
    <contour>
      <point x="268" y="179" type="curve" smooth="yes"/>
      <point x="268" y="131"/>
      <point x="243" y="104"/>
      <point x="197" y="104" type="curve" smooth="yes"/>
      <point x="139" y="104"/>
      <point x="103" y="160"/>
      <point x="107" y="248" type="curve"/>
      <point x="83" y="249"/>
      <point x="50" y="244"/>
      <point x="18" y="232" type="curve"/>
      <point x="18" y="121"/>
      <point x="84" y="39"/>
      <point x="197" y="39" type="curve" smooth="yes"/>
      <point x="296" y="39"/>
      <point x="375" y="101"/>
      <point x="375" y="197" type="curve" smooth="yes"/>
      <point x="375" y="284"/>
      <point x="321" y="335"/>
      <point x="244" y="394" type="curve" smooth="yes"/>
      <point x="184" y="441"/>
      <point x="140" y="483"/>
      <point x="140" y="546" type="curve" smooth="yes"/>
      <point x="140" y="593"/>
      <point x="166" y="619"/>
      <point x="204" y="619" type="curve"/>
      <point x="247" y="619"/>
      <point x="269" y="586"/>
      <point x="281" y="508" type="curve"/>
      <point x="316" y="509"/>
      <point x="345" y="516"/>
      <point x="369" y="529" type="curve"/>
      <point x="351" y="630"/>
      <point x="303" y="685"/>
      <point x="203" y="685" type="curve" smooth="yes"/>
      <point x="95" y="685"/>
      <point x="32" y="617"/>
      <point x="32" y="526" type="curve" smooth="yes"/>
      <point x="32" y="432"/>
      <point x="91" y="382"/>
      <point x="155" y="330" type="curve" smooth="yes"/>
      <point x="213" y="282"/>
      <point x="268" y="243"/>
    </contour>
    <contour>
      <point x="238" y="650" type="line"/>
      <point x="233" y="694"/>
      <point x="233" y="735"/>
      <point x="237" y="777" type="curve"/>
      <point x="210" y="781"/>
      <point x="182" y="779"/>
      <point x="161" y="771" type="curve"/>
      <point x="159" y="735"/>
      <point x="166" y="691"/>
      <point x="172" y="651" type="curve"/>
    </contour>
    <contour>
      <point x="153" y="-65" type="curve"/>
      <point x="181" y="-69"/>
      <point x="207" y="-68"/>
      <point x="228" y="-61" type="curve"/>
      <point x="232" y="-23"/>
      <point x="229" y="21"/>
      <point x="226" y="58" type="curve"/>
      <point x="160" y="61" type="line"/>
      <point x="163" y="14"/>
      <point x="160" y="-19"/>
    </contour>
  </outline>
</glyph>
<glyph name="percent" format="1">
  <advance width="839"/>
  <unicode hex="0025"/>
  <outline>
    <contour>
      <point x="222" y="762" type="curve"/>
      <point x="108" y="762"/>
      <point x="33" y="671"/>
      <point x="33" y="529" type="curve"/>
      <point x="33" y="422"/>
      <point x="79" y="327"/>
      <point x="180" y="327" type="curve" smooth="yes"/>
      <point x="313" y="327"/>
      <point x="364" y="459"/>
      <point x="364" y="588" type="curve"/>
      <point x="364" y="695"/>
      <point x="313" y="762"/>
    </contour>
    <contour>
      <point x="205" y="704" type="curve" smooth="yes"/>
      <point x="250" y="704"/>
      <point x="271" y="658"/>
      <point x="271" y="557" type="curve" smooth="yes"/>
      <point x="271" y="467"/>
      <point x="248" y="385"/>
      <point x="198" y="385" type="curve" smooth="yes"/>
      <point x="150" y="385"/>
      <point x="124" y="460"/>
      <point x="124" y="541" type="curve" smooth="yes"/>
      <point x="124" y="642"/>
      <point x="158" y="704"/>
    </contour>
    <contour>
      <point x="665" y="421" type="curve"/>
      <point x="550" y="421"/>
      <point x="475" y="330"/>
      <point x="475" y="188" type="curve"/>
      <point x="475" y="80"/>
      <point x="522" y="-13"/>
      <point x="623" y="-13" type="curve" smooth="yes"/>
      <point x="755" y="-13"/>
      <point x="806" y="117"/>
      <point x="806" y="247" type="curve"/>
      <point x="806" y="354"/>
      <point x="755" y="421"/>
    </contour>
    <contour>
      <point x="648" y="363" type="curve" smooth="yes"/>
      <point x="693" y="363"/>
      <point x="714" y="317"/>
      <point x="714" y="216" type="curve" smooth="yes"/>
      <point x="714" y="126"/>
      <point x="690" y="44"/>
      <point x="640" y="44" type="curve" smooth="yes"/>
      <point x="592" y="44"/>
      <point x="566" y="118"/>
      <point x="566" y="200" type="curve" smooth="yes"/>
      <point x="566" y="301"/>
      <point x="600" y="363"/>
    </contour>
    <component base="fraction" xOffset="227" yOffset="-3"/>
  </outline>
</glyph>
<glyph name="parenright" format="1">
  <advance width="373"/>
  <unicode hex="0029"/>
  <outline>
    <contour>
      <point x="232" y="324" type="curve" smooth="yes"/>
      <point x="232" y="168"/>
      <point x="164" y="-1"/>
      <point x="-9" y="-114" type="curve"/>
      <point x="12" y="-140"/>
      <point x="34" y="-157"/>
      <point x="57" y="-168" type="curve"/>
      <point x="228" y="-43"/>
      <point x="320" y="130"/>
      <point x="320" y="330" type="curve" smooth="yes"/>
      <point x="320" y="519"/>
      <point x="232" y="689"/>
      <point x="80" y="804" type="curve"/>
      <point x="44" y="787"/>
      <point x="28" y="771"/>
      <point x="13" y="752" type="curve"/>
      <point x="161" y="641"/>
      <point x="232" y="496"/>
    </contour>
  </outline>
</glyph>
<glyph name="zero" format="1">
  <advance width="542"/>
  <unicode hex="0030"/>
  <outline>
    <contour>
      <point x="303" y="673" type="curve"/>
      <point x="142" y="673"/>
      <point x="36" y="536"/>
      <point x="36" y="306" type="curve"/>
      <point x="36" y="129"/>
      <point x="109" y="-20"/>
      <point x="252" y="-20" type="curve" smooth="yes"/>
      <point x="426" y="-20"/>
      <point x="505" y="160"/>
      <point x="505" y="392" type="curve"/>
      <point x="505" y="560"/>
      <point x="434" y="673"/>
    </contour>
    <contour>
      <point x="282" y="598" type="curve" smooth="yes"/>
      <point x="361" y="598"/>
      <point x="396" y="516"/>
      <point x="396" y="347" type="curve" smooth="yes"/>
      <point x="396" y="180"/>
      <point x="351" y="54"/>
      <point x="271" y="54" type="curve" smooth="yes"/>
      <point x="191" y="54"/>
      <point x="144" y="173"/>
      <point x="144" y="321" type="curve" smooth="yes"/>
      <point x="144" y="494"/>
      <point x="202" y="598"/>
    </contour>
  </outline>
</glyph>
<glyph name="four" format="1">
  <advance width="539"/>
  <unicode hex="0034"/>
  <outline>
    <contour>
      <point x="516" y="120" type="curve"/>
      <point x="527" y="142"/>
      <point x="534" y="174"/>
      <point x="536" y="201" type="curve"/>
      <point x="396" y="208"/>
      <point x="262" y="222"/>
      <point x="111" y="255" type="curve"/>
      <point x="113" y="217" type="line"/>
      <point x="226" y="385"/>
      <point x="304" y="551"/>
      <point x="367" y="727" type="curve"/>
      <point x="341" y="738"/>
      <point x="303" y="753"/>
      <point x="263" y="755" type="curve"/>
      <point x="197" y="541"/>
      <point x="137" y="410"/>
      <point x="14" y="227" type="curve"/>
      <point x="19" y="207"/>
      <point x="23" y="189"/>
      <point x="32" y="172" type="curve"/>
      <point x="181" y="147"/>
      <point x="378" y="126"/>
    </contour>
    <contour>
      <point x="368" y="-37" type="curve"/>
      <point x="373" y="123"/>
      <point x="391" y="307"/>
      <point x="423" y="410" type="curve"/>
      <point x="408" y="413"/>
      <point x="388" y="416"/>
      <point x="372" y="415" type="curve" smooth="yes"/>
      <point x="341" y="414"/>
      <point x="322" y="409"/>
      <point x="308" y="401" type="curve"/>
      <point x="289" y="310"/>
      <point x="279" y="184"/>
      <point x="279" y="62" type="curve" smooth="yes"/>
      <point x="279" y="28"/>
      <point x="280" y="-4"/>
      <point x="281" y="-37" type="curve"/>
      <point x="290" y="-40"/>
      <point x="300" y="-42"/>
      <point x="315" y="-42" type="curve" smooth="yes"/>
      <point x="336" y="-43"/>
      <point x="353" y="-41"/>
    </contour>
  </outline>
</glyph>
<glyph name="five" format="1">
  <advance width="453"/>
  <unicode hex="0035"/>
  <outline>
    <contour>
      <point x="211" y="-37" type="curve" smooth="yes"/>
      <point x="331" y="-37"/>
      <point x="411" y="61"/>
      <point x="411" y="196" type="curve" smooth="yes"/>
      <point x="411" y="327"/>
      <point x="336" y="407"/>
      <point x="225" y="407" type="curve" smooth="yes"/>
      <point x="201" y="407"/>
      <point x="174" y="403"/>
      <point x="153" y="395" type="curve"/>
      <point x="150" y="451"/>
      <point x="156" y="520"/>
      <point x="169" y="601" type="curve"/>
      <point x="139" y="573" type="line"/>
      <point x="242" y="553"/>
      <point x="314" y="543"/>
      <point x="421" y="535" type="curve"/>
      <point x="433" y="562"/>
      <point x="441" y="595"/>
      <point x="442" y="629" type="curve"/>
      <point x="309" y="631"/>
      <point x="218" y="641"/>
      <point x="81" y="671" type="curve"/>
      <point x="68" y="601"/>
      <point x="59" y="513"/>
      <point x="59" y="428" type="curve" smooth="yes"/>
      <point x="59" y="403"/>
      <point x="59" y="381"/>
      <point x="61" y="356" type="curve"/>
      <point x="70" y="343"/>
      <point x="89" y="326"/>
      <point x="102" y="316" type="curve"/>
      <point x="126" y="327"/>
      <point x="150" y="331"/>
      <point x="172" y="331" type="curve" smooth="yes"/>
      <point x="262" y="331"/>
      <point x="303" y="258"/>
      <point x="303" y="172" type="curve" smooth="yes"/>
      <point x="303" y="77"/>
      <point x="269" y="30"/>
      <point x="209" y="30" type="curve" smooth="yes"/>
      <point x="154" y="30"/>
      <point x="108" y="71"/>
      <point x="108" y="188" type="curve"/>
      <point x="77" y="193"/>
      <point x="40" y="200"/>
      <point x="5" y="200" type="curve"/>
      <point x="13" y="49"/>
      <point x="90" y="-37"/>
    </contour>
  </outline>
</glyph>
<glyph name="eight" format="1">
  <advance width="498"/>
  <unicode hex="0038"/>
  <outline>
    <contour>
      <point x="461" y="227" type="curve" smooth="yes"/>
      <point x="461" y="323"/>
      <point x="379" y="389"/>
      <point x="275" y="389" type="curve" smooth="yes"/>
      <point x="126" y="389"/>
      <point x="36" y="285"/>
      <point x="36" y="170" type="curve" smooth="yes"/>
      <point x="36" y="73"/>
      <point x="104" y="-6"/>
      <point x="223" y="-6" type="curve" smooth="yes"/>
      <point x="382" y="-6"/>
      <point x="461" y="109"/>
    </contour>
    <contour>
      <point x="353" y="214" type="curve" smooth="yes"/>
      <point x="353" y="130"/>
      <point x="310" y="58"/>
      <point x="241" y="58" type="curve" smooth="yes"/>
      <point x="184" y="58"/>
      <point x="143" y="107"/>
      <point x="143" y="186" type="curve" smooth="yes"/>
      <point x="143" y="276"/>
      <point x="197" y="331"/>
      <point x="255" y="331" type="curve" smooth="yes"/>
      <point x="317" y="331"/>
      <point x="353" y="283"/>
    </contour>
    <contour>
      <point x="343" y="533" type="curve" smooth="yes"/>
      <point x="343" y="459"/>
      <point x="309" y="398"/>
      <point x="246" y="398" type="curve" smooth="yes"/>
      <point x="179" y="398"/>
      <point x="150" y="458"/>
      <point x="150" y="521" type="curve" smooth="yes"/>
      <point x="150" y="595"/>
      <point x="189" y="658"/>
      <point x="251" y="658" type="curve" smooth="yes"/>
      <point x="304" y="658"/>
      <point x="343" y="618"/>
    </contour>
    <contour>
      <point x="451" y="563" type="curve" smooth="yes"/>
      <point x="451" y="659"/>
      <point x="375" y="723"/>
      <point x="267" y="723" type="curve" smooth="yes"/>
      <point x="131" y="723"/>
      <point x="42" y="640"/>
      <point x="42" y="515" type="curve" smooth="yes"/>
      <point x="42" y="419"/>
      <point x="110" y="340"/>
      <point x="217" y="340" type="curve" smooth="yes"/>
      <point x="377" y="340"/>
      <point x="451" y="442"/>
    </contour>
  </outline>
</glyph>
<glyph name="nine" format="1">
  <advance width="518"/>
  <unicode hex="0039"/>
  <outline>
    <contour>
      <point x="209" y="49" type="curve"/>
      <point x="306" y="49"/>
      <point x="378" y="183"/>
      <point x="378" y="383" type="curve" smooth="yes"/>
      <point x="378" y="555"/>
      <point x="331" y="636"/>
      <point x="260" y="636" type="curve" smooth="yes"/>
      <point x="196" y="636"/>
      <point x="151" y="569"/>
      <point x="151" y="478" type="curve" smooth="yes"/>
      <point x="151" y="381"/>
      <point x="196" y="332"/>
      <point x="258" y="332" type="curve" smooth="yes"/>
      <point x="316" y="332"/>
      <point x="363" y="384"/>
      <point x="378" y="480" type="curve"/>
      <point x="412" y="401" type="line"/>
      <point x="373" y="305"/>
      <point x="308" y="257"/>
      <point x="230" y="257" type="curve" smooth="yes"/>
      <point x="120" y="257"/>
      <point x="42" y="343"/>
      <point x="42" y="460" type="curve" smooth="yes"/>
      <point x="42" y="600"/>
      <point x="128" y="711"/>
      <point x="262" y="711" type="curve" smooth="yes"/>
      <point x="401" y="711"/>
      <point x="486" y="588"/>
      <point x="486" y="392" type="curve" smooth="yes"/>
      <point x="486" y="153"/>
      <point x="366" y="-30"/>
      <point x="197" y="-30" type="curve" smooth="yes"/>
      <point x="120" y="-30"/>
      <point x="69" y="2"/>
      <point x="32" y="47" type="curve"/>
      <point x="47" y="77"/>
      <point x="64" y="102"/>
      <point x="89" y="125" type="curve"/>
      <point x="114" y="78"/>
      <point x="156" y="49"/>
    </contour>
  </outline>
</glyph>
<glyph name="less" format="1">
  <advance width="396"/>
  <unicode hex="003C"/>
  <outline>
    <contour>
      <point x="70" y="304" type="line"/>
      <point x="156" y="367"/>
      <point x="248" y="419"/>
      <point x="367" y="470" type="curve"/>
      <point x="362" y="493"/>
      <point x="356" y="508"/>
      <point x="345" y="532" type="curve"/>
      <point x="234" y="488"/>
      <point x="118" y="427"/>
      <point x="32" y="363" type="curve"/>
      <point x="30" y="318" type="line"/>
      <point x="110" y="255"/>
      <point x="231" y="191"/>
      <point x="344" y="148" type="curve"/>
      <point x="355" y="169"/>
      <point x="361" y="187"/>
      <point x="365" y="211" type="curve"/>
      <point x="246" y="261"/>
      <point x="147" y="314"/>
      <point x="68" y="376" type="curve"/>
    </contour>
  </outline>
</glyph>
<glyph name="B" format="1">
  <advance width="590"/>
  <unicode hex="0042"/>
  <outline>
    <contour>
      <point x="185" y="5" type="curve"/>
      <point x="180" y="83"/>
      <point x="177" y="150"/>
      <point x="177" y="249" type="curve" smooth="yes"/>
      <point x="177" y="376"/>
      <point x="176" y="526"/>
      <point x="191" y="696" type="curve"/>
      <point x="170" y="701"/>
      <point x="101" y="702"/>
      <point x="74" y="697" type="curve"/>
      <point x="73" y="635"/>
      <point x="74" y="586"/>
      <point x="74" y="538" type="curve" smooth="yes"/>
      <point x="74" y="371"/>
      <point x="78" y="238"/>
      <point x="91" y="21" type="curve"/>
      <point x="112" y="18"/>
      <point x="166" y="5"/>
    </contour>
    <contour>
      <point x="505" y="577" type="curve" smooth="yes"/>
      <point x="505" y="677"/>
      <point x="424" y="740"/>
      <point x="269" y="740" type="curve"/>
      <point x="201" y="740"/>
      <point x="134" y="725"/>
      <point x="74" y="697" type="curve"/>
      <point x="76" y="684"/>
      <point x="95" y="644"/>
      <point x="104" y="630" type="curve"/>
      <point x="143" y="654"/>
      <point x="212" y="672"/>
      <point x="262" y="672" type="curve" smooth="yes"/>
      <point x="355" y="672"/>
      <point x="398" y="629"/>
      <point x="398" y="563" type="curve" smooth="yes"/>
      <point x="398" y="480"/>
      <point x="340" y="424"/>
      <point x="166" y="409" type="curve"/>
      <point x="203" y="364" type="line"/>
      <point x="455" y="394"/>
      <point x="505" y="495"/>
    </contour>
    <contour>
      <point x="555" y="261" type="curve" smooth="yes"/>
      <point x="555" y="357"/>
      <point x="478" y="424"/>
      <point x="322" y="424" type="curve" smooth="yes"/>
      <point x="272" y="424"/>
      <point x="212" y="409"/>
      <point x="159" y="399" type="curve"/>
      <point x="159" y="325" type="line"/>
      <point x="190" y="339"/>
      <point x="254" y="357"/>
      <point x="306" y="357" type="curve" smooth="yes"/>
      <point x="411" y="357"/>
      <point x="445" y="307"/>
      <point x="445" y="237" type="curve" smooth="yes"/>
      <point x="445" y="142"/>
      <point x="362" y="51"/>
      <point x="254" y="51" type="curve" smooth="yes"/>
      <point x="212" y="51"/>
      <point x="173" y="67"/>
      <point x="140" y="93" type="curve"/>
      <point x="91" y="21" type="line"/>
      <point x="130" y="-3"/>
      <point x="186" y="-20"/>
      <point x="242" y="-20" type="curve" smooth="yes"/>
      <point x="418" y="-20"/>
      <point x="555" y="106"/>
    </contour>
  </outline>
</glyph>
<glyph name="D" format="1">
  <advance width="589"/>
  <unicode hex="0044"/>
  <outline>
    <contour>
      <point x="171" y="-10" type="curve"/>
      <point x="167" y="64"/>
      <point x="165" y="129"/>
      <point x="165" y="220" type="curve" smooth="yes"/>
      <point x="165" y="374"/>
      <point x="166" y="482"/>
      <point x="179" y="666" type="curve"/>
      <point x="158" y="672"/>
      <point x="91" y="676"/>
      <point x="62" y="671" type="curve"/>
      <point x="60" y="620"/>
      <point x="59" y="558"/>
      <point x="59" y="508" type="curve" smooth="yes"/>
      <point x="59" y="346"/>
      <point x="66" y="193"/>
      <point x="79" y="-1" type="curve"/>
      <point x="98" y="-5"/>
      <point x="152" y="-10"/>
    </contour>
    <contour>
      <point x="553" y="443" type="curve" smooth="yes"/>
      <point x="553" y="611"/>
      <point x="462" y="717"/>
      <point x="263" y="717" type="curve" smooth="yes"/>
      <point x="188" y="717"/>
      <point x="125" y="701"/>
      <point x="62" y="671" type="curve"/>
      <point x="65" y="654"/>
      <point x="78" y="607"/>
      <point x="89" y="589" type="curve"/>
      <point x="140" y="621"/>
      <point x="191" y="645"/>
      <point x="248" y="645" type="curve" smooth="yes"/>
      <point x="380" y="645"/>
      <point x="442" y="566"/>
      <point x="442" y="444" type="curve" smooth="yes"/>
      <point x="442" y="267"/>
      <point x="344" y="121"/>
      <point x="117" y="52" type="curve"/>
      <point x="171" y="-10" type="line"/>
      <point x="404" y="62"/>
      <point x="553" y="249"/>
    </contour>
  </outline>
</glyph>
<glyph name="F" format="1">
  <advance width="520"/>
  <unicode hex="0046"/>
  <outline>
    <contour>
      <point x="424" y="354" type="curve"/>
      <point x="424" y="388"/>
      <point x="422" y="413"/>
      <point x="415" y="440" type="curve"/>
      <point x="326" y="436"/>
      <point x="244" y="424"/>
      <point x="161" y="404" type="curve"/>
      <point x="167" y="329" type="line"/>
      <point x="248" y="341"/>
      <point x="338" y="350"/>
    </contour>
    <contour>
      <point x="205" y="-70" type="curve"/>
      <point x="209" y="48"/>
      <point x="210" y="152"/>
      <point x="207" y="327" type="curve" smooth="yes"/>
      <point x="205" y="465"/>
      <point x="195" y="597"/>
      <point x="177" y="714" type="curve"/>
      <point x="140" y="714"/>
      <point x="83" y="718"/>
      <point x="56" y="720" type="curve"/>
      <point x="96" y="479"/>
      <point x="110" y="184"/>
      <point x="106" y="-80" type="curve"/>
      <point x="143" y="-80"/>
      <point x="176" y="-77"/>
    </contour>
    <contour>
      <point x="478" y="681" type="curve"/>
      <point x="480" y="695"/>
      <point x="482" y="711"/>
      <point x="481" y="728" type="curve" smooth="yes"/>
      <point x="480" y="745"/>
      <point x="477" y="761"/>
      <point x="473" y="774" type="curve"/>
      <point x="328" y="748"/>
      <point x="225" y="732"/>
      <point x="56" y="720" type="curve"/>
      <point x="63" y="707"/>
      <point x="92" y="661"/>
      <point x="92" y="640" type="curve"/>
      <point x="233" y="645"/>
      <point x="340" y="660"/>
    </contour>
  </outline>
</glyph>
<glyph name="H" format="1">
  <advance width="623"/>
  <unicode hex="0048"/>
  <outline>
    <contour>
      <point x="181" y="16" type="curve"/>
      <point x="172" y="204"/>
      <point x="171" y="552"/>
      <point x="185" y="707" type="curve"/>
      <point x="166" y="712"/>
      <point x="150" y="714"/>
      <point x="131" y="714" type="curve" smooth="yes"/>
      <point x="101" y="714"/>
      <point x="76" y="707"/>
      <point x="61" y="698" type="curve"/>
      <point x="61" y="485"/>
      <point x="71" y="236"/>
      <point x="86" y="6" type="curve"/>
      <point x="117" y="5"/>
      <point x="159" y="10"/>
    </contour>
    <contour>
      <point x="555" y="-56" type="curve"/>
      <point x="555" y="149"/>
      <point x="546" y="486"/>
      <point x="534" y="727" type="curve"/>
      <point x="521" y="735"/>
      <point x="501" y="742"/>
      <point x="480" y="742" type="curve" smooth="yes"/>
      <point x="461" y="742"/>
      <point x="446" y="739"/>
      <point x="426" y="733" type="curve"/>
      <point x="442" y="559"/>
      <point x="449" y="144"/>
      <point x="449" y="-45" type="curve"/>
      <point x="470" y="-51"/>
      <point x="519" y="-56"/>
    </contour>
    <contour>
      <point x="476" y="329" type="curve"/>
      <point x="466" y="415" type="line"/>
      <point x="351" y="415"/>
      <point x="248" y="406"/>
      <point x="140" y="386" type="curve"/>
      <point x="146" y="308" type="line"/>
      <point x="254" y="325"/>
      <point x="367" y="329"/>
    </contour>
  </outline>
</glyph>
<glyph name="T" format="1">
  <advance width="588"/>
  <unicode hex="0054"/>
  <outline>
    <contour>
      <point x="558" y="699" type="curve"/>
      <point x="560" y="711"/>
      <point x="563" y="727"/>
      <point x="562" y="744" type="curve" smooth="yes"/>
      <point x="561" y="761"/>
      <point x="559" y="777"/>
      <point x="554" y="792" type="curve"/>
      <point x="353" y="790"/>
      <point x="216" y="776"/>
      <point x="19" y="741" type="curve"/>
      <point x="19" y="717"/>
      <point x="22" y="686"/>
      <point x="31" y="657" type="curve"/>
      <point x="238" y="685"/>
      <point x="357" y="697"/>
    </contour>
    <contour>
      <point x="370" y="36" type="curve"/>
      <point x="375" y="110"/>
      <point x="378" y="185"/>
      <point x="378" y="259" type="curve" smooth="yes"/>
      <point x="378" y="436"/>
      <point x="369" y="585"/>
      <point x="350" y="752" type="curve"/>
      <point x="316" y="752"/>
      <point x="256" y="746"/>
      <point x="229" y="740" type="curve"/>
      <point x="261" y="533"/>
      <point x="276" y="239"/>
      <point x="271" y="24" type="curve"/>
      <point x="312" y="24"/>
      <point x="346" y="29"/>
    </contour>
  </outline>
</glyph>
<glyph name="asciicircum" format="1">
  <advance width="420"/>
  <unicode hex="005E"/>
  <outline>
    <contour>
      <point x="173" y="479" type="line"/>
      <point x="237" y="393"/>
      <point x="288" y="300"/>
      <point x="339" y="182" type="curve"/>
      <point x="363" y="187"/>
      <point x="377" y="193"/>
      <point x="401" y="203" type="curve"/>
      <point x="357" y="314"/>
      <point x="296" y="431"/>
      <point x="232" y="517" type="curve"/>
      <point x="187" y="519" type="line"/>
      <point x="124" y="439"/>
      <point x="60" y="318"/>
      <point x="18" y="205" type="curve"/>
      <point x="38" y="194"/>
      <point x="56" y="188"/>
      <point x="80" y="184" type="curve"/>
      <point x="131" y="302"/>
      <point x="183" y="402"/>
      <point x="246" y="481" type="curve"/>
    </contour>
  </outline>
</glyph>
<glyph name="grave" format="1">
  <advance width="260"/>
  <unicode hex="0060"/>
  <outline>
    <contour>
      <point x="193" y="582" type="curve"/>
      <point x="173" y="641"/>
      <point x="160" y="696"/>
      <point x="155" y="749" type="curve"/>
      <point x="130" y="753"/>
      <point x="89" y="753"/>
      <point x="61" y="743" type="curve"/>
      <point x="68" y="684"/>
      <point x="93" y="628"/>
      <point x="127" y="572" type="curve"/>
      <point x="151" y="573"/>
      <point x="171" y="576"/>
    </contour>
    <contour>
      <point x="158" y="560" type="move" name="_top"/>
    </contour>
  </outline>
</glyph>
<glyph name="b" format="1">
  <advance width="476"/>
  <unicode hex="0062"/>
  <outline>
    <contour>
      <point x="63" y="7" type="curve"/>
      <point x="96" y="1"/>
      <point x="125" y="-12"/>
      <point x="159" y="-14" type="curve"/>
      <point x="153" y="39"/>
      <point x="154" y="90"/>
      <point x="154" y="180" type="curve" smooth="yes"/>
      <point x="154" y="356"/>
      <point x="169" y="562"/>
      <point x="194" y="710" type="curve"/>
      <point x="178" y="713"/>
      <point x="167" y="715"/>
      <point x="149" y="715" type="curve" smooth="yes"/>
      <point x="120" y="715"/>
      <point x="90" y="712"/>
      <point x="71" y="703" type="curve"/>
      <point x="60" y="617"/>
      <point x="55" y="473"/>
      <point x="55" y="342" type="curve" smooth="yes"/>
      <point x="55" y="271"/>
      <point x="56" y="119"/>
    </contour>
    <contour>
      <point x="143" y="64" type="curve"/>
      <point x="63" y="7" type="line"/>
      <point x="96" y="-19"/>
      <point x="138" y="-40"/>
      <point x="200" y="-40" type="curve" smooth="yes"/>
      <point x="338" y="-40"/>
      <point x="439" y="90"/>
      <point x="439" y="293" type="curve" smooth="yes"/>
      <point x="439" y="436"/>
      <point x="386" y="509"/>
      <point x="290" y="509" type="curve" smooth="yes"/>
      <point x="191" y="509"/>
      <point x="142" y="432"/>
      <point x="108" y="319" type="curve"/>
      <point x="145" y="286" type="line"/>
      <point x="169" y="392"/>
      <point x="215" y="437"/>
      <point x="255" y="437" type="curve" smooth="yes"/>
      <point x="305" y="437"/>
      <point x="331" y="392"/>
      <point x="331" y="303" type="curve" smooth="yes"/>
      <point x="331" y="157"/>
      <point x="297" y="34"/>
      <point x="207" y="34" type="curve" smooth="yes"/>
      <point x="180" y="34"/>
      <point x="159" y="46"/>
    </contour>
  </outline>
</glyph>
<glyph name="d" format="1">
  <advance width="493"/>
  <unicode hex="0064"/>
  <outline>
    <contour>
      <point x="342" y="444" type="curve"/>
      <point x="351" y="508" type="line"/>
      <point x="339" y="515"/>
      <point x="297" y="525"/>
      <point x="263" y="525" type="curve" smooth="yes"/>
      <point x="121" y="525"/>
      <point x="32" y="407"/>
      <point x="32" y="229" type="curve" smooth="yes"/>
      <point x="32" y="86"/>
      <point x="88" y="-30"/>
      <point x="203" y="-30" type="curve" smooth="yes"/>
      <point x="286" y="-30"/>
      <point x="345" y="32"/>
      <point x="363" y="244" type="curve"/>
      <point x="329" y="278" type="line"/>
      <point x="320" y="96"/>
      <point x="270" y="47"/>
      <point x="226" y="47" type="curve" smooth="yes"/>
      <point x="173" y="47"/>
      <point x="136" y="112"/>
      <point x="136" y="243" type="curve" smooth="yes"/>
      <point x="136" y="397"/>
      <point x="204" y="458"/>
      <point x="273" y="458" type="curve" smooth="yes"/>
      <point x="306" y="458"/>
      <point x="325" y="452"/>
    </contour>
    <contour>
      <point x="313" y="476"/>
      <point x="324" y="128"/>
      <point x="344" y="-42" type="curve"/>
      <point x="370" y="-42"/>
      <point x="405" y="-36"/>
      <point x="424" y="-31" type="curve"/>
      <point x="422" y="18"/>
      <point x="421" y="54"/>
      <point x="421" y="117" type="curve" smooth="yes"/>
      <point x="421" y="306"/>
      <point x="421" y="591"/>
      <point x="434" y="721" type="curve"/>
      <point x="417" y="725"/>
      <point x="401" y="727"/>
      <point x="387" y="727" type="curve" smooth="yes"/>
      <point x="359" y="727"/>
      <point x="329" y="720"/>
      <point x="313" y="712" type="curve"/>
    </contour>
  </outline>
</glyph>
<glyph name="e" format="1">
  <advance width="461"/>
  <unicode hex="0065"/>
  <outline>
    <contour>
      <point x="106" y="272" type="line"/>
      <point x="154" y="252"/>
      <point x="207" y="243"/>
      <point x="254" y="243" type="curve" smooth="yes"/>
      <point x="307" y="243"/>
      <point x="353" y="247"/>
      <point x="388" y="261" type="curve"/>
      <point x="401" y="294"/>
      <point x="412" y="344"/>
      <point x="412" y="395" type="curve" smooth="yes"/>
      <point x="412" y="478"/>
      <point x="362" y="538"/>
      <point x="271" y="538" type="curve" smooth="yes"/>
      <point x="132" y="538"/>
      <point x="30" y="371"/>
      <point x="30" y="217" type="curve" smooth="yes"/>
      <point x="30" y="90"/>
      <point x="89" y="-13"/>
      <point x="215" y="-13" type="curve" smooth="yes"/>
      <point x="326" y="-13"/>
      <point x="408" y="73"/>
      <point x="427" y="132" type="curve"/>
      <point x="407" y="153"/>
      <point x="375" y="170"/>
      <point x="347" y="175" type="curve"/>
      <point x="329" y="114"/>
      <point x="275" y="54"/>
      <point x="227" y="54" type="curve" smooth="yes"/>
      <point x="166" y="54"/>
      <point x="135" y="128"/>
      <point x="135" y="218" type="curve" smooth="yes"/>
      <point x="135" y="333"/>
      <point x="189" y="473"/>
      <point x="263" y="473" type="curve" smooth="yes"/>
      <point x="304" y="473"/>
      <point x="315" y="446"/>
      <point x="315" y="401" type="curve" smooth="yes"/>
      <point x="315" y="369"/>
      <point x="308" y="334"/>
      <point x="301" y="307" type="curve"/>
      <point x="293" y="305"/>
      <point x="272" y="303"/>
      <point x="260" y="303" type="curve" smooth="yes"/>
      <point x="224" y="303"/>
      <point x="163" y="309"/>
      <point x="108" y="338" type="curve"/>
    </contour>
  </outline>
</glyph>
<glyph name="f" format="1">
  <advance width="403"/>
  <unicode hex="0066"/>
  <outline>
    <contour>
      <point x="210" y="-12"/>
      <point x="166" y="-21"/>
      <point x="129" y="-21" type="curve"/>
      <point x="116" y="38"/>
      <point x="90" y="236"/>
      <point x="90" y="398" type="curve" smooth="yes"/>
      <point x="90" y="630"/>
      <point x="151" y="727"/>
      <point x="258" y="727" type="curve" smooth="yes"/>
      <point x="342" y="727"/>
      <point x="382" y="665"/>
      <point x="382" y="597" type="curve" smooth="yes"/>
      <point x="382" y="577"/>
      <point x="377" y="552"/>
      <point x="371" y="539" type="curve"/>
      <point x="342" y="539"/>
      <point x="314" y="544"/>
      <point x="290" y="552" type="curve"/>
      <point x="294" y="566"/>
      <point x="298" y="583"/>
      <point x="298" y="602" type="curve" smooth="yes"/>
      <point x="298" y="637"/>
      <point x="283" y="658"/>
      <point x="257" y="658" type="curve" smooth="yes"/>
      <point x="210" y="658"/>
      <point x="187" y="579"/>
      <point x="187" y="448" type="curve" smooth="yes"/>
      <point x="187" y="276"/>
      <point x="215" y="94"/>
      <point x="239" y="-2" type="curve"/>
    </contour>
    <contour>
      <point x="91" y="450"/>
      <point x="181" y="444"/>
      <point x="264" y="444" type="curve" smooth="yes"/>
      <point x="299" y="444"/>
      <point x="329" y="447"/>
      <point x="349" y="450" type="curve"/>
      <point x="349" y="428"/>
      <point x="345" y="397"/>
      <point x="342" y="379" type="curve"/>
      <point x="328" y="375"/>
      <point x="306" y="373"/>
      <point x="266" y="373" type="curve" smooth="yes"/>
      <point x="156" y="373"/>
      <point x="59" y="390"/>
      <point x="25" y="404" type="curve"/>
      <point x="25" y="418"/>
      <point x="30" y="452"/>
      <point x="36" y="458" type="curve"/>
    </contour>
  </outline>
</glyph>
<glyph name="h" format="1">
  <advance width="497"/>
  <unicode hex="0068"/>
  <outline>
    <contour>
      <point x="447" y="330" type="curve" smooth="yes"/>
      <point x="447" y="477"/>
      <point x="399" y="530"/>
      <point x="308" y="530" type="curve" smooth="yes"/>
      <point x="227" y="530"/>
      <point x="163" y="454"/>
      <point x="128" y="360" type="curve"/>
      <point x="141" y="269" type="line"/>
      <point x="175" y="399"/>
      <point x="238" y="453"/>
      <point x="281" y="453" type="curve" smooth="yes"/>
      <point x="327" y="453"/>
      <point x="342" y="421"/>
      <point x="342" y="329" type="curve" smooth="yes"/>
      <point x="342" y="214"/>
      <point x="314" y="88"/>
      <point x="280" y="-8" type="curve"/>
      <point x="308" y="-21"/>
      <point x="339" y="-30"/>
      <point x="371" y="-32" type="curve"/>
      <point x="392" y="16"/>
      <point x="447" y="193"/>
    </contour>
    <contour>
      <point x="72" y="27" type="curve"/>
      <point x="103" y="27"/>
      <point x="147" y="31"/>
      <point x="167" y="37" type="curve"/>
      <point x="163" y="76"/>
      <point x="155" y="188"/>
      <point x="155" y="263" type="curve" smooth="yes"/>
      <point x="155" y="440"/>
      <point x="173" y="618"/>
      <point x="200" y="747" type="curve"/>
      <point x="182" y="751"/>
      <point x="169" y="755"/>
      <point x="151" y="755" type="curve" smooth="yes"/>
      <point x="121" y="755"/>
      <point x="91" y="748"/>
      <point x="73" y="738" type="curve"/>
      <point x="63" y="670"/>
      <point x="56" y="522"/>
      <point x="56" y="419" type="curve" smooth="yes"/>
      <point x="56" y="297"/>
      <point x="62" y="158"/>
    </contour>
  </outline>
</glyph>
<glyph name="j" format="1">
  <advance width="251"/>
  <unicode hex="006A"/>
  <outline>
    <contour>
      <point x="128" y="619" type="curve"/>
      <point x="134" y="660"/>
      <point x="146" y="710"/>
      <point x="156" y="740" type="curve"/>
      <point x="140" y="748"/>
      <point x="121" y="751"/>
      <point x="95" y="752" type="curve" smooth="yes"/>
      <point x="70" y="752"/>
      <point x="51" y="748"/>
      <point x="33" y="739" type="curve"/>
      <point x="26" y="717"/>
      <point x="25" y="694"/>
      <point x="26" y="670" type="curve" smooth="yes"/>
      <point x="27" y="649"/>
      <point x="31" y="628"/>
      <point x="36" y="609" type="curve"/>
      <point x="76" y="610"/>
      <point x="106" y="612"/>
    </contour>
    <contour>
      <point x="-53" y="-194"/>
      <point x="-100" y="-164"/>
      <point x="-134" y="-106" type="curve"/>
      <point x="-120" y="-78"/>
      <point x="-102" y="-55"/>
      <point x="-80" y="-43" type="curve"/>
      <point x="-56" y="-90"/>
      <point x="-31" y="-110"/>
      <point x="-1" y="-110" type="curve" smooth="yes"/>
      <point x="54" y="-110"/>
      <point x="86" y="-31"/>
      <point x="86" y="131" type="curve" smooth="yes"/>
      <point x="86" y="262"/>
      <point x="58" y="402"/>
      <point x="27" y="526" type="curve"/>
      <point x="62" y="537"/>
      <point x="110" y="541"/>
      <point x="152" y="538" type="curve"/>
      <point x="175" y="421"/>
      <point x="190" y="312"/>
      <point x="190" y="206" type="curve" smooth="yes"/>
      <point x="190" y="-58"/>
      <point x="123" y="-194"/>
      <point x="7" y="-194" type="curve" smooth="yes"/>
    </contour>
  </outline>
</glyph>
<glyph name="k" format="1">
  <advance width="478"/>
  <unicode hex="006B"/>
  <outline>
    <contour>
      <point x="194" y="723" type="curve"/>
      <point x="167" y="733"/>
      <point x="113" y="740"/>
      <point x="79" y="737" type="curve"/>
      <point x="59" y="610"/>
      <point x="51" y="432"/>
      <point x="51" y="302" type="curve" smooth="yes"/>
      <point x="51" y="161"/>
      <point x="60" y="63"/>
      <point x="73" y="-51" type="curve"/>
      <point x="106" y="-51"/>
      <point x="138" y="-47"/>
      <point x="166" y="-39" type="curve"/>
      <point x="153" y="57"/>
      <point x="149" y="143"/>
      <point x="149" y="225" type="curve" smooth="yes"/>
      <point x="149" y="390"/>
      <point x="167" y="579"/>
    </contour>
    <contour>
      <point x="366" y="578" type="curve"/>
      <point x="274" y="441"/>
      <point x="210" y="364"/>
      <point x="85" y="265" type="curve"/>
      <point x="120" y="211" type="line"/>
      <point x="274" y="325"/>
      <point x="351" y="393"/>
      <point x="437" y="517" type="curve"/>
      <point x="421" y="539"/>
      <point x="394" y="564"/>
    </contour>
    <contour>
      <point x="193" y="342" type="curve"/>
      <point x="141" y="281" type="line"/>
      <point x="229" y="153"/>
      <point x="290" y="85"/>
      <point x="380" y="13" type="curve"/>
      <point x="416" y="28"/>
      <point x="438" y="57"/>
      <point x="458" y="84" type="curve"/>
      <point x="338" y="165"/>
      <point x="267" y="230"/>
    </contour>
  </outline>
</glyph>
<glyph name="m" format="1">
  <advance width="745"/>
  <unicode hex="006D"/>
  <outline>
    <contour>
      <point x="395" y="55"/>
      <point x="423" y="202"/>
      <point x="423" y="326" type="curve" smooth="yes"/>
      <point x="423" y="466"/>
      <point x="379" y="513"/>
      <point x="308" y="513" type="curve" smooth="yes"/>
      <point x="240" y="513"/>
      <point x="177" y="468"/>
      <point x="131" y="362" type="curve"/>
      <point x="149" y="298" type="line"/>
      <point x="177" y="384"/>
      <point x="225" y="427"/>
      <point x="266" y="427" type="curve" smooth="yes"/>
      <point x="306" y="427"/>
      <point x="321" y="394"/>
      <point x="321" y="323" type="curve" smooth="yes"/>
      <point x="321" y="229"/>
      <point x="304" y="123"/>
      <point x="286" y="25" type="curve"/>
      <point x="316" y="18"/>
      <point x="353" y="11"/>
      <point x="384" y="11" type="curve"/>
    </contour>
    <contour>
      <point x="44" y="362"/>
      <point x="59" y="104"/>
      <point x="69" y="-22" type="curve"/>
      <point x="99" y="-22"/>
      <point x="137" y="-16"/>
      <point x="158" y="-9" type="curve"/>
      <point x="154" y="30"/>
      <point x="153" y="115"/>
      <point x="153" y="151" type="curve" smooth="yes"/>
      <point x="153" y="268"/>
      <point x="157" y="447"/>
      <point x="168" y="537" type="curve"/>
      <point x="150" y="541"/>
      <point x="135" y="542"/>
      <point x="120" y="542" type="curve" smooth="yes"/>
      <point x="92" y="542"/>
      <point x="62" y="536"/>
      <point x="44" y="527" type="curve"/>
    </contour>
    <contour>
      <point x="646" y="30"/>
      <point x="688" y="218"/>
      <point x="688" y="378" type="curve" smooth="yes"/>
      <point x="688" y="521"/>
      <point x="643" y="569"/>
      <point x="571" y="569" type="curve" smooth="yes"/>
      <point x="499" y="569"/>
      <point x="435" y="519"/>
      <point x="385" y="405" type="curve"/>
      <point x="412" y="338" type="line"/>
      <point x="443" y="433"/>
      <point x="488" y="483"/>
      <point x="528" y="483" type="curve" smooth="yes"/>
      <point x="568" y="483"/>
      <point x="583" y="450"/>
      <point x="583" y="379" type="curve" smooth="yes"/>
      <point x="583" y="256"/>
      <point x="559" y="117"/>
      <point x="527" y="-12" type="curve"/>
      <point x="559" y="-22"/>
      <point x="598" y="-26"/>
      <point x="630" y="-27" type="curve"/>
    </contour>
  </outline>
</glyph>
<glyph name="o" format="1">
  <advance width="474"/>
  <unicode hex="006F"/>
  <outline>
    <contour>
      <point x="260" y="540" type="curve" smooth="yes"/>
      <point x="124" y="540"/>
      <point x="28" y="417"/>
      <point x="28" y="240" type="curve" smooth="yes"/>
      <point x="28" y="106"/>
      <point x="87" y="-10"/>
      <point x="210" y="-10" type="curve" smooth="yes"/>
      <point x="365" y="-10"/>
      <point x="436" y="158"/>
      <point x="436" y="325" type="curve" smooth="yes"/>
      <point x="436" y="457"/>
      <point x="371" y="540"/>
    </contour>
    <contour>
      <point x="237" y="470" type="curve" smooth="yes"/>
      <point x="295" y="470"/>
      <point x="328" y="417"/>
      <point x="328" y="280" type="curve" smooth="yes"/>
      <point x="328" y="160"/>
      <point x="284" y="59"/>
      <point x="230" y="59" type="curve" smooth="yes"/>
      <point x="160" y="59"/>
      <point x="132" y="168"/>
      <point x="132" y="254" type="curve" smooth="yes"/>
      <point x="132" y="381"/>
      <point x="183" y="470"/>
    </contour>
  </outline>
</glyph>
<glyph name="r" format="1">
  <advance width="396"/>
  <unicode hex="0072"/>
  <outline>
    <contour>
      <point x="177" y="-2" type="curve"/>
      <point x="139" y="241"/>
      <point x="140" y="395"/>
      <point x="162" y="537" type="curve"/>
      <point x="145" y="542"/>
      <point x="126" y="546"/>
      <point x="105" y="546" type="curve" smooth="yes"/>
      <point x="84" y="546"/>
      <point x="63" y="544"/>
      <point x="45" y="538" type="curve"/>
      <point x="35" y="366"/>
      <point x="47" y="167"/>
      <point x="81" y="-5" type="curve"/>
      <point x="91" y="-8"/>
      <point x="101" y="-10"/>
      <point x="116" y="-10" type="curve" smooth="yes"/>
      <point x="141" y="-11"/>
      <point x="162" y="-7"/>
    </contour>
    <contour>
      <point x="374" y="392" type="curve"/>
      <point x="376" y="410"/>
      <point x="377" y="427"/>
      <point x="377" y="442" type="curve" smooth="yes"/>
      <point x="377" y="535"/>
      <point x="343" y="575"/>
      <point x="288" y="575" type="curve" smooth="yes"/>
      <point x="217" y="575"/>
      <point x="139" y="468"/>
      <point x="124" y="290" type="curve"/>
      <point x="145" y="216" type="line"/>
      <point x="168" y="393"/>
      <point x="215" y="494"/>
      <point x="257" y="494" type="curve" smooth="yes"/>
      <point x="277" y="494"/>
      <point x="287" y="473"/>
      <point x="287" y="433" type="curve" smooth="yes"/>
      <point x="287" y="419"/>
      <point x="286" y="403"/>
      <point x="283" y="383" type="curve"/>
      <point x="315" y="382"/>
      <point x="349" y="383"/>
    </contour>
  </outline>
</glyph>
<glyph name="s" format="1">
  <advance width="403"/>
  <unicode hex="0073"/>
  <outline>
    <contour>
      <point x="367" y="124" type="curve" smooth="yes"/>
      <point x="367" y="288"/>
      <point x="142" y="302"/>
      <point x="142" y="427" type="curve" smooth="yes"/>
      <point x="142" y="467"/>
      <point x="165" y="492"/>
      <point x="200" y="492" type="curve" smooth="yes"/>
      <point x="246" y="492"/>
      <point x="269" y="457"/>
      <point x="280" y="384" type="curve"/>
      <point x="314" y="387"/>
      <point x="341" y="393"/>
      <point x="366" y="407" type="curve"/>
      <point x="349" y="501"/>
      <point x="302" y="560"/>
      <point x="200" y="560" type="curve" smooth="yes"/>
      <point x="99" y="560"/>
      <point x="40" y="497"/>
      <point x="40" y="411" type="curve" smooth="yes"/>
      <point x="40" y="240"/>
      <point x="264" y="229"/>
      <point x="264" y="102" type="curve" smooth="yes"/>
      <point x="264" y="53"/>
      <point x="236" y="22"/>
      <point x="191" y="22" type="curve" smooth="yes"/>
      <point x="128" y="22"/>
      <point x="98" y="78"/>
      <point x="100" y="155" type="curve"/>
      <point x="75" y="156"/>
      <point x="43" y="151"/>
      <point x="21" y="142" type="curve"/>
      <point x="21" y="35"/>
      <point x="91" y="-41"/>
      <point x="191" y="-41" type="curve" smooth="yes"/>
      <point x="290" y="-41"/>
      <point x="367" y="27"/>
    </contour>
  </outline>
</glyph>
<glyph name="x" format="1">
  <advance width="500"/>
  <unicode hex="0078"/>
  <outline>
    <contour>
      <point x="48" y="493" type="curve"/>
      <point x="176" y="343"/>
      <point x="289" y="164"/>
      <point x="387" y="-34" type="curve"/>
      <point x="413" y="-23"/>
      <point x="445" y="-4"/>
      <point x="464" y="14" type="curve"/>
      <point x="370" y="217"/>
      <point x="277" y="376"/>
      <point x="153" y="555" type="curve"/>
      <point x="116" y="541"/>
      <point x="78" y="517"/>
    </contour>
    <contour>
      <point x="246" y="309" type="curve"/>
      <point x="230" y="301" type="line"/>
      <point x="155" y="209"/>
      <point x="75" y="122"/>
      <point x="-7" y="44" type="curve"/>
      <point x="4" y="24"/>
      <point x="21" y="2"/>
      <point x="41" y="-11" type="curve"/>
      <point x="131" y="71"/>
      <point x="203" y="147"/>
      <point x="275" y="230" type="curve"/>
      <point x="291" y="237" type="line"/>
      <point x="355" y="309"/>
      <point x="418" y="385"/>
      <point x="485" y="475" type="curve"/>
      <point x="465" y="504"/>
      <point x="445" y="529"/>
      <point x="415" y="549" type="curve"/>
      <point x="361" y="463"/>
      <point x="308" y="385"/>
    </contour>
  </outline>
</glyph>
<glyph name="y" format="1">
  <advance width="477"/>
  <unicode hex="0079"/>
  <outline>
    <contour>
      <point x="348" y="519"/>
      <point x="302" y="511"/>
      <point x="275" y="495" type="curve"/>
      <point x="297" y="424"/>
      <point x="316" y="311"/>
      <point x="316" y="169" type="curve" smooth="yes"/>
      <point x="316" y="-78"/>
      <point x="270" y="-159"/>
      <point x="218" y="-159" type="curve" smooth="yes"/>
      <point x="175" y="-159"/>
      <point x="154" y="-120"/>
      <point x="140" y="-29" type="curve"/>
      <point x="107" y="-35"/>
      <point x="74" y="-49"/>
      <point x="48" y="-67" type="curve"/>
      <point x="56" y="-126"/>
      <point x="90" y="-227"/>
      <point x="210" y="-227" type="curve" smooth="yes"/>
      <point x="305" y="-227"/>
      <point x="422" y="-148"/>
      <point x="422" y="188" type="curve" smooth="yes"/>
      <point x="422" y="303"/>
      <point x="405" y="441"/>
      <point x="387" y="515" type="curve"/>
    </contour>
    <contour>
      <point x="55" y="433"/>
      <point x="37" y="361"/>
      <point x="37" y="250" type="curve" smooth="yes"/>
      <point x="37" y="106"/>
      <point x="105" y="17"/>
      <point x="192" y="17" type="curve" smooth="yes"/>
      <point x="258" y="17"/>
      <point x="313" y="63"/>
      <point x="352" y="177" type="curve"/>
      <point x="331" y="246" type="line"/>
      <point x="303" y="146"/>
      <point x="269" y="100"/>
      <point x="225" y="100" type="curve" smooth="yes"/>
      <point x="170" y="100"/>
      <point x="144" y="173"/>
      <point x="144" y="255" type="curve" smooth="yes"/>
      <point x="144" y="340"/>
      <point x="153" y="403"/>
      <point x="185" y="518" type="curve"/>
      <point x="150" y="527"/>
      <point x="116" y="532"/>
      <point x="85" y="533" type="curve"/>
    </contour>
  </outline>
</glyph>
<glyph name="exclamdown" format="1">
  <advance width="242"/>
  <unicode hex="00A1"/>
  <outline>
    <contour>
      <point x="174" y="-154"/>
      <point x="174" y="-131"/>
      <point x="174" y="-113" type="curve" smooth="yes"/>
      <point x="174" y="18"/>
      <point x="171" y="144"/>
      <point x="158" y="329" type="curve"/>
      <point x="143" y="332"/>
      <point x="126" y="334"/>
      <point x="108" y="334" type="curve" smooth="yes"/>
      <point x="94" y="334"/>
      <point x="85" y="333"/>
      <point x="77" y="331" type="curve"/>
      <point x="82" y="171"/>
      <point x="76" y="-21"/>
      <point x="56" y="-182" type="curve"/>
      <point x="69" y="-186"/>
      <point x="83" y="-188"/>
      <point x="101" y="-188" type="curve" smooth="yes"/>
      <point x="128" y="-188"/>
      <point x="150" y="-182"/>
      <point x="173" y="-171" type="curve"/>
    </contour>
    <contour>
      <point x="162" y="483"/>
      <point x="163" y="515"/>
      <point x="161" y="551" type="curve"/>
      <point x="147" y="555"/>
      <point x="129" y="559"/>
      <point x="108" y="559" type="curve" smooth="yes"/>
      <point x="91" y="559"/>
      <point x="76" y="557"/>
      <point x="57" y="554" type="curve"/>
      <point x="60" y="518"/>
      <point x="61" y="491"/>
      <point x="63" y="455" type="curve"/>
      <point x="97" y="453"/>
      <point x="122" y="452"/>
      <point x="161" y="453" type="curve"/>
    </contour>
  </outline>
</glyph>
<glyph name="yen" format="1">
  <advance width="506"/>
  <unicode hex="00A5"/>
  <outline>
    <contour>
      <point x="192" y="-48" type="curve"/>
      <point x="221" y="-48"/>
      <point x="257" y="-44"/>
      <point x="280" y="-39" type="curve"/>
      <point x="294" y="104"/>
      <point x="296" y="230"/>
      <point x="295" y="352" type="curve"/>
      <point x="193" y="338" type="line"/>
      <point x="200" y="206"/>
      <point x="199" y="95"/>
    </contour>
    <contour>
      <point x="453" y="198" type="curve" smooth="yes"/>
      <point x="454" y="208"/>
      <point x="453" y="218"/>
      <point x="452" y="229" type="curve"/>
      <point x="321" y="213"/>
      <point x="176" y="212"/>
      <point x="56" y="224" type="curve"/>
      <point x="51" y="207"/>
      <point x="50" y="177"/>
      <point x="50" y="153" type="curve"/>
      <point x="176" y="141"/>
      <point x="308" y="145"/>
      <point x="445" y="159" type="curve"/>
      <point x="449" y="170"/>
      <point x="452" y="184"/>
    </contour>
    <contour>
      <point x="285" y="288" type="line"/>
      <point x="339" y="290"/>
      <point x="393" y="294"/>
      <point x="452" y="301" type="curve"/>
      <point x="457" y="311"/>
      <point x="462" y="322"/>
      <point x="462" y="337" type="curve" smooth="yes"/>
      <point x="463" y="348"/>
      <point x="463" y="359"/>
      <point x="461" y="371" type="curve"/>
      <point x="403" y="363"/>
      <point x="346" y="359"/>
      <point x="288" y="357" type="curve"/>
    </contour>
    <contour>
      <point x="50" y="293" type="curve"/>
      <point x="101" y="290"/>
      <point x="150" y="289"/>
      <point x="199" y="289" type="curve"/>
      <point x="206" y="358" type="line"/>
      <point x="154" y="359"/>
      <point x="104" y="361"/>
      <point x="56" y="364" type="curve"/>
      <point x="51" y="347"/>
      <point x="49" y="320"/>
    </contour>
    <contour>
      <point x="206" y="248" type="curve"/>
      <point x="264" y="300" type="line"/>
      <point x="211" y="475"/>
      <point x="166" y="573"/>
      <point x="109" y="675" type="curve"/>
      <point x="94" y="672"/>
      <point x="80" y="668"/>
      <point x="66" y="662" type="curve" smooth="yes"/>
      <point x="45" y="653"/>
      <point x="30" y="640"/>
      <point x="20" y="628" type="curve"/>
      <point x="87" y="518"/>
      <point x="153" y="399"/>
    </contour>
    <contour>
      <point x="398" y="684" type="curve"/>
      <point x="353" y="540"/>
      <point x="307" y="438"/>
      <point x="220" y="299" type="curve"/>
      <point x="276" y="259" type="line"/>
      <point x="389" y="428"/>
      <point x="437" y="519"/>
      <point x="480" y="641" type="curve"/>
      <point x="454" y="665"/>
      <point x="429" y="680"/>
    </contour>
  </outline>
</glyph>
<glyph name="section" format="1">
  <advance width="397"/>
  <unicode hex="00A7"/>
  <outline>
    <contour>
      <point x="273" y="232" type="curve" smooth="yes"/>
      <point x="273" y="181"/>
      <point x="238" y="153"/>
      <point x="182" y="147" type="curve"/>
      <point x="199" y="97" type="line"/>
      <point x="294" y="111"/>
      <point x="360" y="168"/>
      <point x="360" y="250" type="curve" smooth="yes"/>
      <point x="360" y="333"/>
      <point x="304" y="376"/>
      <point x="244" y="415" type="curve" smooth="yes"/>
      <point x="174" y="460"/>
      <point x="147" y="495"/>
      <point x="147" y="545" type="curve" smooth="yes"/>
      <point x="147" y="593"/>
      <point x="172" y="620"/>
      <point x="213" y="620" type="curve" smooth="yes"/>
      <point x="260" y="620"/>
      <point x="284" y="586"/>
      <point x="295" y="514" type="curve"/>
      <point x="325" y="515"/>
      <point x="349" y="520"/>
      <point x="370" y="533" type="curve"/>
      <point x="353" y="629"/>
      <point x="303" y="679"/>
      <point x="210" y="679" type="curve" smooth="yes"/>
      <point x="117" y="679"/>
      <point x="53" y="613"/>
      <point x="53" y="530" type="curve" smooth="yes"/>
      <point x="53" y="451"/>
      <point x="98" y="401"/>
      <point x="170" y="356" type="curve" smooth="yes"/>
      <point x="244" y="308"/>
      <point x="273" y="277"/>
    </contour>
    <contour>
      <point x="121" y="263" type="curve" smooth="yes"/>
      <point x="121" y="314"/>
      <point x="156" y="342"/>
      <point x="211" y="348" type="curve"/>
      <point x="195" y="398" type="line"/>
      <point x="99" y="384"/>
      <point x="33" y="327"/>
      <point x="33" y="245" type="curve" smooth="yes"/>
      <point x="33" y="162"/>
      <point x="94" y="117"/>
      <point x="155" y="78" type="curve" smooth="yes"/>
      <point x="228" y="30"/>
      <point x="258" y="-4"/>
      <point x="258" y="-56" type="curve" smooth="yes"/>
      <point x="258" y="-99"/>
      <point x="233" y="-127"/>
      <point x="194" y="-127" type="curve" smooth="yes"/>
      <point x="147" y="-127"/>
      <point x="116" y="-91"/>
      <point x="102" y="-13" type="curve"/>
      <point x="76" y="-14"/>
      <point x="47" y="-24"/>
      <point x="29" y="-36" type="curve"/>
      <point x="53" y="-142"/>
      <point x="107" y="-187"/>
      <point x="195" y="-187" type="curve" smooth="yes"/>
      <point x="290" y="-187"/>
      <point x="352" y="-119"/>
      <point x="352" y="-41" type="curve" smooth="yes"/>
      <point x="352" y="39"/>
      <point x="304" y="89"/>
      <point x="228" y="137" type="curve" smooth="yes"/>
      <point x="155" y="184"/>
      <point x="121" y="218"/>
    </contour>
  </outline>
</glyph>
<glyph name="ordfeminine" format="1">
  <advance width="279"/>
  <unicode hex="00AA"/>
  <outline>
    <contour>
      <point x="221" y="410" type="curve"/>
      <point x="200" y="410"/>
      <point x="175" y="414"/>
      <point x="155" y="419" type="curve"/>
      <point x="169" y="496"/>
      <point x="174" y="537"/>
      <point x="174" y="595" type="curve" smooth="yes"/>
      <point x="174" y="654"/>
      <point x="166" y="687"/>
      <point x="139" y="687" type="curve" smooth="yes"/>
      <point x="116" y="687"/>
      <point x="96" y="660"/>
      <point x="95" y="618" type="curve"/>
      <point x="61" y="622"/>
      <point x="38" y="632"/>
      <point x="26" y="650" type="curve"/>
      <point x="42" y="697"/>
      <point x="84" y="733"/>
      <point x="147" y="733" type="curve" smooth="yes"/>
      <point x="234" y="733"/>
      <point x="255" y="677"/>
      <point x="255" y="622" type="curve" smooth="yes"/>
      <point x="255" y="568"/>
      <point x="237" y="471"/>
    </contour>
    <contour>
      <point x="183" y="551" type="line"/>
      <point x="114" y="554"/>
      <point x="92" y="534"/>
      <point x="92" y="508" type="curve" smooth="yes"/>
      <point x="92" y="486"/>
      <point x="106" y="474"/>
      <point x="128" y="474" type="curve" smooth="yes"/>
      <point x="149" y="474"/>
      <point x="165" y="482"/>
      <point x="180" y="495" type="curve"/>
      <point x="176" y="457" type="line"/>
      <point x="160" y="442"/>
      <point x="135" y="433"/>
      <point x="104" y="433" type="curve" smooth="yes"/>
      <point x="46" y="433"/>
      <point x="8" y="464"/>
      <point x="8" y="512" type="curve" smooth="yes"/>
      <point x="8" y="559"/>
      <point x="45" y="588"/>
      <point x="134" y="588" type="curve" smooth="yes"/>
      <point x="161" y="588"/>
      <point x="172" y="587"/>
      <point x="184" y="586" type="curve"/>
    </contour>
  </outline>
</glyph>
<glyph name="guillemotleft" format="1">
  <advance width="502"/>
  <unicode hex="00AB"/>
  <outline>
    <contour>
      <point x="191" y="53" type="curve"/>
      <point x="219" y="68"/>
      <point x="236" y="85"/>
      <point x="255" y="114" type="curve"/>
      <point x="170" y="172"/>
      <point x="114" y="230"/>
      <point x="74" y="292" type="curve"/>
      <point x="8" y="265" type="line"/>
      <point x="52" y="182"/>
      <point x="112" y="115"/>
    </contour>
    <contour>
      <point x="254" y="399" type="curve"/>
      <point x="239" y="421"/>
      <point x="214" y="440"/>
      <point x="187" y="456" type="curve"/>
      <point x="133" y="369"/>
      <point x="73" y="309"/>
      <point x="8" y="265" type="curve"/>
      <point x="56" y="225" type="line"/>
      <point x="136" y="271"/>
      <point x="194" y="325"/>
    </contour>
    <contour>
      <point x="414" y="53" type="curve"/>
      <point x="443" y="68"/>
      <point x="460" y="85"/>
      <point x="479" y="114" type="curve"/>
      <point x="394" y="172"/>
      <point x="338" y="230"/>
      <point x="298" y="292" type="curve"/>
      <point x="232" y="265" type="line"/>
      <point x="276" y="182"/>
      <point x="336" y="115"/>
    </contour>
    <contour>
      <point x="478" y="399" type="curve"/>
      <point x="463" y="421"/>
      <point x="438" y="440"/>
      <point x="411" y="456" type="curve"/>
      <point x="357" y="369"/>
      <point x="297" y="309"/>
      <point x="232" y="265" type="curve"/>
      <point x="280" y="225" type="line"/>
      <point x="360" y="271"/>
      <point x="418" y="325"/>
    </contour>
  </outline>
</glyph>
<glyph name="plusminus" format="1">
  <advance width="396"/>
  <unicode hex="00B1"/>
  <outline>
    <contour>
      <point x="27" y="158" type="curve"/>
      <point x="23" y="134"/>
      <point x="21" y="114"/>
      <point x="21" y="88" type="curve"/>
      <point x="123" y="74"/>
      <point x="248" y="73"/>
      <point x="353" y="88" type="curve"/>
      <point x="358" y="110"/>
      <point x="361" y="133"/>
      <point x="361" y="156" type="curve"/>
      <point x="229" y="144"/>
      <point x="129" y="145"/>
    </contour>
    <component base="plus" xOffset="-2" yOffset="18"/>
  </outline>
</glyph>
<glyph name="cedilla" format="1">
  <advance width="261"/>
  <unicode hex="00B8"/>
  <outline>
    <contour>
      <point x="121" y="-226" type="curve" smooth="yes"/>
      <point x="192" y="-226"/>
      <point x="236" y="-186"/>
      <point x="236" y="-129" type="curve" smooth="yes"/>
      <point x="236" y="-81"/>
      <point x="203" y="-50"/>
      <point x="151" y="-50" type="curve" smooth="yes"/>
      <point x="126" y="-50"/>
      <point x="105" y="-58"/>
      <point x="80" y="-72" type="curve"/>
      <point x="109" y="-86" type="line"/>
      <point x="130" y="-53"/>
      <point x="139" y="-25"/>
      <point x="142" y="0" type="curve"/>
      <point x="91" y="11" type="line"/>
      <point x="89" y="-20"/>
      <point x="78" y="-53"/>
      <point x="61" y="-80" type="curve"/>
      <point x="66" y="-88"/>
      <point x="77" y="-99"/>
      <point x="86" y="-106" type="curve"/>
      <point x="98" y="-99"/>
      <point x="108" y="-96"/>
      <point x="122" y="-96" type="curve" smooth="yes"/>
      <point x="146" y="-96"/>
      <point x="163" y="-112"/>
      <point x="163" y="-135" type="curve" smooth="yes"/>
      <point x="163" y="-161"/>
      <point x="146" y="-176"/>
      <point x="119" y="-176" type="curve" smooth="yes"/>
      <point x="92" y="-176"/>
      <point x="71" y="-157"/>
      <point x="62" y="-128" type="curve"/>
      <point x="45" y="-134"/>
      <point x="32" y="-142"/>
      <point x="15" y="-153" type="curve"/>
      <point x="33" y="-202"/>
      <point x="71" y="-226"/>
    </contour>
    <contour>
      <point x="114" y="0" type="move" name="_bottom"/>
    </contour>
  </outline>
</glyph>
<glyph name="questiondown" format="1">
  <advance width="402"/>
  <unicode hex="00BF"/>
  <outline>
    <contour>
      <point x="219" y="190" type="line"/>
      <point x="96" y="165"/>
      <point x="28" y="83"/>
      <point x="28" y="-21" type="curve" smooth="yes"/>
      <point x="28" y="-134"/>
      <point x="106" y="-211"/>
      <point x="212" y="-211" type="curve" smooth="yes"/>
      <point x="341" y="-211"/>
      <point x="400" y="-127"/>
      <point x="408" y="6" type="curve"/>
      <point x="380" y="17"/>
      <point x="347" y="23"/>
      <point x="311" y="23" type="curve"/>
      <point x="311" y="-83"/>
      <point x="276" y="-146"/>
      <point x="218" y="-146" type="curve" smooth="yes"/>
      <point x="166" y="-146"/>
      <point x="137" y="-93"/>
      <point x="137" y="-19" type="curve" smooth="yes"/>
      <point x="137" y="69"/>
      <point x="183" y="135"/>
      <point x="284" y="157" type="curve"/>
    </contour>
    <contour>
      <point x="284" y="157" type="line"/>
      <point x="282" y="216"/>
      <point x="274" y="283"/>
      <point x="267" y="338" type="curve"/>
      <point x="241" y="339"/>
      <point x="212" y="337"/>
      <point x="192" y="333" type="curve"/>
      <point x="191" y="261"/>
      <point x="191" y="203"/>
      <point x="190" y="146" type="curve"/>
    </contour>
    <contour>
      <point x="169" y="554" type="curve"/>
      <point x="172" y="519"/>
      <point x="173" y="492"/>
      <point x="176" y="455" type="curve"/>
      <point x="210" y="454"/>
      <point x="234" y="453"/>
      <point x="273" y="455" type="curve"/>
      <point x="274" y="485"/>
      <point x="274" y="517"/>
      <point x="271" y="553" type="curve"/>
      <point x="258" y="557"/>
      <point x="240" y="561"/>
      <point x="220" y="560" type="curve" smooth="yes"/>
      <point x="203" y="560"/>
      <point x="188" y="559"/>
    </contour>
  </outline>
</glyph>
<glyph name="Eth" format="1">
  <advance width="589"/>
  <unicode hex="00D0"/>
  <outline>
    <contour>
      <point x="171" y="-10" type="curve"/>
      <point x="167" y="64"/>
      <point x="165" y="129"/>
      <point x="165" y="220" type="curve" smooth="yes"/>
      <point x="165" y="374"/>
      <point x="166" y="482"/>
      <point x="179" y="666" type="curve"/>
      <point x="158" y="672"/>
      <point x="91" y="676"/>
      <point x="62" y="671" type="curve"/>
      <point x="60" y="620"/>
      <point x="59" y="558"/>
      <point x="59" y="508" type="curve" smooth="yes"/>
      <point x="59" y="349"/>
      <point x="66" y="193"/>
      <point x="79" y="-1" type="curve"/>
      <point x="98" y="-5"/>
      <point x="152" y="-10"/>
    </contour>
    <contour>
      <point x="553" y="443" type="curve" smooth="yes"/>
      <point x="553" y="611"/>
      <point x="463" y="717"/>
      <point x="253" y="717" type="curve" smooth="yes"/>
      <point x="188" y="717"/>
      <point x="125" y="700"/>
      <point x="62" y="671" type="curve"/>
      <point x="65" y="654"/>
      <point x="85" y="612"/>
      <point x="96" y="594" type="curve"/>
      <point x="142" y="623"/>
      <point x="195" y="645"/>
      <point x="248" y="645" type="curve" smooth="yes"/>
      <point x="380" y="645"/>
      <point x="442" y="566"/>
      <point x="442" y="444" type="curve" smooth="yes"/>
      <point x="442" y="267"/>
      <point x="344" y="121"/>
      <point x="117" y="52" type="curve"/>
      <point x="171" y="-10" type="line"/>
      <point x="404" y="62"/>
      <point x="553" y="249"/>
    </contour>
    <contour>
      <point x="-22" y="407" type="curve"/>
      <point x="-25" y="391"/>
      <point x="-25" y="365"/>
      <point x="-24" y="344" type="curve"/>
      <point x="77" y="334"/>
      <point x="185" y="334"/>
      <point x="299" y="354" type="curve"/>
      <point x="301" y="375"/>
      <point x="302" y="398"/>
      <point x="300" y="416" type="curve"/>
      <point x="186" y="399"/>
      <point x="93" y="398"/>
    </contour>
  </outline>
</glyph>
<glyph name="Oslash" format="1">
  <advance width="600"/>
  <unicode hex="00D8"/>
  <outline>
    <contour>
      <point x="47" y="-39" type="curve"/>
      <point x="68" y="-59"/>
      <point x="87" y="-69"/>
      <point x="118" y="-79" type="curve"/>
      <point x="276" y="201"/>
      <point x="411" y="452"/>
      <point x="546" y="750" type="curve"/>
      <point x="525" y="770"/>
      <point x="500" y="785"/>
      <point x="477" y="792" type="curve"/>
      <point x="325" y="464"/>
      <point x="198" y="205"/>
    </contour>
    <contour>
      <point x="563" y="403" type="curve" smooth="yes"/>
      <point x="563" y="617"/>
      <point x="480" y="733"/>
      <point x="330" y="733" type="curve" smooth="yes"/>
      <point x="153" y="733"/>
      <point x="36" y="562"/>
      <point x="36" y="335" type="curve" smooth="yes"/>
      <point x="36" y="138"/>
      <point x="119" y="-20"/>
      <point x="270" y="-20" type="curve" smooth="yes"/>
      <point x="491" y="-20"/>
      <point x="563" y="236"/>
    </contour>
    <contour>
      <point x="286" y="56" type="curve" smooth="yes"/>
      <point x="184" y="56"/>
      <point x="147" y="217"/>
      <point x="147" y="351" type="curve" smooth="yes"/>
      <point x="147" y="533"/>
      <point x="215" y="656"/>
      <point x="311" y="656" type="curve" smooth="yes"/>
      <point x="403" y="656"/>
      <point x="450" y="578"/>
      <point x="450" y="377" type="curve" smooth="yes"/>
      <point x="450" y="227"/>
      <point x="408" y="56"/>
    </contour>
  </outline>
</glyph>
<glyph name="thorn" format="1">
  <advance width="474"/>
  <unicode hex="00FE"/>
  <outline>
    <contour>
      <point x="128" y="127" type="curve"/>
      <point x="79" y="52" type="line"/>
      <point x="107" y="30"/>
      <point x="142" y="10"/>
      <point x="205" y="10" type="curve" smooth="yes"/>
      <point x="331" y="10"/>
      <point x="441" y="150"/>
      <point x="441" y="363" type="curve" smooth="yes"/>
      <point x="441" y="483"/>
      <point x="390" y="560"/>
      <point x="309" y="560" type="curve" smooth="yes"/>
      <point x="212" y="560"/>
      <point x="145" y="465"/>
      <point x="117" y="334" type="curve"/>
      <point x="147" y="310" type="line"/>
      <point x="172" y="431"/>
      <point x="218" y="473"/>
      <point x="265" y="473" type="curve" smooth="yes"/>
      <point x="306" y="473"/>
      <point x="333" y="432"/>
      <point x="333" y="354" type="curve" smooth="yes"/>
      <point x="333" y="183"/>
      <point x="269" y="75"/>
      <point x="205" y="75" type="curve" smooth="yes"/>
      <point x="172" y="75"/>
      <point x="148" y="95"/>
    </contour>
    <contour>
      <point x="91" y="-224" type="curve"/>
      <point x="122" y="-224"/>
      <point x="159" y="-217"/>
      <point x="181" y="-210" type="curve"/>
      <point x="150" y="42"/>
      <point x="139" y="511"/>
      <point x="189" y="740" type="curve"/>
      <point x="173" y="746"/>
      <point x="159" y="748"/>
      <point x="140" y="748" type="curve" smooth="yes"/>
      <point x="111" y="748"/>
      <point x="86" y="739"/>
      <point x="68" y="726" type="curve"/>
      <point x="33" y="436"/>
      <point x="62" y="25"/>
    </contour>
  </outline>
</glyph>
<glyph name="lslash" format="1">
  <advance width="228"/>
  <unicode hex="0142"/>
  <outline>
    <contour>
      <point x="57" y="724" type="curve"/>
      <point x="46" y="458"/>
      <point x="54" y="201"/>
      <point x="73" y="-61" type="curve"/>
      <point x="102" y="-61"/>
      <point x="148" y="-55"/>
      <point x="166" y="-50" type="curve"/>
      <point x="154" y="196"/>
      <point x="156" y="527"/>
      <point x="177" y="735" type="curve"/>
      <point x="159" y="740"/>
      <point x="142" y="742"/>
      <point x="124" y="742" type="curve" smooth="yes"/>
      <point x="97" y="742"/>
      <point x="72" y="733"/>
    </contour>
    <contour>
      <point x="-22" y="166" type="curve"/>
      <point x="91" y="243"/>
      <point x="193" y="317"/>
      <point x="294" y="401" type="curve"/>
      <point x="281" y="429"/>
      <point x="266" y="452"/>
      <point x="247" y="468" type="curve"/>
      <point x="144" y="380"/>
      <point x="45" y="307"/>
      <point x="-67" y="231" type="curve"/>
      <point x="-55" y="203"/>
      <point x="-43" y="185"/>
    </contour>
  </outline>
</glyph>
<glyph name="OE" format="1">
  <advance width="903"/>
  <unicode hex="0152"/>
  <outline>
    <contour>
      <point x="541" y="397" type="curve" smooth="yes"/>
      <point x="540" y="597"/>
      <point x="465" y="724"/>
      <point x="319" y="724" type="curve" smooth="yes"/>
      <point x="143" y="724"/>
      <point x="41" y="554"/>
      <point x="41" y="326" type="curve" smooth="yes"/>
      <point x="41" y="130"/>
      <point x="127" y="-28"/>
      <point x="282" y="-28" type="curve" smooth="yes"/>
      <point x="481" y="-28"/>
      <point x="542" y="207"/>
    </contour>
    <contour>
      <point x="433" y="368" type="curve" smooth="yes"/>
      <point x="434" y="196"/>
      <point x="399" y="47"/>
      <point x="298" y="47" type="curve" smooth="yes"/>
      <point x="191" y="47"/>
      <point x="153" y="208"/>
      <point x="153" y="342" type="curve" smooth="yes"/>
      <point x="153" y="525"/>
      <point x="203" y="647"/>
      <point x="300" y="647" type="curve" smooth="yes"/>
      <point x="388" y="647"/>
      <point x="432" y="555"/>
    </contour>
    <contour>
      <point x="866" y="-5" type="curve"/>
      <point x="867" y="19"/>
      <point x="865" y="59"/>
      <point x="858" y="81" type="curve"/>
      <point x="773" y="62"/>
      <point x="666" y="51"/>
      <point x="579" y="49" type="curve"/>
      <point x="564" y="158"/>
      <point x="554" y="259"/>
      <point x="549" y="343" type="curve" smooth="yes"/>
      <point x="541" y="481"/>
      <point x="541" y="589"/>
      <point x="546" y="681" type="curve"/>
      <point x="423" y="687" type="line"/>
      <point x="426" y="493"/>
      <point x="454" y="205"/>
      <point x="491" y="-34" type="curve"/>
      <point x="611" y="-32"/>
      <point x="763" y="-21"/>
    </contour>
    <contour>
      <point x="797" y="342" type="curve"/>
      <point x="798" y="375"/>
      <point x="795" y="401"/>
      <point x="789" y="427" type="curve"/>
      <point x="689" y="420"/>
      <point x="610" y="405"/>
      <point x="520" y="386" type="curve"/>
      <point x="524" y="311" type="line"/>
      <point x="616" y="327"/>
      <point x="686" y="335"/>
    </contour>
    <contour>
      <point x="834" y="645" type="curve"/>
      <point x="839" y="670"/>
      <point x="843" y="700"/>
      <point x="842" y="733" type="curve"/>
      <point x="679" y="731"/>
      <point x="561" y="712"/>
      <point x="423" y="687" type="curve"/>
      <point x="447" y="610" type="line"/>
      <point x="568" y="632"/>
      <point x="693" y="644"/>
    </contour>
  </outline>
</glyph>
<glyph name="Uogonek" format="1">
  <advance width="561"/>
  <unicode hex="0172"/>
  <outline>
    <contour>
      <point x="345" y="-61" type="curve" smooth="yes"/>
      <point x="290" y="-90"/>
      <point x="261" y="-135"/>
      <point x="261" y="-174" type="curve" smooth="yes"/>
      <point x="261" y="-202"/>
      <point x="274" y="-218"/>
      <point x="293" y="-218" type="curve" smooth="yes"/>
      <point x="316" y="-218"/>
      <point x="334" y="-206"/>
      <point x="351" y="-176" type="curve"/>
      <point x="364" y="-186"/>
      <point x="373" y="-201"/>
      <point x="380" y="-219" type="curve"/>
      <point x="355" y="-255"/>
      <point x="320" y="-275"/>
      <point x="275" y="-275" type="curve" smooth="yes"/>
      <point x="223" y="-275"/>
      <point x="187" y="-246"/>
      <point x="187" y="-194" type="curve" smooth="yes"/>
      <point x="187" y="-145"/>
      <point x="217" y="-101"/>
      <point x="281" y="-58" type="curve"/>
      <point x="294" y="-75" type="line" smooth="yes"/>
      <point x="300" y="-82"/>
      <point x="264" y="-80"/>
      <point x="247" y="-80" type="curve" smooth="yes"/>
      <point x="115" y="-80"/>
      <point x="49" y="34"/>
      <point x="49" y="270" type="curve" smooth="yes"/>
      <point x="49" y="414"/>
      <point x="78" y="564"/>
      <point x="101" y="627" type="curve"/>
      <point x="115" y="631"/>
      <point x="141" y="634"/>
      <point x="160" y="634" type="curve" smooth="yes"/>
      <point x="181" y="634"/>
      <point x="196" y="631"/>
      <point x="205" y="627" type="curve"/>
      <point x="181" y="519"/>
      <point x="164" y="404"/>
      <point x="164" y="297" type="curve" smooth="yes"/>
      <point x="164" y="84"/>
      <point x="198" y="-2"/>
      <point x="265" y="-2" type="curve" smooth="yes"/>
      <point x="355" y="-2"/>
      <point x="396" y="139"/>
      <point x="396" y="327" type="curve" smooth="yes"/>
      <point x="396" y="471"/>
      <point x="376" y="586"/>
      <point x="350" y="687" type="curve"/>
      <point x="383" y="699"/>
      <point x="427" y="706"/>
      <point x="464" y="707" type="curve"/>
      <point x="487" y="615"/>
      <point x="509" y="501"/>
      <point x="509" y="380" type="curve" smooth="yes"/>
      <point x="509" y="126"/>
      <point x="454" y="-5"/>
    </contour>
  </outline>
</glyph>
<glyph name="circumflex" format="1">
  <advance width="260"/>
  <unicode hex="02C6"/>
  <outline>
    <contour>
      <point x="260" y="616" type="curve"/>
      <point x="248" y="602"/>
      <point x="234" y="588"/>
      <point x="210" y="579" type="curve"/>
      <point x="156" y="620"/>
      <point x="135" y="646"/>
      <point x="103" y="698" type="curve"/>
      <point x="149" y="700" type="line"/>
      <point x="123" y="652"/>
      <point x="97" y="620"/>
      <point x="43" y="577" type="curve"/>
      <point x="18" y="587"/>
      <point x="2" y="602"/>
      <point x="-6" y="613" type="curve"/>
      <point x="46" y="660"/>
      <point x="70" y="692"/>
      <point x="91" y="739" type="curve"/>
      <point x="101" y="741"/>
      <point x="114" y="742"/>
      <point x="124" y="742" type="curve" smooth="yes"/>
      <point x="135" y="742"/>
      <point x="149" y="741"/>
      <point x="161" y="739" type="curve"/>
      <point x="183" y="690"/>
      <point x="214" y="657"/>
    </contour>
    <contour>
      <point x="131" y="560" type="move" name="_top"/>
    </contour>
  </outline>
</glyph>
<glyph name="bn_bisarga" format="1">
  <advance width="433"/>
  <unicode hex="0983"/>
  <outline>
    <contour>
      <point x="300" y="326"/>
      <point x="372" y="395"/>
      <point x="372" y="480" type="curve" smooth="yes"/>
      <point x="373" y="559"/>
      <point x="313" y="616"/>
      <point x="231" y="616" type="curve" smooth="yes"/>
      <point x="143" y="616"/>
      <point x="75" y="547"/>
      <point x="74" y="461" type="curve" smooth="yes"/>
      <point x="73" y="383"/>
      <point x="134" y="326"/>
      <point x="213" y="326" type="curve" smooth="yes"/>
    </contour>
    <contour>
      <point x="299" y="-5"/>
      <point x="366" y="59"/>
      <point x="366" y="141" type="curve" smooth="yes"/>
      <point x="366" y="217"/>
      <point x="306" y="275"/>
      <point x="227" y="275" type="curve" smooth="yes"/>
      <point x="144" y="275"/>
      <point x="78" y="210"/>
      <point x="78" y="127" type="curve" smooth="yes"/>
      <point x="78" y="50"/>
      <point x="138" y="-5"/>
      <point x="215" y="-5" type="curve" smooth="yes"/>
    </contour>
    <contour>
      <point x="183" y="59"/>
      <point x="144" y="96"/>
      <point x="144" y="146" type="curve" smooth="yes"/>
      <point x="144" y="185"/>
      <point x="169" y="210"/>
      <point x="211" y="210" type="curve" smooth="yes"/>
      <point x="263" y="210"/>
      <point x="300" y="171"/>
      <point x="300" y="121" type="curve" smooth="yes"/>
      <point x="300" y="82"/>
      <point x="275" y="59"/>
      <point x="234" y="59" type="curve" smooth="yes"/>
    </contour>
    <contour>
      <point x="181" y="390"/>
      <point x="140" y="428"/>
      <point x="140" y="483" type="curve" smooth="yes"/>
      <point x="140" y="525"/>
      <point x="166" y="552"/>
      <point x="210" y="552" type="curve" smooth="yes"/>
      <point x="264" y="552"/>
      <point x="306" y="515"/>
      <point x="306" y="461" type="curve" smooth="yes"/>
      <point x="306" y="418"/>
      <point x="278" y="390"/>
      <point x="233" y="390" type="curve" smooth="yes"/>
    </contour>
  </outline>
</glyph>
<glyph name="bn_i" format="1">
  <advance width="471"/>
  <unicode hex="0987"/>
  <outline>
    <contour>
      <point x="471" y="601" type="line"/>
      <point x="455" y="701"/>
      <point x="404" y="782"/>
      <point x="314" y="782" type="curve" smooth="yes"/>
      <point x="252" y="782"/>
      <point x="181" y="755"/>
      <point x="133" y="755" type="curve" smooth="yes"/>
      <point x="80" y="755"/>
      <point x="50" y="793"/>
      <point x="23" y="837" type="curve"/>
      <point x="8" y="828"/>
      <point x="-13" y="810"/>
      <point x="-28" y="788" type="curve"/>
      <point x="5" y="728"/>
      <point x="52" y="680"/>
      <point x="127" y="680" type="curve" smooth="yes"/>
      <point x="188" y="680"/>
      <point x="251" y="708"/>
      <point x="315" y="708" type="curve" smooth="yes"/>
      <point x="384" y="708"/>
      <point x="411" y="649"/>
      <point x="423" y="586" type="curve"/>
    </contour>
    <component base="bn_ha"/>
    <contour>
      <point x="204" y="804" type="move" name="chandrabindu"/>
    </contour>
  </outline>
</glyph>
<glyph name="bn_ga" format="1">
  <advance width="495"/>
  <unicode hex="0997"/>
  <outline>
    <contour>
      <point x="228" y="199"/>
      <point x="291" y="279"/>
      <point x="291" y="350" type="curve" smooth="yes"/>
      <point x="291" y="415"/>
      <point x="244" y="468"/>
      <point x="184" y="468" type="curve" smooth="yes"/>
      <point x="143" y="468"/>
      <point x="99" y="448"/>
      <point x="63" y="419" type="curve"/>
      <point x="118" y="413" type="line"/>
      <point x="109" y="426"/>
      <point x="102" y="443"/>
      <point x="102" y="460" type="curve" smooth="yes"/>
      <point x="102" y="513"/>
      <point x="142" y="539"/>
      <point x="197" y="539" type="curve" smooth="yes"/>
      <point x="267" y="539"/>
      <point x="351" y="472"/>
      <point x="351" y="346" type="curve" smooth="yes"/>
      <point x="351" y="322"/>
      <point x="349" y="285"/>
      <point x="343" y="231" type="curve"/>
      <point x="387" y="286" type="line"/>
      <point x="391" y="480"/>
      <point x="318" y="628"/>
      <point x="193" y="628" type="curve" smooth="yes"/>
      <point x="94" y="628"/>
      <point x="32" y="550"/>
      <point x="32" y="456" type="curve" smooth="yes"/>
      <point x="32" y="436"/>
      <point x="35" y="416"/>
      <point x="39" y="398" type="curve"/>
      <point x="73" y="350" type="line"/>
      <point x="116" y="381"/>
      <point x="162" y="399"/>
      <point x="197" y="399" type="curve" smooth="yes"/>
      <point x="221" y="399"/>
      <point x="234" y="388"/>
      <point x="234" y="366" type="curve" smooth="yes"/>
      <point x="234" y="329"/>
      <point x="169" y="267"/>
      <point x="97" y="209" type="curve"/>
      <point x="114" y="181"/>
      <point x="139" y="155"/>
      <point x="170" y="136" type="curve"/>
    </contour>
    <contour>
      <point x="412" y="91"/>
      <point x="432" y="253"/>
      <point x="432" y="463" type="curve" smooth="yes"/>
      <point x="432" y="485"/>
      <point x="437" y="501"/>
      <point x="456" y="510" type="curve" smooth="yes"/>
      <point x="466" y="514"/>
      <point x="478" y="519"/>
      <point x="495" y="524" type="curve"/>
      <point x="499" y="533"/>
      <point x="502" y="550"/>
      <point x="502" y="564" type="curve" smooth="yes"/>
      <point x="502" y="580"/>
      <point x="500" y="594"/>
      <point x="495" y="601" type="curve"/>
      <point x="459" y="593"/>
      <point x="428" y="584"/>
      <point x="402" y="571" type="curve" smooth="yes"/>
      <point x="377" y="559"/>
      <point x="362" y="534"/>
      <point x="362" y="507" type="curve" smooth="yes"/>
      <point x="362" y="490"/>
      <point x="363" y="474"/>
      <point x="365" y="450" type="curve"/>
      <point x="352" y="437" type="line"/>
      <point x="352" y="241"/>
      <point x="332" y="116"/>
      <point x="292" y="-13" type="curve"/>
      <point x="315" y="-20"/>
      <point x="352" y="-25"/>
      <point x="384" y="-25" type="curve"/>
    </contour>
    <contour>
      <point x="337" y="-3" type="move" name="blwm"/>
    </contour>
    <contour>
      <point x="158" y="0" type="move" name="nukt"/>
    </contour>
    <contour>
      <point x="390" y="690" type="move" name="reph"/>
    </contour>
    <contour>
      <point x="390" y="690" type="move" name="chandrabindu"/>
    </contour>
    <contour>
      <point x="212" y="-3" type="move" name="haln"/>
    </contour>
  </outline>
</glyph>
<glyph name="bn_ttha" format="1">
  <advance width="466"/>
  <unicode hex="09A0"/>
  <outline>
    <contour>
      <point x="346" y="-22"/>
      <point x="431" y="87"/>
      <point x="431" y="234" type="curve" smooth="yes"/>
      <point x="431" y="381"/>
      <point x="348" y="515"/>
      <point x="273" y="615" type="curve"/>
      <point x="216" y="618" type="line"/>
      <point x="291" y="516"/>
      <point x="355" y="406"/>
      <point x="355" y="277" type="curve" smooth="yes"/>
      <point x="355" y="160"/>
      <point x="294" y="56"/>
      <point x="189" y="56" type="curve" smooth="yes"/>
      <point x="108" y="56"/>
      <point x="63" y="109"/>
      <point x="63" y="201" type="curve"/>
      <point x="50" y="141" type="line"/>
      <point x="178" y="183"/>
      <point x="281" y="286"/>
      <point x="281" y="445" type="curve" smooth="yes"/>
      <point x="281" y="503"/>
      <point x="266" y="555"/>
      <point x="234" y="607" type="curve"/>
      <point x="193" y="599" type="line"/>
      <point x="212" y="572"/>
      <point x="225" y="530"/>
      <point x="225" y="486" type="curve" smooth="yes"/>
      <point x="225" y="348"/>
      <point x="112" y="261"/>
      <point x="25" y="227" type="curve"/>
      <point x="24" y="215"/>
      <point x="23" y="203"/>
      <point x="23" y="192" type="curve" smooth="yes"/>
      <point x="23" y="66"/>
      <point x="88" y="-22"/>
      <point x="213" y="-22" type="curve" smooth="yes"/>
    </contour>
    <contour>
      <point x="64" y="538"/>
      <point x="147" y="551"/>
      <point x="233" y="551" type="curve" smooth="yes"/>
      <point x="319" y="551"/>
      <point x="401" y="538"/>
      <point x="466" y="524" type="curve"/>
      <point x="470" y="536"/>
      <point x="473" y="552"/>
      <point x="473" y="568" type="curve" smooth="yes"/>
      <point x="473" y="581"/>
      <point x="471" y="593"/>
      <point x="466" y="601" type="curve"/>
      <point x="402" y="618"/>
      <point x="320" y="632"/>
      <point x="233" y="632" type="curve" smooth="yes"/>
      <point x="145" y="632"/>
      <point x="63" y="618"/>
      <point x="0" y="601" type="curve"/>
      <point x="-4" y="593"/>
      <point x="-7" y="581"/>
      <point x="-7" y="568" type="curve" smooth="yes"/>
      <point x="-7" y="552"/>
      <point x="-4" y="536"/>
      <point x="0" y="524" type="curve"/>
    </contour>
    <contour>
      <point x="284" y="602" type="line"/>
      <point x="246" y="658"/>
      <point x="219" y="711"/>
      <point x="219" y="769" type="curve" smooth="yes"/>
      <point x="219" y="815"/>
      <point x="240" y="868"/>
      <point x="266" y="895" type="curve"/>
      <point x="249" y="912"/>
      <point x="229" y="924"/>
      <point x="206" y="934" type="curve"/>
      <point x="172" y="891"/>
      <point x="152" y="836"/>
      <point x="152" y="782" type="curve" smooth="yes"/>
      <point x="152" y="713"/>
      <point x="183" y="650"/>
      <point x="222" y="596" type="curve"/>
    </contour>
    <contour>
      <point x="212" y="-3" type="move" name="blwm"/>
    </contour>
    <contour>
      <point x="192" y="-120" type="move" name="nukt"/>
    </contour>
    <contour>
      <point x="254" y="681" type="move" name="reph"/>
    </contour>
    <contour>
      <point x="404" y="690" type="move" name="chandrabindu"/>
    </contour>
    <contour>
      <point x="80" y="0" type="move" name="haln"/>
    </contour>
  </outline>
</glyph>
<glyph name="bn_dda" format="1">
  <advance width="580"/>
  <unicode hex="09A1"/>
  <note>
    uni09A1
  </note>
  <outline>
    <contour>
      <point x="489" y="-24"/>
      <point x="559" y="69"/>
      <point x="559" y="208" type="curve" smooth="yes"/>
      <point x="559" y="280"/>
      <point x="541" y="348"/>
      <point x="516" y="400" type="curve"/>
      <point x="496" y="410"/>
      <point x="471" y="420"/>
      <point x="451" y="424" type="curve"/>
      <point x="408" y="362"/>
      <point x="367" y="310"/>
      <point x="336" y="310" type="curve" smooth="yes"/>
      <point x="311" y="310"/>
      <point x="294" y="328"/>
      <point x="294" y="362" type="curve" smooth="yes"/>
      <point x="294" y="411"/>
      <point x="322" y="503"/>
      <point x="346" y="580" type="curve"/>
      <point x="259" y="593" type="line"/>
      <point x="241" y="525"/>
      <point x="222" y="443"/>
      <point x="222" y="390" type="curve" smooth="yes"/>
      <point x="222" y="316"/>
      <point x="272" y="233"/>
      <point x="353" y="233" type="curve" smooth="yes"/>
      <point x="422" y="233"/>
      <point x="469" y="296"/>
      <point x="511" y="354" type="curve"/>
      <point x="470" y="370" type="line"/>
      <point x="485" y="333"/>
      <point x="495" y="284"/>
      <point x="495" y="230" type="curve" smooth="yes"/>
      <point x="495" y="127"/>
      <point x="451" y="68"/>
      <point x="368" y="68" type="curve" smooth="yes"/>
      <point x="240" y="68"/>
      <point x="149" y="190"/>
      <point x="74" y="456" type="curve"/>
      <point x="51" y="448"/>
      <point x="30" y="437"/>
      <point x="10" y="424" type="curve"/>
      <point x="65" y="212"/>
      <point x="156" y="-24"/>
      <point x="363" y="-24" type="curve" smooth="yes"/>
    </contour>
    <contour>
      <point x="73" y="541"/>
      <point x="167" y="555"/>
      <point x="291" y="555" type="curve" smooth="yes"/>
      <point x="410" y="555"/>
      <point x="506" y="542"/>
      <point x="580" y="524" type="curve"/>
      <point x="585" y="536"/>
      <point x="587" y="554"/>
      <point x="587" y="568" type="curve" smooth="yes"/>
      <point x="587" y="580"/>
      <point x="585" y="593"/>
      <point x="580" y="601" type="curve"/>
      <point x="509" y="620"/>
      <point x="413" y="636"/>
      <point x="291" y="636" type="curve" smooth="yes"/>
      <point x="166" y="636"/>
      <point x="71" y="620"/>
      <point x="0" y="601" type="curve"/>
      <point x="-5" y="592"/>
      <point x="-7" y="579"/>
      <point x="-7" y="567" type="curve" smooth="yes"/>
      <point x="-7" y="551"/>
      <point x="-4" y="535"/>
      <point x="0" y="524" type="curve"/>
    </contour>
    <contour>
      <point x="348" y="-3" type="move" name="blwm"/>
    </contour>
    <contour>
      <point x="316" y="-120" type="move" name="nukt"/>
    </contour>
    <contour>
      <point x="319" y="690" type="move" name="reph"/>
    </contour>
    <contour>
      <point x="319" y="690" type="move" name="chandrabindu"/>
    </contour>
    <contour>
      <point x="225" y="0" type="move" name="haln"/>
    </contour>
  </outline>
</glyph>
<glyph name="bn_ddha" format="1">
  <advance width="486"/>
  <unicode hex="09A2"/>
  <outline>
    <contour>
      <point x="325" y="-24"/>
      <point x="453" y="117"/>
      <point x="453" y="248" type="curve" smooth="yes"/>
      <point x="453" y="334"/>
      <point x="398" y="382"/>
      <point x="331" y="382" type="curve" smooth="yes"/>
      <point x="296" y="382"/>
      <point x="269" y="371"/>
      <point x="250" y="354" type="curve"/>
      <point x="240" y="338"/>
      <point x="232" y="313"/>
      <point x="232" y="290" type="curve" smooth="yes"/>
      <point x="232" y="279"/>
      <point x="235" y="268"/>
      <point x="241" y="261" type="curve"/>
      <point x="254" y="277"/>
      <point x="278" y="297"/>
      <point x="308" y="297" type="curve" smooth="yes"/>
      <point x="337" y="297"/>
      <point x="358" y="277"/>
      <point x="358" y="235" type="curve" smooth="yes"/>
      <point x="358" y="150"/>
      <point x="269" y="38"/>
      <point x="208" y="38" type="curve" smooth="yes"/>
      <point x="178" y="39"/>
      <point x="156" y="63"/>
      <point x="156" y="109" type="curve" smooth="yes"/>
      <point x="156" y="275"/>
      <point x="173" y="465"/>
      <point x="198" y="591" type="curve"/>
      <point x="105" y="605" type="line"/>
      <point x="88" y="474"/>
      <point x="74" y="317"/>
      <point x="74" y="137" type="curve" smooth="yes"/>
      <point x="74" y="40"/>
      <point x="140" y="-24"/>
      <point x="218" y="-24" type="curve" smooth="yes"/>
    </contour>
    <contour>
      <point x="47" y="537"/>
      <point x="134" y="551"/>
      <point x="239" y="551" type="curve" smooth="yes"/>
      <point x="333" y="551"/>
      <point x="421" y="538"/>
      <point x="486" y="524" type="curve"/>
      <point x="490" y="534"/>
      <point x="492" y="549"/>
      <point x="492" y="564" type="curve" smooth="yes"/>
      <point x="492" y="579"/>
      <point x="491" y="592"/>
      <point x="486" y="601" type="curve"/>
      <point x="422" y="619"/>
      <point x="331" y="632"/>
      <point x="236" y="632" type="curve" smooth="yes"/>
      <point x="132" y="632"/>
      <point x="44" y="618"/>
      <point x="0" y="601" type="curve"/>
      <point x="-3" y="591"/>
      <point x="-5" y="576"/>
      <point x="-5" y="562" type="curve" smooth="yes"/>
      <point x="-5" y="548"/>
      <point x="-3" y="536"/>
      <point x="0" y="524" type="curve"/>
    </contour>
    <contour>
      <point x="211" y="-3" type="move" name="blwm"/>
    </contour>
    <contour>
      <point x="188" y="-120" type="move" name="nukt"/>
    </contour>
    <contour>
      <point x="224" y="690" type="move" name="reph"/>
    </contour>
    <contour>
      <point x="224" y="690" type="move" name="chandrabindu"/>
    </contour>
    <contour>
      <point x="105" y="0" type="move" name="haln"/>
    </contour>
  </outline>
</glyph>
<glyph name="bn_okaar" format="1">
  <advance width="1198"/>
  <unicode hex="09CB"/>
  <outline>
    <contour>
      <point x="414" y="112"/>
      <point x="429" y="129"/>
      <point x="429" y="155" type="curve" smooth="yes"/>
      <point x="429" y="181"/>
      <point x="414" y="197"/>
      <point x="390" y="197" type="curve" smooth="yes"/>
      <point x="365" y="197"/>
      <point x="348" y="180"/>
      <point x="348" y="155" type="curve" smooth="yes"/>
      <point x="348" y="130"/>
      <point x="365" y="112"/>
      <point x="390" y="112" type="curve" smooth="yes"/>
    </contour>
    <contour>
      <point x="511" y="15"/>
      <point x="528" y="31"/>
      <point x="528" y="55" type="curve" smooth="yes"/>
      <point x="528" y="81"/>
      <point x="511" y="98"/>
      <point x="486" y="98" type="curve" smooth="yes"/>
      <point x="462" y="98"/>
      <point x="446" y="81"/>
      <point x="446" y="55" type="curve" smooth="yes"/>
      <point x="446" y="31"/>
      <point x="462" y="15"/>
      <point x="486" y="15" type="curve" smooth="yes"/>
    </contour>
    <contour>
      <point x="380" y="246"/>
      <point x="394" y="262"/>
      <point x="394" y="288" type="curve" smooth="yes"/>
      <point x="394" y="314"/>
      <point x="380" y="329"/>
      <point x="354" y="329" type="curve" smooth="yes"/>
      <point x="328" y="329"/>
      <point x="311" y="313"/>
      <point x="311" y="288" type="curve" smooth="yes"/>
      <point x="311" y="262"/>
      <point x="328" y="246"/>
      <point x="354" y="246" type="curve" smooth="yes"/>
    </contour>
    <contour>
      <point x="649" y="-22"/>
      <point x="664" y="-6"/>
      <point x="664" y="19" type="curve" smooth="yes"/>
      <point x="664" y="45"/>
      <point x="649" y="61"/>
      <point x="623" y="61" type="curve" smooth="yes"/>
      <point x="597" y="61"/>
      <point x="583" y="45"/>
      <point x="583" y="19" type="curve" smooth="yes"/>
      <point x="583" y="-6"/>
      <point x="597" y="-22"/>
      <point x="623" y="-22" type="curve" smooth="yes"/>
    </contour>
    <contour>
      <point x="783" y="15"/>
      <point x="800" y="31"/>
      <point x="800" y="55" type="curve" smooth="yes"/>
      <point x="800" y="81"/>
      <point x="783" y="98"/>
      <point x="758" y="98" type="curve" smooth="yes"/>
      <point x="733" y="98"/>
      <point x="717" y="81"/>
      <point x="717" y="55" type="curve" smooth="yes"/>
      <point x="717" y="31"/>
      <point x="733" y="15"/>
      <point x="758" y="15" type="curve" smooth="yes"/>
    </contour>
    <contour>
      <point x="511" y="478"/>
      <point x="528" y="494"/>
      <point x="528" y="519" type="curve" smooth="yes"/>
      <point x="528" y="544"/>
      <point x="511" y="561"/>
      <point x="486" y="561" type="curve" smooth="yes"/>
      <point x="462" y="561"/>
      <point x="446" y="544"/>
      <point x="446" y="519" type="curve" smooth="yes"/>
      <point x="446" y="494"/>
      <point x="462" y="478"/>
      <point x="486" y="478" type="curve" smooth="yes"/>
    </contour>
    <contour>
      <point x="883" y="112"/>
      <point x="897" y="129"/>
      <point x="897" y="155" type="curve" smooth="yes"/>
      <point x="897" y="181"/>
      <point x="883" y="197"/>
      <point x="858" y="197" type="curve" smooth="yes"/>
      <point x="834" y="197"/>
      <point x="816" y="179"/>
      <point x="816" y="155" type="curve" smooth="yes"/>
      <point x="816" y="130"/>
      <point x="834" y="112"/>
      <point x="858" y="112" type="curve" smooth="yes"/>
    </contour>
    <contour>
      <point x="649" y="515"/>
      <point x="664" y="530"/>
      <point x="664" y="556" type="curve" smooth="yes"/>
      <point x="664" y="583"/>
      <point x="649" y="599"/>
      <point x="623" y="599" type="curve" smooth="yes"/>
      <point x="597" y="599"/>
      <point x="583" y="583"/>
      <point x="583" y="556" type="curve" smooth="yes"/>
      <point x="583" y="530"/>
      <point x="597" y="515"/>
      <point x="623" y="515" type="curve" smooth="yes"/>
    </contour>
    <contour>
      <point x="919" y="246"/>
      <point x="934" y="262"/>
      <point x="934" y="288" type="curve" smooth="yes"/>
      <point x="934" y="314"/>
      <point x="919" y="329"/>
      <point x="894" y="329" type="curve" smooth="yes"/>
      <point x="869" y="329"/>
      <point x="853" y="313"/>
      <point x="853" y="288" type="curve" smooth="yes"/>
      <point x="853" y="263"/>
      <point x="869" y="246"/>
      <point x="894" y="246" type="curve" smooth="yes"/>
    </contour>
    <contour>
      <point x="883" y="378"/>
      <point x="897" y="395"/>
      <point x="897" y="421" type="curve" smooth="yes"/>
      <point x="897" y="446"/>
      <point x="883" y="462"/>
      <point x="858" y="462" type="curve" smooth="yes"/>
      <point x="834" y="462"/>
      <point x="816" y="444"/>
      <point x="816" y="421" type="curve" smooth="yes"/>
      <point x="816" y="397"/>
      <point x="834" y="378"/>
      <point x="858" y="378" type="curve" smooth="yes"/>
    </contour>
    <contour>
      <point x="783" y="478"/>
      <point x="800" y="494"/>
      <point x="800" y="519" type="curve" smooth="yes"/>
      <point x="800" y="544"/>
      <point x="783" y="561"/>
      <point x="758" y="561" type="curve" smooth="yes"/>
      <point x="733" y="561"/>
      <point x="717" y="544"/>
      <point x="717" y="519" type="curve" smooth="yes"/>
      <point x="717" y="494"/>
      <point x="733" y="478"/>
      <point x="758" y="478" type="curve" smooth="yes"/>
    </contour>
    <contour>
      <point x="413" y="378"/>
      <point x="429" y="396"/>
      <point x="429" y="420" type="curve" smooth="yes"/>
      <point x="429" y="446"/>
      <point x="415" y="462"/>
      <point x="390" y="462" type="curve" smooth="yes"/>
      <point x="365" y="462"/>
      <point x="348" y="445"/>
      <point x="348" y="421" type="curve" smooth="yes"/>
      <point x="348" y="397"/>
      <point x="365" y="378"/>
      <point x="390" y="378" type="curve" smooth="yes"/>
    </contour>
    <component base="bn_ekaar"/>
    <component base="bn_aakaar" xOffset="952"/>
  </outline>
</glyph>
<glyph name="bn_two" format="1">
  <advance width="550"/>
  <unicode hex="09E8"/>
  <outline>
    <contour>
      <point x="349" y="280"/>
      <point x="307" y="253"/>
      <point x="227" y="253" type="curve" smooth="yes"/>
      <point x="180" y="253"/>
      <point x="122" y="264"/>
      <point x="59" y="286" type="curve"/>
      <point x="79" y="176" type="line"/>
      <point x="219" y="146"/>
      <point x="348" y="78"/>
      <point x="483" y="-41" type="curve"/>
      <point x="500" y="-21"/>
      <point x="516" y="-1"/>
      <point x="527" y="20" type="curve"/>
      <point x="415" y="108"/>
      <point x="305" y="171"/>
      <point x="197" y="211" type="curve"/>
      <point x="170" y="176" type="line"/>
      <point x="196" y="172"/>
      <point x="222" y="170"/>
      <point x="245" y="170" type="curve" smooth="yes"/>
      <point x="353" y="170"/>
      <point x="431" y="214"/>
      <point x="431" y="314" type="curve" smooth="yes"/>
      <point x="431" y="482"/>
      <point x="209" y="468"/>
      <point x="188" y="590" type="curve"/>
      <point x="158" y="576"/>
      <point x="131" y="556"/>
      <point x="105" y="532" type="curve"/>
      <point x="126" y="425"/>
      <point x="349" y="439"/>
      <point x="349" y="333" type="curve" smooth="yes"/>
    </contour>
  </outline>
</glyph>
<glyph name="bn_rupeesign" format="1">
  <advance width="486"/>
  <unicode hex="09F3"/>
  <outline>
    <contour>
      <point x="325" y="-24"/>
      <point x="453" y="117"/>
      <point x="453" y="248" type="curve" smooth="yes"/>
      <point x="453" y="334"/>
      <point x="398" y="382"/>
      <point x="331" y="382" type="curve" smooth="yes"/>
      <point x="296" y="382"/>
      <point x="269" y="371"/>
      <point x="250" y="354" type="curve"/>
      <point x="240" y="338"/>
      <point x="232" y="313"/>
      <point x="232" y="290" type="curve" smooth="yes"/>
      <point x="232" y="279"/>
      <point x="235" y="268"/>
      <point x="241" y="261" type="curve"/>
      <point x="254" y="277"/>
      <point x="278" y="297"/>
      <point x="308" y="297" type="curve" smooth="yes"/>
      <point x="337" y="297"/>
      <point x="358" y="277"/>
      <point x="358" y="235" type="curve" smooth="yes"/>
      <point x="358" y="150"/>
      <point x="269" y="38"/>
      <point x="208" y="38" type="curve" smooth="yes"/>
      <point x="178" y="39"/>
      <point x="156" y="63"/>
      <point x="156" y="109" type="curve" smooth="yes"/>
      <point x="156" y="327"/>
      <point x="190" y="575"/>
      <point x="223" y="743" type="curve"/>
      <point x="119" y="729" type="line"/>
      <point x="98" y="564"/>
      <point x="74" y="366"/>
      <point x="74" y="137" type="curve" smooth="yes"/>
      <point x="74" y="40"/>
      <point x="140" y="-24"/>
      <point x="218" y="-24" type="curve" smooth="yes"/>
    </contour>
    <contour>
      <point x="47" y="443"/>
      <point x="134" y="457"/>
      <point x="239" y="457" type="curve" smooth="yes"/>
      <point x="333" y="457"/>
      <point x="421" y="444"/>
      <point x="486" y="430" type="curve"/>
      <point x="490" y="441"/>
      <point x="492" y="456"/>
      <point x="492" y="470" type="curve" smooth="yes"/>
      <point x="492" y="485"/>
      <point x="491" y="498"/>
      <point x="486" y="507" type="curve"/>
      <point x="422" y="525"/>
      <point x="331" y="538"/>
      <point x="236" y="538" type="curve" smooth="yes"/>
      <point x="132" y="538"/>
      <point x="44" y="524"/>
      <point x="0" y="507" type="curve"/>
      <point x="-3" y="497"/>
      <point x="-5" y="482"/>
      <point x="-5" y="469" type="curve" smooth="yes"/>
      <point x="-5" y="455"/>
      <point x="-3" y="442"/>
      <point x="0" y="430" type="curve"/>
    </contour>
  </outline>
</glyph>
<glyph name="bn_currency1" format="1">
  <advance width="542"/>
  <unicode hex="09F4"/>
  <outline>
    <contour>
      <point x="122" y="-28" type="line"/>
      <point x="319" y="129"/>
      <point x="455" y="324"/>
      <point x="528" y="559" type="curve"/>
      <point x="507" y="568"/>
      <point x="485" y="575"/>
      <point x="463" y="579" type="curve"/>
      <point x="376" y="340"/>
      <point x="237" y="169"/>
      <point x="59" y="65" type="curve"/>
    </contour>
  </outline>
</glyph>
<glyph name="quoteright" format="1">
  <advance width="171"/>
  <unicode hex="2019"/>
  <outline>
    <contour>
      <point x="152" y="731" type="curve"/>
      <point x="122" y="738"/>
      <point x="85" y="739"/>
      <point x="56" y="736" type="curve"/>
      <point x="60" y="676"/>
      <point x="53" y="599"/>
      <point x="35" y="496" type="curve"/>
      <point x="54" y="491"/>
      <point x="79" y="486"/>
      <point x="105" y="485" type="curve"/>
      <point x="141" y="595"/>
      <point x="152" y="653"/>
    </contour>
  </outline>
</glyph>
<glyph name="dagger" format="1">
  <advance width="475"/>
  <unicode hex="2020"/>
  <outline>
    <contour>
      <point x="278" y="715" type="curve"/>
      <point x="266" y="718"/>
      <point x="253" y="719"/>
      <point x="242" y="719" type="curve" smooth="yes"/>
      <point x="224" y="719"/>
      <point x="204" y="715"/>
      <point x="194" y="711" type="curve"/>
      <point x="197" y="640"/>
      <point x="202" y="582"/>
      <point x="209" y="498" type="curve"/>
      <point x="225" y="497"/>
      <point x="253" y="499"/>
      <point x="264" y="503" type="curve"/>
      <point x="273" y="601"/>
      <point x="276" y="659"/>
    </contour>
    <contour>
      <point x="34" y="550" type="curve"/>
      <point x="32" y="539"/>
      <point x="30" y="531"/>
      <point x="30" y="519" type="curve" smooth="yes"/>
      <point x="29" y="502"/>
      <point x="34" y="479"/>
      <point x="37" y="467" type="curve"/>
      <point x="108" y="476"/>
      <point x="161" y="481"/>
      <point x="248" y="479" type="curve"/>
      <point x="249" y="496"/>
      <point x="248" y="522"/>
      <point x="245" y="534" type="curve"/>
      <point x="150" y="544"/>
      <point x="89" y="551"/>
    </contour>
    <contour>
      <point x="439" y="464" type="curve"/>
      <point x="441" y="475"/>
      <point x="443" y="485"/>
      <point x="443" y="497" type="curve" smooth="yes"/>
      <point x="444" y="514"/>
      <point x="439" y="535"/>
      <point x="436" y="547" type="curve"/>
      <point x="367" y="540"/>
      <point x="308" y="537"/>
      <point x="228" y="535" type="curve"/>
      <point x="227" y="518"/>
      <point x="229" y="493"/>
      <point x="231" y="481" type="curve"/>
      <point x="327" y="470"/>
      <point x="383" y="464"/>
    </contour>
    <contour>
      <point x="204" y="-212" type="curve"/>
      <point x="224" y="-215"/>
      <point x="253" y="-214"/>
      <point x="271" y="-211" type="curve"/>
      <point x="270" y="64"/>
      <point x="282" y="268"/>
      <point x="263" y="515" type="curve"/>
      <point x="247" y="516"/>
      <point x="219" y="514"/>
      <point x="208" y="510" type="curve"/>
      <point x="193" y="286"/>
      <point x="199" y="30"/>
    </contour>
  </outline>
</glyph>
<glyph name="daggerdbl" format="1">
  <advance width="475"/>
  <unicode hex="2021"/>
  <outline>
    <contour>
      <point x="278" y="715" type="curve"/>
      <point x="266" y="718"/>
      <point x="253" y="719"/>
      <point x="242" y="719" type="curve" smooth="yes"/>
      <point x="224" y="719"/>
      <point x="204" y="715"/>
      <point x="194" y="711" type="curve"/>
      <point x="197" y="640"/>
      <point x="202" y="582"/>
      <point x="209" y="498" type="curve"/>
      <point x="225" y="497"/>
      <point x="253" y="499"/>
      <point x="264" y="503" type="curve"/>
      <point x="273" y="601"/>
      <point x="276" y="659"/>
    </contour>
    <contour>
      <point x="34" y="550" type="curve"/>
      <point x="32" y="539"/>
      <point x="30" y="531"/>
      <point x="30" y="519" type="curve" smooth="yes"/>
      <point x="29" y="502"/>
      <point x="34" y="479"/>
      <point x="37" y="467" type="curve"/>
      <point x="108" y="476"/>
      <point x="161" y="480"/>
      <point x="248" y="479" type="curve"/>
      <point x="249" y="495"/>
      <point x="248" y="522"/>
      <point x="245" y="534" type="curve"/>
      <point x="150" y="544"/>
      <point x="89" y="551"/>
    </contour>
    <contour>
      <point x="439" y="464" type="curve"/>
      <point x="441" y="474"/>
      <point x="443" y="485"/>
      <point x="443" y="497" type="curve" smooth="yes"/>
      <point x="444" y="514"/>
      <point x="439" y="535"/>
      <point x="436" y="547" type="curve"/>
      <point x="367" y="540"/>
      <point x="308" y="537"/>
      <point x="228" y="535" type="curve"/>
      <point x="227" y="518"/>
      <point x="229" y="492"/>
      <point x="231" y="480" type="curve"/>
      <point x="327" y="469"/>
      <point x="383" y="464"/>
    </contour>
    <contour>
      <point x="212" y="-1" type="curve"/>
      <point x="227" y="-3"/>
      <point x="253" y="-5"/>
      <point x="268" y="-2" type="curve"/>
      <point x="281" y="217"/>
      <point x="283" y="306"/>
      <point x="262" y="515" type="curve"/>
      <point x="246" y="516"/>
      <point x="218" y="514"/>
      <point x="207" y="510" type="curve"/>
      <point x="194" y="327"/>
      <point x="195" y="193"/>
    </contour>
    <contour>
      <point x="195" y="-201" type="curve"/>
      <point x="205" y="-205"/>
      <point x="222" y="-209"/>
      <point x="236" y="-209" type="curve" smooth="yes"/>
      <point x="251" y="-209"/>
      <point x="267" y="-207"/>
      <point x="279" y="-204" type="curve"/>
      <point x="280" y="-139"/>
      <point x="275" y="-73"/>
      <point x="268" y="8" type="curve"/>
      <point x="256" y="10"/>
      <point x="227" y="12"/>
      <point x="212" y="10" type="curve"/>
      <point x="207" y="-89"/>
      <point x="202" y="-140"/>
    </contour>
    <contour>
      <point x="441" y="-43" type="curve"/>
      <point x="444" y="-34"/>
      <point x="448" y="-20"/>
      <point x="447" y="-5" type="curve" smooth="yes"/>
      <point x="448" y="8"/>
      <point x="445" y="26"/>
      <point x="443" y="39" type="curve"/>
      <point x="378" y="36"/>
      <point x="313" y="29"/>
      <point x="231" y="25" type="curve"/>
      <point x="229" y="12"/>
      <point x="227" y="-14"/>
      <point x="230" y="-29" type="curve"/>
      <point x="330" y="-34"/>
      <point x="380" y="-39"/>
    </contour>
    <contour>
      <point x="34" y="2" type="curve" smooth="yes"/>
      <point x="33" y="-11"/>
      <point x="36" y="-30"/>
      <point x="39" y="-44" type="curve"/>
      <point x="104" y="-38"/>
      <point x="165" y="-34"/>
      <point x="247" y="-30" type="curve"/>
      <point x="248" y="-17"/>
      <point x="251" y="8"/>
      <point x="248" y="24" type="curve"/>
      <point x="154" y="33"/>
      <point x="100" y="38"/>
      <point x="41" y="38" type="curve"/>
      <point x="37" y="29"/>
      <point x="34" y="17"/>
    </contour>
  </outline>
</glyph>
<glyph name="bullet" format="1">
  <advance width="253"/>
  <unicode hex="2022"/>
  <outline>
    <contour>
      <point x="217" y="248"/>
      <point x="220" y="298"/>
      <point x="222" y="355" type="curve"/>
      <point x="143" y="366"/>
      <point x="80" y="359"/>
      <point x="35" y="348" type="curve"/>
      <point x="35" y="290"/>
      <point x="37" y="255"/>
      <point x="42" y="193" type="curve"/>
      <point x="94" y="187"/>
      <point x="142" y="186"/>
      <point x="207" y="192" type="curve"/>
    </contour>
  </outline>
</glyph>
<glyph name="guilsinglleft" format="1">
  <advance width="278"/>
  <unicode hex="2039"/>
  <outline>
    <contour>
      <point x="191" y="53" type="curve"/>
      <point x="219" y="68"/>
      <point x="236" y="85"/>
      <point x="255" y="114" type="curve"/>
      <point x="170" y="172"/>
      <point x="114" y="230"/>
      <point x="74" y="292" type="curve"/>
      <point x="8" y="265" type="line"/>
      <point x="52" y="182"/>
      <point x="112" y="115"/>
    </contour>
    <contour>
      <point x="254" y="399" type="curve"/>
      <point x="239" y="421"/>
      <point x="214" y="440"/>
      <point x="187" y="456" type="curve"/>
      <point x="133" y="369"/>
      <point x="73" y="309"/>
      <point x="8" y="265" type="curve"/>
      <point x="56" y="225" type="line"/>
      <point x="136" y="271"/>
      <point x="194" y="325"/>
    </contour>
  </outline>
</glyph>
<glyph name="fraction" format="1">
  <advance width="316"/>
  <unicode hex="2044"/>
  <outline>
    <contour>
      <point x="159" y="253"/>
      <point x="268" y="470"/>
      <point x="380" y="746" type="curve"/>
      <point x="354" y="770"/>
      <point x="326" y="783"/>
      <point x="301" y="789" type="curve"/>
      <point x="192" y="507"/>
      <point x="80" y="273"/>
      <point x="-63" y="5" type="curve"/>
      <point x="-44" y="-9"/>
      <point x="-26" y="-23"/>
      <point x="2" y="-30" type="curve"/>
    </contour>
  </outline>
</glyph>
<glyph name="uni20B9.rupee" format="1">
  <advance width="526"/>
  <unicode hex="20B9"/>
  <outline>
    <contour>
      <point x="494" y="15" type="curve"/>
      <point x="417" y="184"/>
      <point x="345" y="298"/>
      <point x="273" y="374" type="curve"/>
      <point x="197" y="332" type="line"/>
      <point x="280" y="222"/>
      <point x="329" y="124"/>
      <point x="398" y="-34" type="curve"/>
      <point x="436" y="-24"/>
      <point x="475" y="-4"/>
    </contour>
    <contour>
      <point x="557" y="553" type="curve" smooth="yes"/>
      <point x="558" y="563"/>
      <point x="558" y="573"/>
      <point x="557" y="584" type="curve"/>
      <point x="382" y="568"/>
      <point x="213" y="567"/>
      <point x="56" y="579" type="curve"/>
      <point x="50" y="562"/>
      <point x="48" y="533"/>
      <point x="48" y="508" type="curve"/>
      <point x="213" y="497"/>
      <point x="370" y="500"/>
      <point x="548" y="514" type="curve"/>
      <point x="552" y="526"/>
      <point x="556" y="540"/>
    </contour>
    <contour>
      <point x="200" y="707" type="line"/>
      <point x="283" y="707"/>
      <point x="330" y="653"/>
      <point x="330" y="559" type="curve" smooth="yes"/>
      <point x="330" y="445"/>
      <point x="255" y="376"/>
      <point x="92" y="342" type="curve"/>
      <point x="107" y="273" type="line"/>
      <point x="328" y="330"/>
      <point x="440" y="430"/>
      <point x="440" y="574" type="curve" smooth="yes"/>
      <point x="440" y="686"/>
      <point x="364" y="770"/>
      <point x="212" y="770" type="curve"/>
    </contour>
    <contour>
      <point x="557" y="751" type="curve" smooth="yes"/>
      <point x="558" y="762"/>
      <point x="558" y="772"/>
      <point x="557" y="782" type="curve"/>
      <point x="382" y="767"/>
      <point x="213" y="766"/>
      <point x="56" y="777" type="curve"/>
      <point x="50" y="760"/>
      <point x="48" y="731"/>
      <point x="48" y="706" type="curve"/>
      <point x="213" y="695"/>
      <point x="370" y="699"/>
      <point x="548" y="713" type="curve"/>
      <point x="552" y="724"/>
      <point x="556" y="738"/>
    </contour>
  </outline>
</glyph>
<glyph name="radical" format="1">
  <advance width="496"/>
  <unicode hex="221A"/>
  <outline>
    <contour>
      <point x="262" y="-85" type="curve"/>
      <point x="393" y="192"/>
      <point x="465" y="419"/>
      <point x="503" y="743" type="curve"/>
      <point x="470" y="755"/>
      <point x="437" y="762"/>
      <point x="403" y="763" type="curve"/>
      <point x="375" y="460"/>
      <point x="326" y="264"/>
      <point x="230" y="26" type="curve"/>
      <point x="186" y="143"/>
      <point x="156" y="242"/>
      <point x="143" y="372" type="curve"/>
      <point x="101" y="369"/>
      <point x="77" y="361"/>
      <point x="43" y="346" type="curve"/>
      <point x="65" y="182"/>
      <point x="110" y="62"/>
      <point x="184" y="-96" type="curve"/>
      <point x="217" y="-96"/>
      <point x="237" y="-93"/>
    </contour>
  </outline>
</glyph>
<glyph name="notequal" format="1">
  <advance width="397"/>
  <unicode hex="2260"/>
  <outline>
    <contour>
      <point x="28" y="291" type="curve"/>
      <point x="24" y="267"/>
      <point x="22" y="247"/>
      <point x="22" y="221" type="curve"/>
      <point x="124" y="208"/>
      <point x="249" y="207"/>
      <point x="354" y="221" type="curve"/>
      <point x="360" y="243"/>
      <point x="362" y="266"/>
      <point x="362" y="289" type="curve"/>
      <point x="230" y="277"/>
      <point x="131" y="278"/>
    </contour>
    <contour>
      <point x="40" y="428" type="curve"/>
      <point x="36" y="404"/>
      <point x="34" y="384"/>
      <point x="34" y="358" type="curve"/>
      <point x="136" y="345"/>
      <point x="260" y="344"/>
      <point x="365" y="358" type="curve"/>
      <point x="371" y="380"/>
      <point x="374" y="403"/>
      <point x="374" y="426" type="curve"/>
      <point x="241" y="414"/>
      <point x="142" y="415"/>
    </contour>
    <contour>
      <point x="261" y="507" type="curve"/>
      <point x="204" y="385"/>
      <point x="151" y="285"/>
      <point x="56" y="149" type="curve"/>
      <point x="74" y="136"/>
      <point x="95" y="126"/>
      <point x="117" y="119" type="curve"/>
      <point x="206" y="240"/>
      <point x="273" y="364"/>
      <point x="325" y="480" type="curve"/>
      <point x="302" y="494"/>
      <point x="283" y="501"/>
    </contour>
  </outline>
</glyph>
<glyph name="lessequal" format="1">
  <advance width="396"/>
  <unicode hex="2264"/>
  <outline>
    <contour>
      <point x="25" y="80" type="curve"/>
      <point x="127" y="66"/>
      <point x="252" y="65"/>
      <point x="357" y="80" type="curve"/>
      <point x="363" y="102"/>
      <point x="366" y="125"/>
      <point x="366" y="148" type="curve"/>
      <point x="233" y="136"/>
      <point x="134" y="137"/>
      <point x="31" y="150" type="curve"/>
      <point x="27" y="126"/>
      <point x="25" y="106"/>
    </contour>
    <contour>
      <point x="69" y="331" type="line"/>
      <point x="155" y="394"/>
      <point x="248" y="446"/>
      <point x="366" y="497" type="curve"/>
      <point x="361" y="520"/>
      <point x="355" y="535"/>
      <point x="345" y="559" type="curve"/>
      <point x="234" y="515"/>
      <point x="117" y="454"/>
      <point x="31" y="390" type="curve"/>
      <point x="29" y="345" type="line"/>
      <point x="109" y="282"/>
      <point x="231" y="218"/>
      <point x="343" y="175" type="curve"/>
      <point x="354" y="196"/>
      <point x="360" y="214"/>
      <point x="364" y="238" type="curve"/>
      <point x="246" y="288"/>
      <point x="146" y="341"/>
      <point x="67" y="403" type="curve"/>
    </contour>
  </outline>
</glyph>
<glyph name="greaterequal" format="1">
  <advance width="396"/>
  <unicode hex="2265"/>
  <outline>
    <contour>
      <point x="26" y="80" type="curve"/>
      <point x="128" y="66"/>
      <point x="253" y="65"/>
      <point x="358" y="80" type="curve"/>
      <point x="364" y="102"/>
      <point x="367" y="125"/>
      <point x="367" y="148" type="curve"/>
      <point x="234" y="136"/>
      <point x="135" y="137"/>
      <point x="33" y="150" type="curve"/>
      <point x="28" y="126"/>
      <point x="26" y="106"/>
    </contour>
    <contour>
      <point x="328" y="318" type="curve"/>
      <point x="330" y="390" type="line"/>
      <point x="242" y="331"/>
      <point x="147" y="283"/>
      <point x="27" y="237" type="curve"/>
      <point x="30" y="213"/>
      <point x="35" y="198"/>
      <point x="44" y="173" type="curve"/>
      <point x="157" y="214"/>
      <point x="276" y="269"/>
      <point x="365" y="330" type="curve"/>
      <point x="369" y="375" type="line"/>
      <point x="291" y="440"/>
      <point x="174" y="510"/>
      <point x="63" y="557" type="curve"/>
      <point x="50" y="537"/>
      <point x="43" y="519"/>
      <point x="38" y="496" type="curve"/>
      <point x="154" y="441"/>
      <point x="251" y="384"/>
    </contour>
  </outline>
</glyph>
<glyph name="lozenge" format="1">
  <advance width="426"/>
  <unicode hex="25CA"/>
  <outline>
    <contour>
      <point x="235" y="77" type="line"/>
      <point x="298" y="157"/>
      <point x="355" y="263"/>
      <point x="404" y="391" type="curve"/>
      <point x="360" y="502"/>
      <point x="299" y="619"/>
      <point x="235" y="705" type="curve"/>
      <point x="189" y="707" type="line"/>
      <point x="122" y="621"/>
      <point x="76" y="534"/>
      <point x="21" y="392" type="curve"/>
      <point x="65" y="281"/>
      <point x="126" y="165"/>
      <point x="190" y="79" type="curve"/>
    </contour>
    <contour>
      <point x="214" y="167" type="curve"/>
      <point x="170" y="234"/>
      <point x="131" y="305"/>
      <point x="92" y="394" type="curve"/>
      <point x="130" y="480"/>
      <point x="168" y="555"/>
      <point x="211" y="617" type="curve"/>
      <point x="255" y="550"/>
      <point x="294" y="479"/>
      <point x="333" y="390" type="curve"/>
      <point x="295" y="304"/>
      <point x="257" y="229"/>
    </contour>
  </outline>
</glyph>
<glyph name="uni25CC" format="1">
  <advance width="723"/>
  <unicode hex="25CC"/>
  <outline>
    <contour>
      <point x="86" y="155" type="curve" smooth="yes"/>
      <point x="86" y="130"/>
      <point x="103" y="112"/>
      <point x="128" y="112" type="curve" smooth="yes"/>
      <point x="152" y="112"/>
      <point x="167" y="129"/>
      <point x="167" y="155" type="curve" smooth="yes"/>
      <point x="167" y="181"/>
      <point x="152" y="197"/>
      <point x="128" y="197" type="curve" smooth="yes"/>
      <point x="103" y="197"/>
      <point x="86" y="180"/>
    </contour>
    <contour>
      <point x="184" y="55" type="curve" smooth="yes"/>
      <point x="184" y="31"/>
      <point x="200" y="15"/>
      <point x="224" y="15" type="curve" smooth="yes"/>
      <point x="249" y="15"/>
      <point x="266" y="31"/>
      <point x="266" y="55" type="curve" smooth="yes"/>
      <point x="266" y="81"/>
      <point x="249" y="98"/>
      <point x="224" y="98" type="curve" smooth="yes"/>
      <point x="200" y="98"/>
      <point x="184" y="81"/>
    </contour>
    <contour>
      <point x="50" y="288" type="curve" smooth="yes"/>
      <point x="50" y="262"/>
      <point x="66" y="246"/>
      <point x="92" y="246" type="curve" smooth="yes"/>
      <point x="118" y="246"/>
      <point x="132" y="262"/>
      <point x="132" y="288" type="curve" smooth="yes"/>
      <point x="132" y="314"/>
      <point x="118" y="329"/>
      <point x="92" y="329" type="curve" smooth="yes"/>
      <point x="66" y="329"/>
      <point x="50" y="313"/>
    </contour>
    <contour>
      <point x="321" y="19" type="curve" smooth="yes"/>
      <point x="321" y="-6"/>
      <point x="335" y="-22"/>
      <point x="361" y="-22" type="curve" smooth="yes"/>
      <point x="387" y="-22"/>
      <point x="402" y="-6"/>
      <point x="402" y="19" type="curve" smooth="yes"/>
      <point x="402" y="45"/>
      <point x="387" y="61"/>
      <point x="361" y="61" type="curve" smooth="yes"/>
      <point x="335" y="61"/>
      <point x="321" y="45"/>
    </contour>
    <contour>
      <point x="455" y="55" type="curve" smooth="yes"/>
      <point x="455" y="31"/>
      <point x="471" y="15"/>
      <point x="496" y="15" type="curve" smooth="yes"/>
      <point x="521" y="15"/>
      <point x="538" y="31"/>
      <point x="538" y="55" type="curve" smooth="yes"/>
      <point x="538" y="81"/>
      <point x="521" y="98"/>
      <point x="496" y="98" type="curve" smooth="yes"/>
      <point x="471" y="98"/>
      <point x="455" y="81"/>
    </contour>
    <contour>
      <point x="184" y="519" type="curve" smooth="yes"/>
      <point x="184" y="494"/>
      <point x="200" y="478"/>
      <point x="224" y="478" type="curve" smooth="yes"/>
      <point x="249" y="478"/>
      <point x="266" y="494"/>
      <point x="266" y="519" type="curve" smooth="yes"/>
      <point x="266" y="544"/>
      <point x="249" y="561"/>
      <point x="224" y="561" type="curve" smooth="yes"/>
      <point x="200" y="561"/>
      <point x="184" y="544"/>
    </contour>
    <contour>
      <point x="554" y="155" type="curve" smooth="yes"/>
      <point x="554" y="130"/>
      <point x="572" y="112"/>
      <point x="596" y="112" type="curve" smooth="yes"/>
      <point x="621" y="112"/>
      <point x="635" y="129"/>
      <point x="635" y="155" type="curve" smooth="yes"/>
      <point x="635" y="181"/>
      <point x="621" y="197"/>
      <point x="596" y="197" type="curve" smooth="yes"/>
      <point x="572" y="197"/>
      <point x="554" y="179"/>
    </contour>
    <contour>
      <point x="321" y="556" type="curve" smooth="yes"/>
      <point x="321" y="530"/>
      <point x="335" y="515"/>
      <point x="361" y="515" type="curve" smooth="yes"/>
      <point x="387" y="515"/>
      <point x="402" y="530"/>
      <point x="402" y="556" type="curve" smooth="yes"/>
      <point x="402" y="583"/>
      <point x="387" y="599"/>
      <point x="361" y="599" type="curve" smooth="yes"/>
      <point x="335" y="599"/>
      <point x="321" y="583"/>
    </contour>
    <contour>
      <point x="591" y="288" type="curve" smooth="yes"/>
      <point x="591" y="263"/>
      <point x="607" y="246"/>
      <point x="632" y="246" type="curve" smooth="yes"/>
      <point x="657" y="246"/>
      <point x="673" y="262"/>
      <point x="673" y="288" type="curve" smooth="yes"/>
      <point x="673" y="314"/>
      <point x="657" y="329"/>
      <point x="632" y="329" type="curve" smooth="yes"/>
      <point x="607" y="329"/>
      <point x="591" y="313"/>
    </contour>
    <contour>
      <point x="554" y="421" type="curve" smooth="yes"/>
      <point x="554" y="397"/>
      <point x="572" y="378"/>
      <point x="596" y="378" type="curve" smooth="yes"/>
      <point x="621" y="378"/>
      <point x="635" y="395"/>
      <point x="635" y="421" type="curve" smooth="yes"/>
      <point x="635" y="446"/>
      <point x="621" y="462"/>
      <point x="596" y="462" type="curve" smooth="yes"/>
      <point x="572" y="462"/>
      <point x="554" y="444"/>
    </contour>
    <contour>
      <point x="455" y="519" type="curve" smooth="yes"/>
      <point x="455" y="494"/>
      <point x="471" y="478"/>
      <point x="496" y="478" type="curve" smooth="yes"/>
      <point x="521" y="478"/>
      <point x="538" y="494"/>
      <point x="538" y="519" type="curve" smooth="yes"/>
      <point x="538" y="544"/>
      <point x="521" y="561"/>
      <point x="496" y="561" type="curve" smooth="yes"/>
      <point x="471" y="561"/>
      <point x="455" y="544"/>
    </contour>
    <contour>
      <point x="86" y="421" type="curve" smooth="yes"/>
      <point x="86" y="397"/>
      <point x="103" y="378"/>
      <point x="128" y="378" type="curve" smooth="yes"/>
      <point x="151" y="378"/>
      <point x="167" y="396"/>
      <point x="167" y="420" type="curve" smooth="yes"/>
      <point x="167" y="446"/>
      <point x="153" y="462"/>
      <point x="128" y="462" type="curve" smooth="yes"/>
      <point x="103" y="462"/>
      <point x="86" y="445"/>
    </contour>
  </outline>
</glyph>
<glyph name="bn_b_dha" format="1">
  <advance width="603"/>
  <outline>
    <contour>
      <point x="305" y="-77" type="line"/>
      <point x="278" y="20"/>
      <point x="215" y="85"/>
      <point x="144" y="120" type="curve"/>
      <point x="131" y="82" type="line"/>
      <point x="193" y="135"/>
      <point x="309" y="205"/>
      <point x="383" y="238" type="curve"/>
      <point x="381" y="321" type="line"/>
      <point x="273" y="278"/>
      <point x="142" y="200"/>
      <point x="77" y="143" type="curve"/>
      <point x="78" y="114"/>
      <point x="88" y="87"/>
      <point x="110" y="61" type="curve"/>
      <point x="184" y="39"/>
      <point x="240" y="-15"/>
      <point x="276" y="-110" type="curve"/>
    </contour>
    <contour>
      <point x="397" y="-26"/>
      <point x="415" y="196"/>
      <point x="415" y="333" type="curve" smooth="yes"/>
      <point x="415" y="438"/>
      <point x="402" y="544"/>
      <point x="389" y="580" type="curve"/>
      <point x="324" y="573" type="line"/>
      <point x="344" y="515"/>
      <point x="348" y="431"/>
      <point x="348" y="332" type="curve" smooth="yes"/>
      <point x="348" y="194"/>
      <point x="320" y="-1"/>
      <point x="276" y="-110" type="curve"/>
      <point x="297" y="-118"/>
      <point x="333" y="-124"/>
      <point x="363" y="-124" type="curve"/>
    </contour>
    <contour>
      <point x="77" y="540"/>
      <point x="180" y="554"/>
      <point x="298" y="554" type="curve" smooth="yes"/>
      <point x="415" y="554"/>
      <point x="525" y="541"/>
      <point x="603" y="524" type="curve"/>
      <point x="606" y="534"/>
      <point x="609" y="550"/>
      <point x="609" y="564" type="curve" smooth="yes"/>
      <point x="609" y="579"/>
      <point x="607" y="592"/>
      <point x="603" y="601" type="curve"/>
      <point x="530" y="619"/>
      <point x="419" y="635"/>
      <point x="300" y="635" type="curve" smooth="yes"/>
      <point x="180" y="635"/>
      <point x="75" y="619"/>
      <point x="0" y="601" type="curve"/>
      <point x="-4" y="594"/>
      <point x="-7" y="579"/>
      <point x="-7" y="565" type="curve" smooth="yes"/>
      <point x="-7" y="549"/>
      <point x="-4" y="533"/>
      <point x="0" y="524" type="curve"/>
    </contour>
    <contour>
      <point x="533" y="-113"/>
      <point x="566" y="-107"/>
      <point x="586" y="-95" type="curve"/>
      <point x="560" y="-13"/>
      <point x="549" y="72"/>
      <point x="549" y="163" type="curve" smooth="yes"/>
      <point x="549" y="211"/>
      <point x="553" y="259"/>
      <point x="559" y="307" type="curve"/>
      <point x="508" y="373" type="line"/>
      <point x="464" y="359"/>
      <point x="420" y="341"/>
      <point x="375" y="320" type="curve"/>
      <point x="378" y="234" type="line"/>
      <point x="424" y="255"/>
      <point x="470" y="274"/>
      <point x="513" y="289" type="curve"/>
      <point x="491" y="310" type="line"/>
      <point x="483" y="251"/>
      <point x="480" y="194"/>
      <point x="480" y="135" type="curve" smooth="yes"/>
      <point x="480" y="48"/>
      <point x="488" y="-35"/>
      <point x="504" y="-113" type="curve"/>
    </contour>
    <contour>
      <point x="266" y="240" type="line"/>
      <point x="223" y="278"/>
      <point x="165" y="294"/>
      <point x="114" y="316" type="curve"/>
      <point x="111" y="276" type="line"/>
      <point x="167" y="338"/>
      <point x="287" y="411"/>
      <point x="351" y="433" type="curve"/>
      <point x="360" y="528" type="line"/>
      <point x="248" y="485"/>
      <point x="109" y="398"/>
      <point x="52" y="337" type="curve"/>
      <point x="54" y="307"/>
      <point x="63" y="282"/>
      <point x="86" y="253" type="curve"/>
      <point x="133" y="241"/>
      <point x="182" y="235"/>
      <point x="220" y="208" type="curve"/>
    </contour>
    <contour>
      <point x="313" y="-113" type="move" name="blwm"/>
    </contour>
    <contour>
      <point x="204" y="-112" type="move" name="haln"/>
    </contour>
    <contour>
      <point x="375" y="750" type="move" name="reph"/>
    </contour>
    <contour>
      <point x="375" y="750" type="move" name="chandrabindu"/>
    </contour>
  </outline>
</glyph>
<glyph name="bn_b_ra" format="1">
  <advance width="480"/>
  <outline>
    <contour>
      <point x="348" y="1" type="line"/>
      <point x="323" y="155"/>
      <point x="206" y="237"/>
      <point x="111" y="280" type="curve"/>
      <point x="110" y="245" type="line"/>
      <point x="170" y="314"/>
      <point x="282" y="387"/>
      <point x="354" y="414" type="curve"/>
      <point x="346" y="513" type="line"/>
      <point x="221" y="463"/>
      <point x="103" y="382"/>
      <point x="40" y="310" type="curve"/>
      <point x="42" y="274"/>
      <point x="53" y="243"/>
      <point x="80" y="209" type="curve"/>
      <point x="175" y="185"/>
      <point x="282" y="113"/>
      <point x="321" y="-36" type="curve"/>
    </contour>
    <contour>
      <point x="359" y="-215"/>
      <point x="395" y="-211"/>
      <point x="420" y="-201" type="curve"/>
      <point x="395" y="-70"/>
      <point x="392" y="139"/>
      <point x="392" y="286" type="curve" smooth="yes"/>
      <point x="392" y="399"/>
      <point x="395" y="469"/>
      <point x="404" y="560" type="curve"/>
      <point x="335" y="574" type="line"/>
      <point x="319" y="425"/>
      <point x="313" y="319"/>
      <point x="313" y="169" type="curve" smooth="yes"/>
      <point x="313" y="-37"/>
      <point x="321" y="-135"/>
      <point x="328" y="-215" type="curve"/>
    </contour>
    <contour>
      <point x="351" y="-185" type="line"/>
      <point x="315" y="-117"/>
      <point x="278" y="-81"/>
      <point x="217" y="-81" type="curve" smooth="yes"/>
      <point x="178" y="-81"/>
      <point x="141" y="-89"/>
      <point x="111" y="-89" type="curve" smooth="yes"/>
      <point x="75" y="-89"/>
      <point x="49" y="-71"/>
      <point x="49" y="-33" type="curve" smooth="yes"/>
      <point x="49" y="-9"/>
      <point x="58" y="17"/>
      <point x="67" y="37" type="curve"/>
      <point x="52" y="47"/>
      <point x="31" y="53"/>
      <point x="6" y="54" type="curve"/>
      <point x="-8" y="22"/>
      <point x="-22" y="-15"/>
      <point x="-22" y="-54" type="curve" smooth="yes"/>
      <point x="-22" y="-122"/>
      <point x="25" y="-170"/>
      <point x="107" y="-170" type="curve" smooth="yes"/>
      <point x="149" y="-170"/>
      <point x="188" y="-162"/>
      <point x="229" y="-162" type="curve" smooth="yes"/>
      <point x="287" y="-162"/>
      <point x="306" y="-191"/>
      <point x="328" y="-215" type="curve"/>
    </contour>
    <contour>
      <point x="65" y="537"/>
      <point x="162" y="550"/>
      <point x="252" y="550" type="curve" smooth="yes"/>
      <point x="330" y="550"/>
      <point x="421" y="537"/>
      <point x="480" y="524" type="curve"/>
      <point x="484" y="534"/>
      <point x="487" y="549"/>
      <point x="487" y="566" type="curve" smooth="yes"/>
      <point x="487" y="579"/>
      <point x="485" y="592"/>
      <point x="480" y="601" type="curve"/>
      <point x="425" y="617"/>
      <point x="333" y="631"/>
      <point x="256" y="631" type="curve" smooth="yes"/>
      <point x="165" y="631"/>
      <point x="64" y="617"/>
      <point x="0" y="601" type="curve"/>
      <point x="-4" y="592"/>
      <point x="-7" y="579"/>
      <point x="-7" y="566" type="curve" smooth="yes"/>
      <point x="-7" y="549"/>
      <point x="-4" y="534"/>
      <point x="0" y="524" type="curve"/>
    </contour>
    <contour>
      <point x="361" y="-200" type="move" name="blwm"/>
    </contour>
    <contour>
      <point x="193" y="-197" type="move" name="haln"/>
    </contour>
    <contour>
      <point x="369" y="690" type="move" name="reph"/>
    </contour>
    <contour>
      <point x="369" y="690" type="move" name="chandrabindu"/>
    </contour>
  </outline>
</glyph>
<glyph name="bn_b_ra_ukaar" format="1">
  <advance width="656"/>
  <outline>
    <contour>
      <point x="586" y="135"/>
      <point x="634" y="206"/>
      <point x="634" y="304" type="curve" smooth="yes"/>
      <point x="634" y="404"/>
      <point x="584" y="462"/>
      <point x="522" y="462" type="curve" smooth="yes"/>
      <point x="485" y="462"/>
      <point x="458" y="440"/>
      <point x="444" y="412" type="curve"/>
      <point x="447" y="379"/>
      <point x="459" y="341"/>
      <point x="474" y="318" type="curve"/>
      <point x="483" y="347"/>
      <point x="502" y="382"/>
      <point x="530" y="382" type="curve" smooth="yes"/>
      <point x="555" y="382"/>
      <point x="573" y="358"/>
      <point x="573" y="317" type="curve" smooth="yes"/>
      <point x="573" y="264"/>
      <point x="542" y="225"/>
      <point x="498" y="225" type="curve" smooth="yes"/>
      <point x="451" y="225"/>
      <point x="397" y="270"/>
      <point x="384" y="357" type="curve"/>
      <point x="368" y="301" type="line"/>
      <point x="393" y="193"/>
      <point x="445" y="135"/>
      <point x="514" y="135" type="curve" smooth="yes"/>
    </contour>
    <contour>
      <point x="71" y="539"/>
      <point x="193" y="556"/>
      <point x="314" y="556" type="curve" smooth="yes"/>
      <point x="443" y="556"/>
      <point x="580" y="540"/>
      <point x="656" y="524" type="curve"/>
      <point x="660" y="534"/>
      <point x="663" y="551"/>
      <point x="663" y="565" type="curve" smooth="yes"/>
      <point x="663" y="578"/>
      <point x="660" y="593"/>
      <point x="656" y="601" type="curve"/>
      <point x="583" y="619"/>
      <point x="447" y="637"/>
      <point x="316" y="637" type="curve" smooth="yes"/>
      <point x="193" y="637"/>
      <point x="69" y="618"/>
      <point x="0" y="601" type="curve"/>
      <point x="-4" y="593"/>
      <point x="-7" y="577"/>
      <point x="-7" y="565" type="curve" smooth="yes"/>
      <point x="-7" y="551"/>
      <point x="-4" y="534"/>
      <point x="0" y="524" type="curve"/>
    </contour>
    <contour>
      <point x="348" y="1" type="line"/>
      <point x="323" y="155"/>
      <point x="206" y="237"/>
      <point x="111" y="280" type="curve"/>
      <point x="110" y="245" type="line"/>
      <point x="170" y="314"/>
      <point x="282" y="387"/>
      <point x="354" y="414" type="curve"/>
      <point x="346" y="513" type="line"/>
      <point x="221" y="463"/>
      <point x="103" y="382"/>
      <point x="40" y="310" type="curve"/>
      <point x="42" y="274"/>
      <point x="53" y="243"/>
      <point x="80" y="209" type="curve"/>
      <point x="175" y="185"/>
      <point x="282" y="113"/>
      <point x="321" y="-36" type="curve"/>
    </contour>
    <contour>
      <point x="359" y="-215"/>
      <point x="395" y="-211"/>
      <point x="420" y="-201" type="curve"/>
      <point x="395" y="-70"/>
      <point x="392" y="139"/>
      <point x="392" y="286" type="curve" smooth="yes"/>
      <point x="392" y="399"/>
      <point x="395" y="469"/>
      <point x="404" y="560" type="curve"/>
      <point x="335" y="574" type="line"/>
      <point x="319" y="425"/>
      <point x="313" y="319"/>
      <point x="313" y="169" type="curve" smooth="yes"/>
      <point x="313" y="-37"/>
      <point x="321" y="-135"/>
      <point x="328" y="-215" type="curve"/>
    </contour>
    <contour>
      <point x="351" y="-185" type="line"/>
      <point x="315" y="-117"/>
      <point x="278" y="-81"/>
      <point x="217" y="-81" type="curve" smooth="yes"/>
      <point x="178" y="-81"/>
      <point x="141" y="-89"/>
      <point x="111" y="-89" type="curve" smooth="yes"/>
      <point x="75" y="-89"/>
      <point x="49" y="-71"/>
      <point x="49" y="-33" type="curve" smooth="yes"/>
      <point x="49" y="-9"/>
      <point x="58" y="17"/>
      <point x="67" y="37" type="curve"/>
      <point x="52" y="47"/>
      <point x="31" y="53"/>
      <point x="6" y="54" type="curve"/>
      <point x="-8" y="22"/>
      <point x="-22" y="-15"/>
      <point x="-22" y="-54" type="curve" smooth="yes"/>
      <point x="-22" y="-122"/>
      <point x="25" y="-170"/>
      <point x="107" y="-170" type="curve" smooth="yes"/>
      <point x="149" y="-170"/>
      <point x="188" y="-162"/>
      <point x="229" y="-162" type="curve" smooth="yes"/>
      <point x="287" y="-162"/>
      <point x="306" y="-191"/>
      <point x="328" y="-215" type="curve"/>
    </contour>
    <contour>
      <point x="366" y="690" type="move" name="chandrabindu"/>
    </contour>
    <contour>
      <point x="366" y="690" type="move" name="reph"/>
    </contour>
    <contour>
      <point x="359" y="-200" type="move" name="blwm"/>
    </contour>
    <contour>
      <point x="211" y="-199" type="move" name="haln"/>
    </contour>
  </outline>
</glyph>
<glyph name="bn_bh_ra_ukaar" format="1">
  <advance width="745"/>
  <outline>
    <contour>
      <point x="460" y="-76" type="curve"/>
      <point x="474" y="43"/>
      <point x="483" y="180"/>
      <point x="483" y="348" type="curve" smooth="yes"/>
      <point x="483" y="387"/>
      <point x="467" y="419"/>
      <point x="446" y="444" type="curve"/>
      <point x="429" y="460"/>
      <point x="401" y="478"/>
      <point x="381" y="488" type="curve"/>
      <point x="313" y="383"/>
      <point x="263" y="328"/>
      <point x="215" y="328" type="curve" smooth="yes"/>
      <point x="184" y="328"/>
      <point x="163" y="343"/>
      <point x="163" y="371" type="curve" smooth="yes"/>
      <point x="163" y="406"/>
      <point x="203" y="437"/>
      <point x="261" y="451" type="curve"/>
      <point x="250" y="479"/>
      <point x="221" y="502"/>
      <point x="196" y="509" type="curve"/>
      <point x="149" y="492"/>
      <point x="100" y="449"/>
      <point x="100" y="384" type="curve" smooth="yes"/>
      <point x="100" y="310"/>
      <point x="163" y="254"/>
      <point x="238" y="254" type="curve" smooth="yes"/>
      <point x="307" y="254"/>
      <point x="365" y="322"/>
      <point x="421" y="421" type="curve"/>
      <point x="372" y="421" type="line"/>
      <point x="403" y="393"/>
      <point x="408" y="370"/>
      <point x="408" y="324" type="curve" smooth="yes"/>
      <point x="408" y="248"/>
      <point x="398" y="70"/>
      <point x="377" y="-38" type="curve"/>
      <point x="399" y="-55" type="line"/>
      <point x="376" y="33"/>
      <point x="349" y="75"/>
      <point x="296" y="75" type="curve" smooth="yes"/>
      <point x="251" y="75"/>
      <point x="191" y="47"/>
      <point x="152" y="47" type="curve" smooth="yes"/>
      <point x="122" y="47"/>
      <point x="99" y="64"/>
      <point x="99" y="103" type="curve" smooth="yes"/>
      <point x="99" y="133"/>
      <point x="112" y="172"/>
      <point x="131" y="201" type="curve"/>
      <point x="115" y="209"/>
      <point x="94" y="214"/>
      <point x="66" y="215" type="curve"/>
      <point x="45" y="175"/>
      <point x="27" y="124"/>
      <point x="27" y="78" type="curve" smooth="yes"/>
      <point x="27" y="6"/>
      <point x="68" y="-44"/>
      <point x="137" y="-44" type="curve" smooth="yes"/>
      <point x="192" y="-44"/>
      <point x="259" y="-12"/>
      <point x="306" y="-12" type="curve" smooth="yes"/>
      <point x="357" y="-12"/>
      <point x="369" y="-51"/>
      <point x="388" y="-87" type="curve"/>
      <point x="411" y="-87"/>
      <point x="437" y="-84"/>
    </contour>
    <contour>
      <point x="722" y="304" type="curve" smooth="yes"/>
      <point x="722" y="404"/>
      <point x="672" y="462"/>
      <point x="610" y="462" type="curve" smooth="yes"/>
      <point x="572" y="462"/>
      <point x="546" y="440"/>
      <point x="532" y="412" type="curve"/>
      <point x="534" y="379"/>
      <point x="546" y="341"/>
      <point x="561" y="318" type="curve"/>
      <point x="570" y="347"/>
      <point x="590" y="382"/>
      <point x="618" y="382" type="curve" smooth="yes"/>
      <point x="643" y="382"/>
      <point x="661" y="358"/>
      <point x="661" y="317" type="curve" smooth="yes"/>
      <point x="661" y="264"/>
      <point x="629" y="225"/>
      <point x="586" y="225" type="curve" smooth="yes"/>
      <point x="539" y="225"/>
      <point x="485" y="270"/>
      <point x="472" y="357" type="curve"/>
      <point x="455" y="301" type="line"/>
      <point x="481" y="193"/>
      <point x="533" y="135"/>
      <point x="601" y="135" type="curve" smooth="yes"/>
      <point x="674" y="135"/>
      <point x="722" y="206"/>
    </contour>
    <contour>
      <point x="357" y="556" type="curve" smooth="yes"/>
      <point x="503" y="556"/>
      <point x="658" y="543"/>
      <point x="743" y="524" type="curve"/>
      <point x="747" y="534"/>
      <point x="750" y="551"/>
      <point x="750" y="565" type="curve" smooth="yes"/>
      <point x="750" y="578"/>
      <point x="747" y="593"/>
      <point x="743" y="601" type="curve"/>
      <point x="662" y="622"/>
      <point x="508" y="637"/>
      <point x="359" y="637" type="curve" smooth="yes"/>
      <point x="219" y="637"/>
      <point x="78" y="620"/>
      <point x="0" y="601" type="curve"/>
      <point x="-4" y="593"/>
      <point x="-7" y="577"/>
      <point x="-7" y="565" type="curve" smooth="yes"/>
      <point x="-7" y="551"/>
      <point x="-4" y="534"/>
      <point x="0" y="524" type="curve"/>
      <point x="81" y="541"/>
      <point x="219" y="556"/>
    </contour>
    <contour>
      <point x="412" y="-71" type="move" name="blwm"/>
    </contour>
    <contour>
      <point x="264" y="-71" type="move" name="haln"/>
    </contour>
    <contour>
      <point x="440" y="690" type="move" name="reph"/>
    </contour>
    <contour>
      <point x="440" y="690" type="move" name="chandrabindu"/>
    </contour>
  </outline>
</glyph>
<glyph name="bn_bha.half" format="1">
  <advance width="614"/>
  <outline>
    <contour>
      <point x="75" y="538"/>
      <point x="180" y="551"/>
      <point x="306" y="551" type="curve" smooth="yes"/>
      <point x="431" y="551"/>
      <point x="538" y="538"/>
      <point x="614" y="524" type="curve"/>
      <point x="618" y="534"/>
      <point x="621" y="550"/>
      <point x="621" y="565" type="curve" smooth="yes"/>
      <point x="621" y="579"/>
      <point x="619" y="593"/>
      <point x="614" y="601" type="curve"/>
      <point x="539" y="618"/>
      <point x="432" y="632"/>
      <point x="306" y="632" type="curve" smooth="yes"/>
      <point x="178" y="632"/>
      <point x="73" y="618"/>
      <point x="0" y="601" type="curve"/>
      <point x="-4" y="593"/>
      <point x="-7" y="580"/>
      <point x="-7" y="566" type="curve" smooth="yes"/>
      <point x="-7" y="550"/>
      <point x="-4" y="533"/>
      <point x="0" y="524" type="curve"/>
    </contour>
    <contour>
      <point x="512" y="139"/>
      <point x="591" y="207"/>
      <point x="591" y="310" type="curve" smooth="yes"/>
      <point x="591" y="352"/>
      <point x="577" y="398"/>
      <point x="557" y="433" type="curve"/>
      <point x="539" y="446"/>
      <point x="515" y="460"/>
      <point x="497" y="469" type="curve"/>
      <point x="429" y="422"/>
      <point x="376" y="391"/>
      <point x="328" y="391" type="curve" smooth="yes"/>
      <point x="298" y="391"/>
      <point x="278" y="402"/>
      <point x="278" y="421" type="curve" smooth="yes"/>
      <point x="278" y="447"/>
      <point x="317" y="470"/>
      <point x="376" y="480" type="curve"/>
      <point x="364" y="502"/>
      <point x="333" y="519"/>
      <point x="305" y="525" type="curve"/>
      <point x="262" y="513"/>
      <point x="215" y="480"/>
      <point x="215" y="431" type="curve" smooth="yes"/>
      <point x="215" y="375"/>
      <point x="280" y="333"/>
      <point x="355" y="333" type="curve" smooth="yes"/>
      <point x="425" y="333"/>
      <point x="482" y="367"/>
      <point x="539" y="413" type="curve"/>
      <point x="497" y="432" type="line"/>
      <point x="512" y="404"/>
      <point x="523" y="366"/>
      <point x="523" y="329" type="curve" smooth="yes"/>
      <point x="523" y="255"/>
      <point x="473" y="215"/>
      <point x="383" y="215" type="curve" smooth="yes"/>
      <point x="253" y="215"/>
      <point x="155" y="301"/>
      <point x="81" y="493" type="curve"/>
      <point x="58" y="487"/>
      <point x="36" y="479"/>
      <point x="15" y="470" type="curve"/>
      <point x="69" y="317"/>
      <point x="167" y="139"/>
      <point x="381" y="139" type="curve" smooth="yes"/>
    </contour>
  </outline>
</glyph>
<glyph name="bn_c_ch_ba" format="1">
  <advance width="799"/>
  <outline>
    <contour>
      <point x="301" y="54"/>
      <point x="397" y="188"/>
      <point x="397" y="323" type="curve" smooth="yes"/>
      <point x="397" y="379"/>
      <point x="369" y="407"/>
      <point x="318" y="429" type="curve" smooth="yes"/>
      <point x="256" y="456"/>
      <point x="193" y="496"/>
      <point x="174" y="578" type="curve"/>
      <point x="153" y="524" type="line"/>
      <point x="165" y="458"/>
      <point x="212" y="412"/>
      <point x="260" y="386" type="curve" smooth="yes"/>
      <point x="293" y="370"/>
      <point x="308" y="359"/>
      <point x="308" y="330" type="curve" smooth="yes"/>
      <point x="308" y="230"/>
      <point x="240" y="110"/>
      <point x="175" y="110" type="curve" smooth="yes"/>
      <point x="146" y="110"/>
      <point x="131" y="129"/>
      <point x="131" y="184" type="curve" smooth="yes"/>
      <point x="131" y="280"/>
      <point x="157" y="482"/>
      <point x="186" y="596" type="curve"/>
      <point x="105" y="608" type="line"/>
      <point x="88" y="532"/>
      <point x="57" y="325"/>
      <point x="57" y="214" type="curve" smooth="yes"/>
      <point x="57" y="93"/>
      <point x="124" y="54"/>
      <point x="186" y="54" type="curve" smooth="yes"/>
    </contour>
    <contour>
      <point x="91" y="542"/>
      <point x="246" y="562"/>
      <point x="442" y="562" type="curve" smooth="yes"/>
      <point x="598" y="562"/>
      <point x="721" y="539"/>
      <point x="799" y="524" type="curve"/>
      <point x="802" y="533"/>
      <point x="805" y="550"/>
      <point x="805" y="566" type="curve" smooth="yes"/>
      <point x="805" y="580"/>
      <point x="803" y="594"/>
      <point x="799" y="601" type="curve"/>
      <point x="726" y="618"/>
      <point x="600" y="643"/>
      <point x="441" y="643" type="curve" smooth="yes"/>
      <point x="245" y="643"/>
      <point x="90" y="623"/>
      <point x="0" y="601" type="curve"/>
      <point x="-4" y="594"/>
      <point x="-7" y="581"/>
      <point x="-7" y="566" type="curve" smooth="yes"/>
      <point x="-7" y="550"/>
      <point x="-4" y="534"/>
      <point x="0" y="524" type="curve"/>
    </contour>
    <contour>
      <point x="794" y="-133"/>
      <point x="813" y="-114"/>
      <point x="827" y="-94" type="curve"/>
      <point x="725" y="-1"/>
      <point x="630" y="77"/>
      <point x="529" y="130" type="curve"/>
      <point x="554" y="86" type="line"/>
      <point x="679" y="86"/>
      <point x="777" y="141"/>
      <point x="777" y="259" type="curve" smooth="yes"/>
      <point x="777" y="352"/>
      <point x="719" y="429"/>
      <point x="653" y="473" type="curve"/>
      <point x="570" y="488"/>
      <point x="494" y="518"/>
      <point x="460" y="585" type="curve"/>
      <point x="453" y="536" type="line"/>
      <point x="476" y="479"/>
      <point x="521" y="439"/>
      <point x="590" y="426" type="curve"/>
      <point x="576" y="445" type="line"/>
      <point x="580" y="436"/>
      <point x="581" y="429"/>
      <point x="581" y="419" type="curve" smooth="yes"/>
      <point x="581" y="352"/>
      <point x="533" y="293"/>
      <point x="488" y="293" type="curve" smooth="yes"/>
      <point x="469" y="293"/>
      <point x="461" y="303"/>
      <point x="461" y="325" type="curve" smooth="yes"/>
      <point x="461" y="402"/>
      <point x="469" y="509"/>
      <point x="480" y="576" type="curve"/>
      <point x="397" y="583" type="line"/>
      <point x="387" y="512"/>
      <point x="379" y="419"/>
      <point x="379" y="342" type="curve" smooth="yes"/>
      <point x="379" y="277"/>
      <point x="436" y="238"/>
      <point x="493" y="238" type="curve" smooth="yes"/>
      <point x="588" y="238"/>
      <point x="661" y="327"/>
      <point x="661" y="430" type="curve"/>
      <point x="631" y="410" type="line"/>
      <point x="670" y="382"/>
      <point x="697" y="339"/>
      <point x="697" y="287" type="curve" smooth="yes"/>
      <point x="697" y="210"/>
      <point x="639" y="170"/>
      <point x="560" y="170" type="curve" smooth="yes"/>
      <point x="520" y="170"/>
      <point x="473" y="179"/>
      <point x="419" y="197" type="curve"/>
      <point x="434" y="100" type="line"/>
      <point x="555" y="48"/>
      <point x="664" y="-34"/>
      <point x="774" y="-149" type="curve"/>
    </contour>
    <contour>
      <point x="616" y="-207" type="line"/>
      <point x="582" y="-143"/>
      <point x="491" y="-107"/>
      <point x="409" y="-75" type="curve"/>
      <point x="404" y="-108" type="line"/>
      <point x="465" y="-67"/>
      <point x="572" y="-30"/>
      <point x="643" y="-16" type="curve"/>
      <point x="576" y="44" type="line"/>
      <point x="480" y="17"/>
      <point x="395" y="-14"/>
      <point x="344" y="-51" type="curve"/>
      <point x="343" y="-82"/>
      <point x="351" y="-110"/>
      <point x="372" y="-138" type="curve"/>
      <point x="460" y="-153"/>
      <point x="550" y="-178"/>
      <point x="596" y="-242" type="curve"/>
    </contour>
    <contour>
      <point x="625" y="-244"/>
      <point x="662" y="-242"/>
      <point x="686" y="-230" type="curve"/>
      <point x="674" y="-198"/>
      <point x="670" y="-154"/>
      <point x="670" y="-107" type="curve" smooth="yes"/>
      <point x="670" y="-74"/>
      <point x="677" y="-27"/>
      <point x="684" y="7" type="curve"/>
      <point x="622" y="25" type="line"/>
      <point x="606" y="-35"/>
      <point x="590" y="-116"/>
      <point x="590" y="-177" type="curve" smooth="yes"/>
      <point x="590" y="-208"/>
      <point x="593" y="-228"/>
      <point x="596" y="-242" type="curve"/>
    </contour>
    <contour>
      <point x="626" y="-229" type="move" name="blwm"/>
    </contour>
    <contour>
      <point x="517" y="-229" type="move" name="haln"/>
    </contour>
    <contour>
      <point x="664" y="690" type="move" name="reph"/>
    </contour>
    <contour>
      <point x="664" y="690" type="move" name="chandrabindu"/>
    </contour>
  </outline>
</glyph>
<glyph name="bn_ch_ba" format="1">
  <advance width="508"/>
  <outline>
    <contour>
      <point x="56" y="539"/>
      <point x="165" y="552"/>
      <point x="260" y="552" type="curve" smooth="yes"/>
      <point x="354" y="552"/>
      <point x="458" y="539"/>
      <point x="508" y="524" type="curve"/>
      <point x="511" y="534"/>
      <point x="513" y="550"/>
      <point x="513" y="567" type="curve" smooth="yes"/>
      <point x="513" y="579"/>
      <point x="512" y="592"/>
      <point x="508" y="601" type="curve"/>
      <point x="463" y="619"/>
      <point x="355" y="633"/>
      <point x="261" y="633" type="curve" smooth="yes"/>
      <point x="168" y="633"/>
      <point x="53" y="619"/>
      <point x="0" y="601" type="curve"/>
      <point x="-4" y="592"/>
      <point x="-6" y="580"/>
      <point x="-6" y="566" type="curve" smooth="yes"/>
      <point x="-6" y="551"/>
      <point x="-3" y="535"/>
      <point x="0" y="524" type="curve"/>
    </contour>
    <contour>
      <point x="478" y="-133"/>
      <point x="497" y="-114"/>
      <point x="511" y="-94" type="curve"/>
      <point x="409" y="-1"/>
      <point x="314" y="77"/>
      <point x="213" y="130" type="curve"/>
      <point x="238" y="86" type="line"/>
      <point x="363" y="86"/>
      <point x="461" y="141"/>
      <point x="461" y="259" type="curve" smooth="yes"/>
      <point x="461" y="352"/>
      <point x="402" y="429"/>
      <point x="337" y="473" type="curve"/>
      <point x="254" y="488"/>
      <point x="178" y="518"/>
      <point x="144" y="585" type="curve"/>
      <point x="137" y="536" type="line"/>
      <point x="159" y="479"/>
      <point x="205" y="439"/>
      <point x="274" y="426" type="curve"/>
      <point x="260" y="445" type="line"/>
      <point x="264" y="436"/>
      <point x="265" y="429"/>
      <point x="265" y="419" type="curve" smooth="yes"/>
      <point x="265" y="352"/>
      <point x="217" y="293"/>
      <point x="172" y="293" type="curve" smooth="yes"/>
      <point x="153" y="293"/>
      <point x="145" y="303"/>
      <point x="145" y="325" type="curve" smooth="yes"/>
      <point x="145" y="402"/>
      <point x="153" y="509"/>
      <point x="164" y="576" type="curve"/>
      <point x="81" y="583" type="line"/>
      <point x="71" y="512"/>
      <point x="63" y="419"/>
      <point x="63" y="342" type="curve" smooth="yes"/>
      <point x="63" y="277"/>
      <point x="120" y="238"/>
      <point x="177" y="238" type="curve" smooth="yes"/>
      <point x="272" y="238"/>
      <point x="345" y="327"/>
      <point x="345" y="430" type="curve"/>
      <point x="315" y="410" type="line"/>
      <point x="354" y="382"/>
      <point x="381" y="339"/>
      <point x="381" y="287" type="curve" smooth="yes"/>
      <point x="381" y="210"/>
      <point x="323" y="170"/>
      <point x="244" y="170" type="curve" smooth="yes"/>
      <point x="204" y="170"/>
      <point x="157" y="179"/>
      <point x="103" y="197" type="curve"/>
      <point x="118" y="100" type="line"/>
      <point x="238" y="48"/>
      <point x="348" y="-34"/>
      <point x="458" y="-149" type="curve"/>
    </contour>
    <contour>
      <point x="300" y="-207" type="line"/>
      <point x="266" y="-143"/>
      <point x="175" y="-107"/>
      <point x="93" y="-75" type="curve"/>
      <point x="87" y="-108" type="line"/>
      <point x="149" y="-67"/>
      <point x="256" y="-30"/>
      <point x="327" y="-16" type="curve"/>
      <point x="260" y="44" type="line"/>
      <point x="164" y="17"/>
      <point x="78" y="-14"/>
      <point x="28" y="-51" type="curve"/>
      <point x="27" y="-82"/>
      <point x="34" y="-110"/>
      <point x="56" y="-138" type="curve"/>
      <point x="144" y="-153"/>
      <point x="234" y="-178"/>
      <point x="280" y="-242" type="curve"/>
    </contour>
    <contour>
      <point x="309" y="-244"/>
      <point x="346" y="-242"/>
      <point x="370" y="-230" type="curve"/>
      <point x="358" y="-198"/>
      <point x="354" y="-154"/>
      <point x="354" y="-107" type="curve" smooth="yes"/>
      <point x="354" y="-74"/>
      <point x="361" y="-27"/>
      <point x="368" y="7" type="curve"/>
      <point x="306" y="25" type="line"/>
      <point x="290" y="-35"/>
      <point x="274" y="-116"/>
      <point x="274" y="-177" type="curve" smooth="yes"/>
      <point x="274" y="-208"/>
      <point x="277" y="-228"/>
      <point x="280" y="-242" type="curve"/>
    </contour>
    <contour>
      <point x="312" y="-228" type="move" name="blwm"/>
    </contour>
    <contour>
      <point x="200" y="-228" type="move" name="haln"/>
    </contour>
    <contour>
      <point x="310" y="690" type="move" name="reph"/>
    </contour>
    <contour>
      <point x="310" y="690" type="move" name="chandrabindu"/>
    </contour>
  </outline>
</glyph>
<glyph name="bn_ch_ra" format="1">
  <advance width="508"/>
  <outline>
    <contour>
      <point x="477" y="-133"/>
      <point x="496" y="-114"/>
      <point x="510" y="-94" type="curve"/>
      <point x="408" y="-1"/>
      <point x="313" y="77"/>
      <point x="212" y="130" type="curve"/>
      <point x="237" y="86" type="line"/>
      <point x="362" y="86"/>
      <point x="460" y="141"/>
      <point x="460" y="259" type="curve" smooth="yes"/>
      <point x="460" y="352"/>
      <point x="401" y="429"/>
      <point x="336" y="473" type="curve"/>
      <point x="253" y="488"/>
      <point x="177" y="518"/>
      <point x="143" y="585" type="curve"/>
      <point x="136" y="536" type="line"/>
      <point x="158" y="479"/>
      <point x="204" y="439"/>
      <point x="273" y="426" type="curve"/>
      <point x="259" y="445" type="line"/>
      <point x="263" y="436"/>
      <point x="264" y="429"/>
      <point x="264" y="419" type="curve" smooth="yes"/>
      <point x="264" y="352"/>
      <point x="216" y="293"/>
      <point x="171" y="293" type="curve" smooth="yes"/>
      <point x="152" y="293"/>
      <point x="144" y="303"/>
      <point x="144" y="325" type="curve" smooth="yes"/>
      <point x="144" y="402"/>
      <point x="152" y="509"/>
      <point x="163" y="576" type="curve"/>
      <point x="80" y="583" type="line"/>
      <point x="70" y="512"/>
      <point x="62" y="419"/>
      <point x="62" y="342" type="curve" smooth="yes"/>
      <point x="62" y="277"/>
      <point x="119" y="238"/>
      <point x="176" y="238" type="curve" smooth="yes"/>
      <point x="271" y="238"/>
      <point x="344" y="327"/>
      <point x="344" y="430" type="curve"/>
      <point x="314" y="410" type="line"/>
      <point x="353" y="382"/>
      <point x="380" y="339"/>
      <point x="380" y="287" type="curve" smooth="yes"/>
      <point x="380" y="210"/>
      <point x="322" y="170"/>
      <point x="243" y="170" type="curve" smooth="yes"/>
      <point x="203" y="170"/>
      <point x="156" y="179"/>
      <point x="102" y="197" type="curve"/>
      <point x="117" y="100" type="line"/>
      <point x="237" y="48"/>
      <point x="347" y="-34"/>
      <point x="457" y="-149" type="curve"/>
    </contour>
    <contour>
      <point x="362" y="-229" type="curve"/>
      <point x="359" y="-164"/>
      <point x="358" y="-80"/>
      <point x="367" y="9" type="curve"/>
      <point x="298" y="8" type="line"/>
      <point x="286" y="-80"/>
      <point x="277" y="-177"/>
      <point x="280" y="-242" type="curve"/>
      <point x="306" y="-243"/>
      <point x="337" y="-240"/>
    </contour>
    <contour>
      <point x="298" y="-208" type="line"/>
      <point x="270" y="-118"/>
      <point x="239" y="-89"/>
      <point x="188" y="-89" type="curve" smooth="yes"/>
      <point x="155" y="-89"/>
      <point x="121" y="-97"/>
      <point x="95" y="-97" type="curve" smooth="yes"/>
      <point x="66" y="-97"/>
      <point x="44" y="-81"/>
      <point x="44" y="-48" type="curve" smooth="yes"/>
      <point x="44" y="-27"/>
      <point x="52" y="-3"/>
      <point x="60" y="14" type="curve"/>
      <point x="45" y="23"/>
      <point x="24" y="30"/>
      <point x="0" y="30" type="curve"/>
      <point x="-14" y="1"/>
      <point x="-27" y="-33"/>
      <point x="-27" y="-69" type="curve" smooth="yes"/>
      <point x="-27" y="-133"/>
      <point x="16" y="-178"/>
      <point x="92" y="-178" type="curve" smooth="yes"/>
      <point x="127" y="-178"/>
      <point x="166" y="-171"/>
      <point x="200" y="-171" type="curve" smooth="yes"/>
      <point x="247" y="-171"/>
      <point x="260" y="-212"/>
      <point x="280" y="-242" type="curve"/>
    </contour>
    <contour>
      <point x="56" y="539"/>
      <point x="165" y="552"/>
      <point x="260" y="552" type="curve" smooth="yes"/>
      <point x="354" y="552"/>
      <point x="458" y="539"/>
      <point x="508" y="524" type="curve"/>
      <point x="511" y="534"/>
      <point x="513" y="550"/>
      <point x="513" y="567" type="curve" smooth="yes"/>
      <point x="513" y="579"/>
      <point x="512" y="592"/>
      <point x="508" y="601" type="curve"/>
      <point x="463" y="619"/>
      <point x="355" y="633"/>
      <point x="261" y="633" type="curve" smooth="yes"/>
      <point x="168" y="633"/>
      <point x="53" y="619"/>
      <point x="0" y="601" type="curve"/>
      <point x="-4" y="592"/>
      <point x="-6" y="580"/>
      <point x="-6" y="566" type="curve" smooth="yes"/>
      <point x="-6" y="551"/>
      <point x="-3" y="535"/>
      <point x="0" y="524" type="curve"/>
    </contour>
    <contour>
      <point x="311" y="690" type="move" name="reph"/>
    </contour>
    <contour>
      <point x="311" y="690" type="move" name="chandrabindu"/>
    </contour>
    <contour>
      <point x="212" y="-223" type="move" name="haln"/>
    </contour>
    <contour>
      <point x="305" y="-225" type="move" name="blwm"/>
    </contour>
  </outline>
</glyph>
<glyph name="bn_cha.half" format="1">
  <advance width="508"/>
  <outline>
    <contour>
      <point x="478" y="58"/>
      <point x="497" y="71"/>
      <point x="511" y="85" type="curve"/>
      <point x="409" y="153"/>
      <point x="313" y="207"/>
      <point x="211" y="245" type="curve"/>
      <point x="247" y="212" type="line"/>
      <point x="367" y="212"/>
      <point x="461" y="253"/>
      <point x="461" y="341" type="curve" smooth="yes"/>
      <point x="461" y="407"/>
      <point x="402" y="463"/>
      <point x="337" y="495" type="curve"/>
      <point x="254" y="505"/>
      <point x="173" y="522"/>
      <point x="142" y="566" type="curve"/>
      <point x="135" y="531" type="line"/>
      <point x="156" y="493"/>
      <point x="203" y="466"/>
      <point x="272" y="456" type="curve"/>
      <point x="253" y="475" type="line"/>
      <point x="257" y="468"/>
      <point x="258" y="463"/>
      <point x="258" y="456" type="curve" smooth="yes"/>
      <point x="258" y="408"/>
      <point x="214" y="365"/>
      <point x="172" y="365" type="curve" smooth="yes"/>
      <point x="153" y="365"/>
      <point x="145" y="372"/>
      <point x="145" y="388" type="curve" smooth="yes"/>
      <point x="145" y="440"/>
      <point x="151" y="514"/>
      <point x="162" y="560" type="curve"/>
      <point x="79" y="565" type="line"/>
      <point x="69" y="516"/>
      <point x="63" y="453"/>
      <point x="63" y="399" type="curve" smooth="yes"/>
      <point x="63" y="350"/>
      <point x="120" y="322"/>
      <point x="176" y="322" type="curve" smooth="yes"/>
      <point x="272" y="322"/>
      <point x="345" y="387"/>
      <point x="345" y="464" type="curve"/>
      <point x="313" y="446" type="line"/>
      <point x="353" y="425"/>
      <point x="381" y="396"/>
      <point x="381" y="360" type="curve" smooth="yes"/>
      <point x="381" y="305"/>
      <point x="323" y="276"/>
      <point x="244" y="276" type="curve" smooth="yes"/>
      <point x="204" y="276"/>
      <point x="157" y="281"/>
      <point x="103" y="295" type="curve"/>
      <point x="120" y="219" type="line"/>
      <point x="240" y="181"/>
      <point x="350" y="127"/>
      <point x="458" y="46" type="curve"/>
    </contour>
    <contour>
      <point x="56" y="539"/>
      <point x="165" y="552"/>
      <point x="260" y="552" type="curve" smooth="yes"/>
      <point x="354" y="552"/>
      <point x="458" y="539"/>
      <point x="508" y="524" type="curve"/>
      <point x="511" y="534"/>
      <point x="513" y="550"/>
      <point x="513" y="567" type="curve" smooth="yes"/>
      <point x="513" y="579"/>
      <point x="512" y="592"/>
      <point x="508" y="601" type="curve"/>
      <point x="463" y="619"/>
      <point x="355" y="633"/>
      <point x="261" y="633" type="curve" smooth="yes"/>
      <point x="168" y="633"/>
      <point x="53" y="619"/>
      <point x="0" y="601" type="curve"/>
      <point x="-4" y="592"/>
      <point x="-6" y="580"/>
      <point x="-6" y="566" type="curve" smooth="yes"/>
      <point x="-6" y="551"/>
      <point x="-3" y="535"/>
      <point x="0" y="524" type="curve"/>
    </contour>
  </outline>
</glyph>
<glyph name="bn_d_bh_ra" format="1">
  <advance width="614"/>
  <outline>
    <contour>
      <point x="497" y="38" type="curve"/>
      <point x="486" y="87"/>
      <point x="484" y="135"/>
      <point x="484" y="179" type="curve" smooth="yes"/>
      <point x="484" y="270"/>
      <point x="507" y="350"/>
      <point x="534" y="431" type="curve"/>
      <point x="511" y="461"/>
      <point x="488" y="482"/>
      <point x="454" y="495" type="curve"/>
      <point x="368" y="445"/>
      <point x="284" y="361"/>
      <point x="203" y="243" type="curve"/>
      <point x="254" y="254" type="line"/>
      <point x="274" y="332"/>
      <point x="276" y="437"/>
      <point x="276" y="520" type="curve" smooth="yes"/>
      <point x="276" y="538"/>
      <point x="276" y="556"/>
      <point x="275" y="572" type="curve"/>
      <point x="212" y="564" type="line"/>
      <point x="210" y="459"/>
      <point x="203" y="331"/>
      <point x="169" y="224" type="curve"/>
      <point x="189" y="209"/>
      <point x="230" y="195"/>
      <point x="260" y="191" type="curve"/>
      <point x="311" y="274"/>
      <point x="403" y="366"/>
      <point x="492" y="419" type="curve"/>
      <point x="460" y="427" type="line"/>
      <point x="434" y="355"/>
      <point x="416" y="262"/>
      <point x="416" y="165" type="curve" smooth="yes"/>
      <point x="416" y="116"/>
      <point x="422" y="64"/>
      <point x="433" y="17" type="curve"/>
      <point x="453" y="20"/>
      <point x="479" y="29"/>
    </contour>
    <contour>
      <point x="306" y="551" type="curve" smooth="yes"/>
      <point x="431" y="551"/>
      <point x="538" y="538"/>
      <point x="614" y="524" type="curve"/>
      <point x="618" y="534"/>
      <point x="621" y="550"/>
      <point x="621" y="565" type="curve" smooth="yes"/>
      <point x="621" y="579"/>
      <point x="619" y="593"/>
      <point x="614" y="601" type="curve"/>
      <point x="539" y="618"/>
      <point x="432" y="632"/>
      <point x="306" y="632" type="curve" smooth="yes"/>
      <point x="178" y="632"/>
      <point x="73" y="618"/>
      <point x="0" y="601" type="curve"/>
      <point x="-4" y="593"/>
      <point x="-7" y="580"/>
      <point x="-7" y="566" type="curve" smooth="yes"/>
      <point x="-7" y="550"/>
      <point x="-4" y="533"/>
      <point x="0" y="524" type="curve"/>
      <point x="75" y="538"/>
      <point x="180" y="551"/>
    </contour>
    <contour>
      <point x="517" y="-264" type="curve"/>
      <point x="540" y="-261"/>
      <point x="575" y="-252"/>
      <point x="594" y="-241" type="curve"/>
      <point x="578" y="-133"/>
      <point x="573" y="-20"/>
      <point x="550" y="67" type="curve"/>
      <point x="534" y="80"/>
      <point x="512" y="94"/>
      <point x="494" y="104" type="curve"/>
      <point x="427" y="52"/>
      <point x="375" y="18"/>
      <point x="327" y="18" type="curve" smooth="yes"/>
      <point x="296" y="18"/>
      <point x="275" y="31"/>
      <point x="275" y="53" type="curve" smooth="yes"/>
      <point x="275" y="82"/>
      <point x="309" y="111"/>
      <point x="362" y="121" type="curve"/>
      <point x="352" y="143"/>
      <point x="327" y="162"/>
      <point x="304" y="167" type="curve"/>
      <point x="259" y="154"/>
      <point x="209" y="119"/>
      <point x="209" y="65" type="curve" smooth="yes"/>
      <point x="209" y="1"/>
      <point x="277" y="-45"/>
      <point x="354" y="-45" type="curve" smooth="yes"/>
      <point x="422" y="-45"/>
      <point x="478" y="-7"/>
      <point x="535" y="42" type="curve"/>
      <point x="481" y="65" type="line"/>
      <point x="497" y="-59"/>
      <point x="503" y="-145"/>
    </contour>
    <contour>
      <point x="534" y="-228" type="line"/>
      <point x="503" y="-155"/>
      <point x="459" y="-119"/>
      <point x="389" y="-119" type="curve" smooth="yes"/>
      <point x="329" y="-119"/>
      <point x="242" y="-151"/>
      <point x="190" y="-151" type="curve" smooth="yes"/>
      <point x="155" y="-151"/>
      <point x="127" y="-131"/>
      <point x="127" y="-88" type="curve" smooth="yes"/>
      <point x="127" y="-61"/>
      <point x="138" y="-26"/>
      <point x="152" y="-1" type="curve"/>
      <point x="136" y="7"/>
      <point x="115" y="12"/>
      <point x="90" y="13" type="curve"/>
      <point x="73" y="-20"/>
      <point x="57" y="-64"/>
      <point x="57" y="-106" type="curve" smooth="yes"/>
      <point x="57" y="-177"/>
      <point x="106" y="-227"/>
      <point x="185" y="-227" type="curve" smooth="yes"/>
      <point x="257" y="-227"/>
      <point x="339" y="-195"/>
      <point x="401" y="-195" type="curve" smooth="yes"/>
      <point x="470" y="-195"/>
      <point x="493" y="-228"/>
      <point x="517" y="-264" type="curve"/>
    </contour>
    <contour>
      <point x="302" y="690" type="move" name="reph"/>
    </contour>
    <contour>
      <point x="302" y="690" type="move" name="chandrabindu"/>
    </contour>
    <contour>
      <point x="542" y="-239" type="move" name="blwm"/>
    </contour>
    <contour>
      <point x="395" y="-242" type="move" name="haln"/>
    </contour>
  </outline>
</glyph>
<glyph name="bn_ekaar.b" format="1">
  <advance width="282"/>
  <outline>
    <contour>
      <point x="269" y="-71"/>
      <point x="307" y="-47"/>
      <point x="335" y="-3" type="curve"/>
      <point x="335" y="22"/>
      <point x="307" y="65"/>
      <point x="279" y="81" type="curve"/>
      <point x="246" y="15"/>
      <point x="228" y="-7"/>
      <point x="207" y="-7" type="curve" smooth="yes"/>
      <point x="170" y="-7"/>
      <point x="152" y="68"/>
      <point x="152" y="225" type="curve" smooth="yes"/>
      <point x="152" y="428"/>
      <point x="186" y="505"/>
      <point x="282" y="524" type="curve"/>
      <point x="286" y="533"/>
      <point x="288" y="550"/>
      <point x="288" y="566" type="curve" smooth="yes"/>
      <point x="288" y="580"/>
      <point x="286" y="592"/>
      <point x="282" y="601" type="curve"/>
      <point x="209" y="585"/>
      <point x="163" y="562"/>
      <point x="139" y="530" type="curve"/>
      <point x="124" y="524" type="line"/>
      <point x="84" y="461"/>
      <point x="63" y="354"/>
      <point x="63" y="229" type="curve" smooth="yes"/>
      <point x="63" y="46"/>
      <point x="127" y="-71"/>
      <point x="225" y="-71" type="curve" smooth="yes"/>
    </contour>
    <contour>
      <point x="161" y="461" type="line"/>
      <point x="161" y="569"/>
      <point x="101" y="607"/>
      <point x="50" y="606" type="curve" smooth="yes"/>
      <point x="34" y="606"/>
      <point x="16" y="604"/>
      <point x="0" y="601" type="curve"/>
      <point x="-4" y="592"/>
      <point x="-6" y="578"/>
      <point x="-6" y="565" type="curve" smooth="yes"/>
      <point x="-6" y="549"/>
      <point x="-3" y="534"/>
      <point x="0" y="524" type="curve"/>
      <point x="17" y="527"/>
      <point x="29" y="529"/>
      <point x="40" y="529" type="curve" smooth="yes"/>
      <point x="78" y="529"/>
      <point x="101" y="491"/>
      <point x="101" y="420" type="curve"/>
    </contour>
  </outline>
</glyph>
<glyph name="bn_g_dha" format="1">
  <advance width="761"/>
  <outline>
    <contour>
      <point x="460" y="-110" type="line"/>
      <point x="420" y="-33"/>
      <point x="324" y="4"/>
      <point x="220" y="34" type="curve"/>
      <point x="215" y="0" type="line"/>
      <point x="287" y="50"/>
      <point x="386" y="99"/>
      <point x="477" y="129" type="curve"/>
      <point x="437" y="201" type="line"/>
      <point x="321" y="160"/>
      <point x="227" y="113"/>
      <point x="164" y="63" type="curve"/>
      <point x="159" y="30"/>
      <point x="165" y="2"/>
      <point x="183" y="-25" type="curve"/>
      <point x="291" y="-38"/>
      <point x="383" y="-66"/>
      <point x="440" y="-148" type="curve"/>
    </contour>
    <contour>
      <point x="719" y="-87" type="curve"/>
      <point x="693" y="-26"/>
      <point x="683" y="34"/>
      <point x="683" y="101" type="curve" smooth="yes"/>
      <point x="683" y="136"/>
      <point x="688" y="172"/>
      <point x="695" y="209" type="curve"/>
      <point x="652" y="274" type="line"/>
      <point x="600" y="258"/>
      <point x="547" y="242"/>
      <point x="495" y="219" type="curve"/>
      <point x="498" y="136" type="line"/>
      <point x="551" y="160"/>
      <point x="607" y="174"/>
      <point x="656" y="190" type="curve"/>
      <point x="626" y="212" type="line"/>
      <point x="619" y="167"/>
      <point x="614" y="123"/>
      <point x="614" y="80" type="curve" smooth="yes"/>
      <point x="614" y="15"/>
      <point x="621" y="-44"/>
      <point x="636" y="-101" type="curve"/>
      <point x="666" y="-101"/>
      <point x="699" y="-97"/>
    </contour>
    <contour>
      <point x="446" y="498" type="curve" smooth="yes"/>
      <point x="431" y="418"/>
      <point x="425" y="293"/>
      <point x="425" y="174" type="curve" smooth="yes"/>
      <point x="425" y="60"/>
      <point x="432" y="-88"/>
      <point x="440" y="-148" type="curve"/>
      <point x="472" y="-148"/>
      <point x="507" y="-139"/>
      <point x="533" y="-118" type="curve"/>
      <point x="515" y="-55"/>
      <point x="508" y="134"/>
      <point x="508" y="280" type="curve" smooth="yes"/>
      <point x="508" y="349"/>
      <point x="510" y="400"/>
      <point x="518" y="460" type="curve"/>
      <point x="520" y="480"/>
      <point x="531" y="493"/>
      <point x="559" y="496" type="curve" smooth="yes"/>
      <point x="593" y="500"/>
      <point x="624" y="499"/>
      <point x="650" y="501" type="curve" smooth="yes"/>
      <point x="686" y="504"/>
      <point x="718" y="515"/>
      <point x="761" y="524" type="curve"/>
      <point x="765" y="533"/>
      <point x="768" y="550"/>
      <point x="768" y="564" type="curve" smooth="yes"/>
      <point x="768" y="580"/>
      <point x="766" y="594"/>
      <point x="761" y="601" type="curve"/>
      <point x="719" y="592"/>
      <point x="671" y="574"/>
      <point x="637" y="571" type="curve" smooth="yes"/>
      <point x="605" y="568"/>
      <point x="578" y="569"/>
      <point x="537" y="564" type="curve" smooth="yes"/>
      <point x="492" y="560"/>
      <point x="455" y="544"/>
    </contour>
    <contour>
      <point x="429" y="323" type="curve"/>
      <point x="468" y="280" type="line"/>
      <point x="472" y="477"/>
      <point x="397" y="628"/>
      <point x="266" y="628" type="curve" smooth="yes"/>
      <point x="167" y="628"/>
      <point x="105" y="550"/>
      <point x="105" y="456" type="curve" smooth="yes"/>
      <point x="105" y="436"/>
      <point x="107" y="416"/>
      <point x="112" y="398" type="curve"/>
      <point x="145" y="350" type="line"/>
      <point x="188" y="381"/>
      <point x="235" y="399"/>
      <point x="270" y="399" type="curve" smooth="yes"/>
      <point x="294" y="399"/>
      <point x="307" y="388"/>
      <point x="307" y="366" type="curve" smooth="yes"/>
      <point x="307" y="337"/>
      <point x="253" y="298"/>
      <point x="169" y="241" type="curve"/>
      <point x="184" y="216"/>
      <point x="205" y="192"/>
      <point x="232" y="175" type="curve"/>
      <point x="289" y="219"/>
      <point x="364" y="292"/>
      <point x="364" y="350" type="curve" smooth="yes"/>
      <point x="364" y="415"/>
      <point x="317" y="468"/>
      <point x="257" y="468" type="curve" smooth="yes"/>
      <point x="216" y="468"/>
      <point x="171" y="448"/>
      <point x="136" y="419" type="curve"/>
      <point x="191" y="413" type="line"/>
      <point x="181" y="426"/>
      <point x="175" y="443"/>
      <point x="175" y="460" type="curve" smooth="yes"/>
      <point x="175" y="513"/>
      <point x="215" y="539"/>
      <point x="270" y="539" type="curve" smooth="yes"/>
      <point x="343" y="539"/>
      <point x="429" y="471"/>
    </contour>
    <contour>
      <point x="474" y="-121" type="move" name="blwm"/>
    </contour>
    <contour>
      <point x="347" y="-125" type="move" name="haln"/>
    </contour>
    <contour>
      <point x="488" y="690" type="move" name="reph"/>
    </contour>
    <contour>
      <point x="488" y="690" type="move" name="chandrabindu"/>
    </contour>
  </outline>
</glyph>
<glyph name="bn_g_la" format="1">
  <advance width="592"/>
  <outline>
    <contour>
      <point x="429" y="323" type="curve"/>
      <point x="468" y="280" type="line"/>
      <point x="472" y="477"/>
      <point x="397" y="628"/>
      <point x="266" y="628" type="curve" smooth="yes"/>
      <point x="167" y="628"/>
      <point x="105" y="550"/>
      <point x="105" y="456" type="curve" smooth="yes"/>
      <point x="105" y="436"/>
      <point x="107" y="416"/>
      <point x="112" y="398" type="curve"/>
      <point x="145" y="350" type="line"/>
      <point x="188" y="381"/>
      <point x="235" y="399"/>
      <point x="270" y="399" type="curve" smooth="yes"/>
      <point x="294" y="399"/>
      <point x="307" y="388"/>
      <point x="307" y="366" type="curve" smooth="yes"/>
      <point x="307" y="330"/>
      <point x="257" y="276"/>
      <point x="169" y="215" type="curve"/>
      <point x="184" y="190"/>
      <point x="205" y="166"/>
      <point x="232" y="149" type="curve"/>
      <point x="292" y="197"/>
      <point x="364" y="283"/>
      <point x="364" y="350" type="curve" smooth="yes"/>
      <point x="364" y="415"/>
      <point x="317" y="468"/>
      <point x="257" y="468" type="curve" smooth="yes"/>
      <point x="216" y="468"/>
      <point x="171" y="448"/>
      <point x="136" y="419" type="curve"/>
      <point x="191" y="413" type="line"/>
      <point x="181" y="426"/>
      <point x="175" y="443"/>
      <point x="175" y="460" type="curve" smooth="yes"/>
      <point x="175" y="513"/>
      <point x="215" y="539"/>
      <point x="270" y="539" type="curve" smooth="yes"/>
      <point x="342" y="539"/>
      <point x="429" y="471"/>
    </contour>
    <contour>
      <point x="440" y="-148" type="curve"/>
      <point x="472" y="-148"/>
      <point x="507" y="-138"/>
      <point x="533" y="-117" type="curve"/>
      <point x="515" y="-53"/>
      <point x="508" y="135"/>
      <point x="508" y="280" type="curve" smooth="yes"/>
      <point x="508" y="350"/>
      <point x="510" y="398"/>
      <point x="517" y="456" type="curve" smooth="yes"/>
      <point x="520" y="481"/>
      <point x="533" y="502"/>
      <point x="551" y="509" type="curve" smooth="yes"/>
      <point x="560" y="513"/>
      <point x="574" y="519"/>
      <point x="592" y="524" type="curve"/>
      <point x="596" y="533"/>
      <point x="599" y="551"/>
      <point x="599" y="566" type="curve" smooth="yes"/>
      <point x="599" y="581"/>
      <point x="596" y="594"/>
      <point x="592" y="601" type="curve"/>
      <point x="552" y="592"/>
      <point x="520" y="583"/>
      <point x="491" y="569" type="curve" smooth="yes"/>
      <point x="463" y="555"/>
      <point x="450" y="530"/>
      <point x="444" y="498" type="curve" smooth="yes"/>
      <point x="431" y="418"/>
      <point x="425" y="293"/>
      <point x="425" y="174" type="curve" smooth="yes"/>
      <point x="425" y="59"/>
      <point x="432" y="-88"/>
    </contour>
    <contour>
      <point x="244" y="-96" type="curve"/>
      <point x="230" y="-99"/>
      <point x="216" y="-101"/>
      <point x="202" y="-101" type="curve" smooth="yes"/>
      <point x="152" y="-101"/>
      <point x="110" y="-73"/>
      <point x="110" y="-26" type="curve" smooth="yes"/>
      <point x="110" y="8"/>
      <point x="132" y="31"/>
      <point x="167" y="31" type="curve" smooth="yes"/>
      <point x="211" y="31"/>
      <point x="249" y="1"/>
      <point x="278" y="-46" type="curve"/>
      <point x="311" y="-4" type="line"/>
      <point x="278" y="69"/>
      <point x="226" y="115"/>
      <point x="166" y="115" type="curve" smooth="yes"/>
      <point x="101" y="115"/>
      <point x="55" y="60"/>
      <point x="55" y="-17" type="curve" smooth="yes"/>
      <point x="55" y="-115"/>
      <point x="128" y="-178"/>
      <point x="219" y="-180" type="curve"/>
      <point x="234" y="-158"/>
      <point x="244" y="-123"/>
    </contour>
    <contour>
      <point x="349" y="-44" type="curve"/>
      <point x="294" y="50" type="line"/>
      <point x="242" y="11" type="line"/>
      <point x="291" y="-66" type="line"/>
      <point x="316" y="-60"/>
      <point x="335" y="-52"/>
    </contour>
    <contour>
      <point x="446" y="-38" type="line"/>
      <point x="439" y="50"/>
      <point x="395" y="116"/>
      <point x="346" y="116" type="curve" smooth="yes"/>
      <point x="309" y="116"/>
      <point x="279" y="81"/>
      <point x="274" y="20" type="curve"/>
      <point x="289" y="-27" type="line"/>
      <point x="343" y="-32" type="line"/>
      <point x="333" y="-15"/>
      <point x="328" y="-7"/>
      <point x="328" y="3" type="curve" smooth="yes"/>
      <point x="328" y="23"/>
      <point x="340" y="38"/>
      <point x="359" y="38" type="curve" smooth="yes"/>
      <point x="392" y="38"/>
      <point x="426" y="-24"/>
      <point x="440" y="-148" type="curve"/>
    </contour>
    <contour>
      <point x="473" y="-122" type="move" name="blwm"/>
    </contour>
    <contour>
      <point x="353" y="-124" type="move" name="haln"/>
    </contour>
    <contour>
      <point x="500" y="690" type="move" name="reph"/>
    </contour>
    <contour>
      <point x="500" y="690" type="move" name="chandrabindu"/>
    </contour>
  </outline>
</glyph>
<glyph name="bn_g_ma" format="1">
  <advance width="892"/>
  <outline>
    <contour>
      <point x="736" y="-201" type="curve"/>
      <point x="703" y="-67"/>
      <point x="675" y="135"/>
      <point x="675" y="286" type="curve" smooth="yes"/>
      <point x="675" y="417"/>
      <point x="678" y="471"/>
      <point x="688" y="560" type="curve"/>
      <point x="620" y="574" type="line"/>
      <point x="600" y="463"/>
      <point x="593" y="320"/>
      <point x="593" y="194" type="curve" smooth="yes"/>
      <point x="593" y="-47"/>
      <point x="629" y="-146"/>
      <point x="646" y="-224" type="curve"/>
      <point x="678" y="-224"/>
      <point x="712" y="-216"/>
    </contour>
    <contour>
      <point x="439" y="9" type="curve"/>
      <point x="355" y="60" type="line"/>
      <point x="352" y="1"/>
      <point x="333" y="-26"/>
      <point x="294" y="-26" type="curve" smooth="yes"/>
      <point x="262" y="-26"/>
      <point x="245" y="-8"/>
      <point x="245" y="19" type="curve" smooth="yes"/>
      <point x="245" y="45"/>
      <point x="263" y="66"/>
      <point x="289" y="66" type="curve" smooth="yes"/>
      <point x="321" y="66"/>
      <point x="349" y="45"/>
      <point x="363" y="2" type="curve"/>
      <point x="419" y="35" type="line"/>
      <point x="398" y="89"/>
      <point x="340" y="120"/>
      <point x="291" y="120" type="curve" smooth="yes"/>
      <point x="233" y="120"/>
      <point x="188" y="76"/>
      <point x="188" y="9" type="curve" smooth="yes"/>
      <point x="188" y="-62"/>
      <point x="244" y="-113"/>
      <point x="310" y="-113" type="curve" smooth="yes"/>
      <point x="375" y="-113"/>
      <point x="428" y="-57"/>
    </contour>
    <contour>
      <point x="665" y="-192" type="line"/>
      <point x="637" y="-80"/>
      <point x="463" y="20"/>
      <point x="396" y="53" type="curve"/>
      <point x="356" y="-5" type="line"/>
      <point x="470" y="-61"/>
      <point x="589" y="-111"/>
      <point x="647" y="-223" type="curve"/>
    </contour>
    <contour>
      <point x="351" y="323" type="curve"/>
      <point x="390" y="280" type="line"/>
      <point x="394" y="477"/>
      <point x="319" y="628"/>
      <point x="188" y="628" type="curve" smooth="yes"/>
      <point x="89" y="628"/>
      <point x="27" y="550"/>
      <point x="27" y="456" type="curve" smooth="yes"/>
      <point x="27" y="436"/>
      <point x="29" y="416"/>
      <point x="34" y="398" type="curve"/>
      <point x="67" y="350" type="line"/>
      <point x="110" y="381"/>
      <point x="157" y="399"/>
      <point x="192" y="399" type="curve" smooth="yes"/>
      <point x="216" y="399"/>
      <point x="229" y="388"/>
      <point x="229" y="366" type="curve" smooth="yes"/>
      <point x="229" y="330"/>
      <point x="179" y="276"/>
      <point x="91" y="215" type="curve"/>
      <point x="106" y="190"/>
      <point x="126" y="166"/>
      <point x="154" y="149" type="curve"/>
      <point x="214" y="197"/>
      <point x="286" y="283"/>
      <point x="286" y="350" type="curve" smooth="yes"/>
      <point x="286" y="415"/>
      <point x="239" y="468"/>
      <point x="179" y="468" type="curve" smooth="yes"/>
      <point x="138" y="468"/>
      <point x="93" y="448"/>
      <point x="58" y="419" type="curve"/>
      <point x="113" y="413" type="line"/>
      <point x="103" y="426"/>
      <point x="97" y="443"/>
      <point x="97" y="460" type="curve" smooth="yes"/>
      <point x="97" y="513"/>
      <point x="137" y="539"/>
      <point x="192" y="539" type="curve" smooth="yes"/>
      <point x="265" y="539"/>
      <point x="351" y="471"/>
    </contour>
    <contour>
      <point x="622" y="555" type="curve" smooth="yes"/>
      <point x="725" y="556"/>
      <point x="825" y="537"/>
      <point x="892" y="524" type="curve"/>
      <point x="896" y="534"/>
      <point x="899" y="549"/>
      <point x="899" y="567" type="curve" smooth="yes"/>
      <point x="899" y="580"/>
      <point x="897" y="592"/>
      <point x="892" y="601" type="curve"/>
      <point x="833" y="617"/>
      <point x="735" y="637"/>
      <point x="626" y="636" type="curve" smooth="yes"/>
      <point x="476" y="634"/>
      <point x="380" y="588"/>
      <point x="366" y="505" type="curve" smooth="yes"/>
      <point x="353" y="423"/>
      <point x="347" y="296"/>
      <point x="347" y="174" type="curve" smooth="yes"/>
      <point x="347" y="110"/>
      <point x="348" y="54"/>
      <point x="352" y="21" type="curve"/>
      <point x="449" y="-6" type="line"/>
      <point x="436" y="38"/>
      <point x="430" y="176"/>
      <point x="430" y="280" type="curve" smooth="yes"/>
      <point x="430" y="352"/>
      <point x="431" y="402"/>
      <point x="439" y="463" type="curve" smooth="yes"/>
      <point x="446" y="521"/>
      <point x="477" y="553"/>
    </contour>
    <contour>
      <point x="678" y="-201" type="move" name="blwm"/>
    </contour>
    <contour>
      <point x="531" y="-203" type="move" name="haln"/>
    </contour>
    <contour>
      <point x="600" y="690" type="move" name="reph"/>
    </contour>
    <contour>
      <point x="599" y="690" type="move" name="chandrabindu"/>
    </contour>
  </outline>
</glyph>
<glyph name="bn_gha.half" format="1">
  <advance width="501"/>
  <outline>
    <contour>
      <point x="376" y="170" type="line"/>
      <point x="323" y="259"/>
      <point x="227" y="311"/>
      <point x="128" y="337" type="curve"/>
      <point x="134" y="301" type="line"/>
      <point x="292" y="389" type="line"/>
      <point x="289" y="412"/>
      <point x="277" y="438"/>
      <point x="260" y="455" type="curve"/>
      <point x="227" y="435"/>
      <point x="198" y="428"/>
      <point x="177" y="428" type="curve" smooth="yes"/>
      <point x="144" y="428"/>
      <point x="118" y="443"/>
      <point x="118" y="467" type="curve" smooth="yes"/>
      <point x="118" y="495"/>
      <point x="147" y="528"/>
      <point x="236" y="553" type="curve"/>
      <point x="112" y="566" type="line"/>
      <point x="62" y="542"/>
      <point x="40" y="512"/>
      <point x="40" y="476" type="curve" smooth="yes"/>
      <point x="40" y="423"/>
      <point x="99" y="396"/>
      <point x="169" y="394" type="curve" smooth="yes"/>
      <point x="221" y="393"/>
      <point x="246" y="406"/>
      <point x="257" y="413" type="curve"/>
      <point x="188" y="419" type="line"/>
      <point x="64" y="348" type="line"/>
      <point x="64" y="327"/>
      <point x="76" y="304"/>
      <point x="106" y="285" type="curve"/>
      <point x="205" y="270"/>
      <point x="288" y="225"/>
      <point x="354" y="141" type="curve"/>
    </contour>
    <contour>
      <point x="445" y="152" type="curve"/>
      <point x="426" y="208"/>
      <point x="422" y="297"/>
      <point x="422" y="363" type="curve" smooth="yes"/>
      <point x="422" y="438"/>
      <point x="426" y="487"/>
      <point x="439" y="550" type="curve"/>
      <point x="364" y="562" type="line"/>
      <point x="346" y="465"/>
      <point x="340" y="386"/>
      <point x="340" y="286" type="curve" smooth="yes"/>
      <point x="340" y="211"/>
      <point x="345" y="175"/>
      <point x="354" y="141" type="curve"/>
      <point x="384" y="141"/>
      <point x="421" y="144"/>
    </contour>
    <contour>
      <point x="256" y="551" type="curve" smooth="yes"/>
      <point x="355" y="551"/>
      <point x="441" y="538"/>
      <point x="501" y="524" type="curve"/>
      <point x="504" y="534"/>
      <point x="507" y="551"/>
      <point x="507" y="567" type="curve" smooth="yes"/>
      <point x="507" y="580"/>
      <point x="505" y="592"/>
      <point x="501" y="601" type="curve"/>
      <point x="445" y="618"/>
      <point x="358" y="632"/>
      <point x="259" y="632" type="curve" smooth="yes"/>
      <point x="154" y="632"/>
      <point x="58" y="618"/>
      <point x="0" y="601" type="curve"/>
      <point x="-4" y="593"/>
      <point x="-6" y="580"/>
      <point x="-6" y="567" type="curve" smooth="yes"/>
      <point x="-6" y="551"/>
      <point x="-4" y="536"/>
      <point x="0" y="524" type="curve"/>
      <point x="60" y="538"/>
      <point x="153" y="551"/>
    </contour>
  </outline>
</glyph>
<glyph name="bn_h_ba" format="1">
  <advance width="471"/>
  <outline>
    <contour>
      <point x="322" y="-205" type="line"/>
      <point x="288" y="-139"/>
      <point x="202" y="-99"/>
      <point x="122" y="-67" type="curve"/>
      <point x="117" y="-102" type="line"/>
      <point x="177" y="-60"/>
      <point x="278" y="-24"/>
      <point x="355" y="-13" type="curve"/>
      <point x="290" y="54" type="line"/>
      <point x="195" y="26"/>
      <point x="108" y="-1"/>
      <point x="58" y="-39" type="curve"/>
      <point x="58" y="-71"/>
      <point x="67" y="-100"/>
      <point x="89" y="-130" type="curve"/>
      <point x="172" y="-145"/>
      <point x="255" y="-175"/>
      <point x="301" y="-242" type="curve"/>
    </contour>
    <contour>
      <point x="328" y="-244"/>
      <point x="363" y="-242"/>
      <point x="384" y="-233" type="curve"/>
      <point x="373" y="-199"/>
      <point x="369" y="-153"/>
      <point x="369" y="-105" type="curve" smooth="yes"/>
      <point x="369" y="-73"/>
      <point x="374" y="-32"/>
      <point x="381" y="5" type="curve"/>
      <point x="322" y="12" type="line"/>
      <point x="307" y="-44"/>
      <point x="295" y="-119"/>
      <point x="295" y="-175" type="curve" smooth="yes"/>
      <point x="295" y="-207"/>
      <point x="298" y="-227"/>
      <point x="301" y="-242" type="curve"/>
    </contour>
    <contour>
      <point x="456" y="-111"/>
      <point x="474" y="-92"/>
      <point x="488" y="-71" type="curve"/>
      <point x="383" y="26"/>
      <point x="279" y="100"/>
      <point x="175" y="150" type="curve"/>
      <point x="146" y="117" type="line"/>
      <point x="172" y="112"/>
      <point x="198" y="110"/>
      <point x="220" y="110" type="curve" smooth="yes"/>
      <point x="331" y="110"/>
      <point x="407" y="161"/>
      <point x="407" y="261" type="curve" smooth="yes"/>
      <point x="407" y="379"/>
      <point x="300" y="498"/>
      <point x="186" y="498" type="curve" smooth="yes"/>
      <point x="124" y="498"/>
      <point x="75" y="463"/>
      <point x="75" y="397" type="curve" smooth="yes"/>
      <point x="75" y="365"/>
      <point x="86" y="333"/>
      <point x="112" y="302" type="curve"/>
      <point x="139" y="302"/>
      <point x="175" y="310"/>
      <point x="198" y="322" type="curve"/>
      <point x="178" y="341"/>
      <point x="157" y="363"/>
      <point x="157" y="391" type="curve" smooth="yes"/>
      <point x="157" y="416"/>
      <point x="173" y="432"/>
      <point x="204" y="432" type="curve" smooth="yes"/>
      <point x="267" y="432"/>
      <point x="324" y="363"/>
      <point x="324" y="292" type="curve" smooth="yes"/>
      <point x="324" y="232"/>
      <point x="281" y="199"/>
      <point x="202" y="199" type="curve" smooth="yes"/>
      <point x="155" y="199"/>
      <point x="98" y="210"/>
      <point x="34" y="232" type="curve"/>
      <point x="54" y="125" type="line"/>
      <point x="190" y="82"/>
      <point x="314" y="3"/>
      <point x="437" y="-129" type="curve"/>
    </contour>
    <contour>
      <point x="60" y="537"/>
      <point x="150" y="550"/>
      <point x="237" y="550" type="curve" smooth="yes"/>
      <point x="326" y="550"/>
      <point x="419" y="537"/>
      <point x="471" y="524" type="curve"/>
      <point x="474" y="534"/>
      <point x="476" y="551"/>
      <point x="476" y="566" type="curve" smooth="yes"/>
      <point x="476" y="580"/>
      <point x="475" y="592"/>
      <point x="471" y="601" type="curve"/>
      <point x="423" y="617"/>
      <point x="327" y="631"/>
      <point x="239" y="631" type="curve" smooth="yes"/>
      <point x="150" y="631"/>
      <point x="58" y="617"/>
      <point x="0" y="601" type="curve"/>
      <point x="-5" y="593"/>
      <point x="-7" y="581"/>
      <point x="-7" y="567" type="curve" smooth="yes"/>
      <point x="-7" y="552"/>
      <point x="-4" y="536"/>
      <point x="0" y="524" type="curve"/>
    </contour>
    <contour>
      <point x="329" y="-231" type="move" name="blwm"/>
    </contour>
    <contour>
      <point x="199" y="-230" type="move" name="haln"/>
    </contour>
    <contour>
      <point x="234" y="690" type="move" name="chandrabindu"/>
    </contour>
    <contour>
      <point x="234" y="690" type="move" name="reph"/>
    </contour>
  </outline>
</glyph>
